<svg width="64" height="64" viewBox="0 0 64 64" fill="none" xmlns="http://www.w3.org/2000/svg">
    <path opacity="0.5" d="M48 56H40V64H48V56Z" fill="#0074BF" />
    <path opacity="0.7" d="M40 56H32V64H40V56Z" fill="#0074BF" />
    <path opacity="0.7" d="M32 56H24V64H32V56Z" fill="#0074BF" />
    <path opacity="0.5" d="M24 56H16V64H24V56Z" fill="#0074BF" />
    <path opacity="0.7" d="M56 48H48V56H56V48Z" fill="#0082BF" />
    <path opacity="0.8" d="M48 48H40V56H48V48Z" fill="#0082BF" />
    <path d="M40 48H32V56H40V48Z" fill="#0082BF" />
    <path d="M32 48H24V56H32V48Z" fill="#0082BF" />
    <path opacity="0.8" d="M24 48H16V56H24V48Z" fill="#0082BF" />
    <path opacity="0.7" d="M16 48H8V56H16V48Z" fill="#0082BF" />
    <path opacity="0.5" d="M64 40H56V48H64V40Z" fill="#008FBF" />
    <path opacity="0.8" d="M56 40H48V48H56V40Z" fill="#008FBF" />
    <path d="M48 40H40V48H48V40Z" fill="#008FBF" />
    <path d="M40 40H32V48H40V40Z" fill="#008FBF" />
    <path d="M32 40H24V48H32V40Z" fill="#008FBF" />
    <path d="M24 40H16V48H24V40Z" fill="#008FBF" />
    <path opacity="0.8" d="M16 40H8V48H16V40Z" fill="#008FBF" />
    <path opacity="0.5" d="M8 40H0V48H8V40Z" fill="#008FBF" />
    <path opacity="0.7" d="M64 32H56V40H64V32Z" fill="#009DBF" />
    <path d="M56 32H48V40H56V32Z" fill="#009DBF" />
    <path d="M48 32H40V40H48V32Z" fill="#009DBF" />
    <path d="M40 32H32V40H40V32Z" fill="#009DBF" />
    <path d="M32 32H24V40H32V32Z" fill="#009DBF" />
    <path d="M24 32H16V40H24V32Z" fill="#009DBF" />
    <path d="M16 32H8V40H16V32Z" fill="#009DBF" />
    <path opacity="0.7" d="M8 32H0V40H8V32Z" fill="#009DBF" />
    <path opacity="0.7" d="M64 24H56V32H64V24Z" fill="#00ABBF" />
    <path d="M56 24H48V32H56V24Z" fill="#00ABBF" />
    <path d="M48 24H40V32H48V24Z" fill="#00ABBF" />
    <path d="M40 24H32V32H40V24Z" fill="#00ABBF" />
    <path d="M32 24H24V32H32V24Z" fill="#00ABBF" />
    <path d="M24 24H16V32H24V24Z" fill="#00ABBF" />
    <path d="M16 24H8V32H16V24Z" fill="#00ABBF" />
    <path opacity="0.7" d="M8 24H0V32H8V24Z" fill="#00ABBF" />
    <path opacity="0.5" d="M64 16H56V24H64V16Z" fill="#00B9BF" />
    <path opacity="0.8" d="M56 16H48V24H56V16Z" fill="#00B9BF" />
    <path d="M48 16H40V24H48V16Z" fill="#00B9BF" />
    <path d="M40 16H32V24H40V16Z" fill="#00B9BF" />
    <path d="M32 16H24V24H32V16Z" fill="#00B9BF" />
    <path d="M24 16H16V24H24V16Z" fill="#00B9BF" />
    <path opacity="0.8" d="M16 16H8V24H16V16Z" fill="#00B9BF" />
    <path opacity="0.5" d="M8 16H0V24H8V16Z" fill="#00B9BF" />
    <path opacity="0.7" d="M56 8H48V16H56V8Z" fill="#00C6BF" />
    <path opacity="0.8" d="M48 8H40V16H48V8Z" fill="#00C6BF" />
    <path d="M40 8H32V16H40V8Z" fill="#00C6BF" />
    <path d="M32 8H24V16H32V8Z" fill="#00C6BF" />
    <path opacity="0.8" d="M24 8H16V16H24V8Z" fill="#00C6BF" />
    <path opacity="0.7" d="M16 8H8V16H16V8Z" fill="#00C6BF" />
    <path opacity="0.5" d="M48 0H40V8H48V0Z" fill="#00D4BF" />
    <path opacity="0.7" d="M40 0H32V8H40V0Z" fill="#00D4BF" />
    <path opacity="0.7" d="M32 0H24V8H32V0Z" fill="#00D4BF" />
    <path opacity="0.5" d="M24 0H16V8H24V0Z" fill="#00D4BF" />
    <path
        d="M21.0281 29.9394L23.2758 24.9143C24.0919 23.6258 23.9917 22.051 23.0897 21.1491C22.9752 21.0345 22.832 20.92 22.6889 20.8341C22.0732 20.4476 21.3145 20.3617 20.613 20.5907C19.8399 20.8341 19.167 21.3495 18.7375 22.0367C18.7375 22.0367 15.6594 29.2093 14.5284 32.4305C13.3974 35.6517 13.8412 41.5645 18.2507 45.974C22.9322 50.6555 29.6896 51.7149 34.0132 48.4794C34.1993 48.3935 34.3568 48.279 34.5143 48.1501L47.8144 37.0405C48.4586 36.5107 49.4178 35.4084 48.5588 34.1485C47.7285 32.9173 46.1393 33.762 45.4808 34.1771L37.8214 39.7463C37.6783 39.8608 37.4635 39.8465 37.3347 39.7033C37.3347 39.7033 37.3347 39.689 37.3204 39.689C37.1199 39.4456 37.0913 38.8157 37.3919 38.5723L49.1315 28.608C50.148 27.6917 50.2911 26.3603 49.4608 25.4584C48.659 24.5707 47.3849 24.5994 46.3684 25.5156L35.8314 33.762C35.631 33.9194 35.3304 33.8908 35.1729 33.6904L35.1586 33.6761C34.9438 33.447 34.8722 33.0461 35.1013 32.8028L47.0699 21.192C48.0148 20.3044 48.0721 18.8298 47.1844 17.8849C46.7549 17.4411 46.168 17.1834 45.5524 17.1834C44.9224 17.1834 44.3211 17.4125 43.8773 17.8563L31.651 29.3381C31.3647 29.6245 30.792 29.3381 30.7204 28.9945C30.6918 28.8657 30.7347 28.7369 30.8206 28.651L40.1837 17.9994C41.1142 17.1261 41.1715 15.6658 40.2982 14.7353C39.4249 13.8047 37.9646 13.7474 37.034 14.6207C36.9911 14.6494 36.9624 14.6923 36.9195 14.7353L22.7318 30.4405C22.2164 30.9559 21.4719 30.9702 21.114 30.6839C20.885 30.4978 20.8563 30.1685 21.0281 29.9394Z"
        fill="white" />
</svg>