<svg width="343" height="435" viewBox="0 0 343 435" fill="none" xmlns="http://www.w3.org/2000/svg">
<rect x="0.5" y="0.5" width="342" height="434" rx="15.5" stroke="#D2DDEC"/>
<rect x="21" y="123" width="40" height="22" fill="white"/>
<path d="M293.815 92.9482H217.913V172.066H293.815V92.9482Z" fill="#E0E0E0"/>
<path d="M288.674 92.9482H212.772V172.066H288.674V92.9482Z" fill="#FAFAFA"/>
<path d="M288.694 172.093H212.752V92.9277H288.694V172.093ZM212.793 172.046H288.64V92.9753H212.793V172.046Z" fill="#E0E0E0"/>
<path d="M278.467 103.583H222.972V161.431H278.467V103.583Z" fill="#FAFAFA"/>
<path d="M222.972 161.818C222.585 162.402 222.128 162.936 221.612 163.41C220.728 164.348 219.484 165.613 218.083 166.986C216.682 168.36 215.404 169.584 214.459 170.454C213.979 170.969 213.441 171.426 212.854 171.814C213.242 171.233 213.699 170.701 214.214 170.23C215.098 169.292 216.349 168.027 217.743 166.646C219.137 165.266 220.429 164.035 221.381 163.172C221.856 162.659 222.39 162.205 222.972 161.818Z" fill="#E0E0E0"/>
<path d="M278.44 161.676C279.021 162.066 279.555 162.522 280.031 163.036C280.97 163.927 282.234 165.171 283.608 166.565C284.982 167.959 286.212 169.244 287.083 170.189C287.598 170.669 288.054 171.208 288.443 171.794C287.862 171.405 287.331 170.949 286.858 170.434C285.92 169.55 284.655 168.299 283.275 166.898C281.894 165.497 280.67 164.178 279.8 163.267C279.285 162.793 278.828 162.258 278.44 161.676Z" fill="#E0E0E0"/>
<path d="M278.317 103.761C278.709 103.18 279.165 102.646 279.677 102.169C280.568 101.231 281.813 99.9662 283.207 98.5926C284.601 97.219 285.886 95.995 286.831 95.1246C287.31 94.6096 287.849 94.1531 288.436 93.7646C288.046 94.3465 287.59 94.8805 287.076 95.3558C286.185 96.2874 284.941 97.559 283.54 98.9326C282.139 100.306 280.854 101.544 279.909 102.414C279.436 102.927 278.901 103.379 278.317 103.761Z" fill="#E0E0E0"/>
<path d="M222.823 103.883C222.24 103.496 221.705 103.039 221.232 102.523C220.294 101.632 219.029 100.388 217.655 98.9938C216.282 97.5998 215.058 96.3146 214.187 95.3694C213.672 94.89 213.216 94.3513 212.827 93.7646C213.407 94.1534 213.939 94.6099 214.412 95.1246C215.35 96.0154 216.622 97.2598 217.995 98.6606C219.369 100.061 220.606 101.381 221.477 102.292C221.99 102.765 222.442 103.299 222.823 103.883Z" fill="#E0E0E0"/>
<path d="M278.317 161.431C278.311 161.338 278.311 161.245 278.317 161.152C278.317 160.955 278.317 160.689 278.317 160.343C278.317 159.622 278.317 158.575 278.317 157.221C278.317 154.501 278.283 150.496 278.256 145.43C278.256 135.298 278.195 120.869 278.147 103.583L278.365 103.801H223.027L223.278 103.549C223.278 124.785 223.278 144.648 223.237 161.397L223.027 161.186L263.099 161.295L274.353 161.349H277.331H278.1H278.372C278.291 161.36 278.208 161.36 278.127 161.349H277.379H274.441L263.235 161.403L223.027 161.505H222.816V161.288C222.816 144.539 222.816 124.677 222.782 103.44V103.195H223.033L278.372 103.229H278.583V103.44C278.542 120.78 278.501 135.264 278.474 145.43C278.474 150.469 278.433 154.44 278.419 157.167C278.419 158.527 278.419 159.533 278.419 160.247C278.419 160.587 278.419 160.839 278.419 161.036C278.402 161.171 278.368 161.304 278.317 161.431Z" fill="#E0E0E0"/>
<path d="M259.978 123.249H241.461V141.765H259.978V123.249Z" fill="#EBEBEB"/>
<path d="M140.967 88.9324L132.807 88.9766L133.026 129.572L141.186 129.528L140.967 88.9324Z" fill="#E0E0E0"/>
<path d="M83.2496 89.0478L62.1223 89.1621L62.2436 111.575L83.3709 111.46L83.2496 89.0478Z" fill="#EBEBEB"/>
<path d="M104.281 88.9267L83.1538 89.041L83.2751 111.453L104.402 111.339L104.281 88.9267Z" fill="#F5F5F5"/>
<path d="M62.1524 95.3552C76.2058 95.473 90.2591 95.4073 104.312 95.158C104.372 95.158 104.429 95.1343 104.471 95.0923C104.513 95.0502 104.537 94.9931 104.537 94.9336C104.537 94.8741 104.513 94.817 104.471 94.7749C104.429 94.7328 104.372 94.7092 104.312 94.7092C90.2772 94.6344 76.2012 94.7092 62.1524 94.9676C62.1073 94.9761 62.0665 95.0001 62.0371 95.0355C62.0078 95.0709 61.9917 95.1154 61.9917 95.1614C61.9917 95.2074 62.0078 95.2519 62.0371 95.2873C62.0665 95.3227 62.1073 95.3467 62.1524 95.3552Z" fill="#E0E0E0"/>
<path d="M87.3403 111.084L48.9548 111.292L49.0537 129.557L87.4391 129.349L87.3403 111.084Z" fill="#EBEBEB"/>
<path d="M125.832 110.307L87.4458 110.69L87.6284 128.955L126.014 128.571L125.832 110.307Z" fill="#F5F5F5"/>
<path d="M48.974 116.374C74.4808 116.66 100.069 116.374 125.569 115.993C125.629 115.993 125.686 115.97 125.728 115.928C125.77 115.886 125.794 115.829 125.794 115.769C125.794 115.71 125.77 115.652 125.728 115.61C125.686 115.568 125.629 115.545 125.569 115.545C100.069 115.409 74.4808 115.429 48.9808 115.987C48.9356 115.995 48.8948 116.019 48.8655 116.055C48.8361 116.09 48.8201 116.134 48.8201 116.18C48.8201 116.226 48.8361 116.271 48.8655 116.306C48.8948 116.342 48.9356 116.366 48.9808 116.374H48.974Z" fill="#E0E0E0"/>
<path d="M183.335 129.56H34.6191V136.101H183.335V129.56Z" fill="#E0E0E0"/>
<path d="M65.0081 132.701H58.9697V155.026H65.0081V132.701Z" fill="#E0E0E0"/>
<path d="M155.129 132.701H149.09V155.026H155.129V132.701Z" fill="#E0E0E0"/>
<path d="M148.929 73.7928L140.769 73.8369L141.071 129.671L149.231 129.627L148.929 73.7928Z" fill="#EBEBEB"/>
<path d="M161.674 84.1892L148.999 84.2578L149.243 129.504L161.918 129.436L161.674 84.1892Z" fill="#F5F5F5"/>
<path d="M161.589 92.9139C161.589 93.0363 158.746 93.1383 155.244 93.1383C151.742 93.1383 148.907 93.0363 148.907 92.9139C148.907 92.7915 151.749 92.6963 155.244 92.6963C158.74 92.6963 161.589 92.7915 161.589 92.9139Z" fill="#E0E0E0"/>
<path d="M161.589 91.0174C161.589 91.1398 158.746 91.235 155.244 91.235C151.742 91.235 148.907 91.1398 148.907 91.0174C148.907 90.895 151.749 90.793 155.244 90.793C158.74 90.793 161.589 90.895 161.589 91.0174Z" fill="#E0E0E0"/>
<path d="M161.589 122.637C161.589 122.759 158.746 122.861 155.244 122.861C151.742 122.861 148.907 122.759 148.907 122.637C148.907 122.514 151.749 122.419 155.244 122.419C158.74 122.419 161.589 122.514 161.589 122.637Z" fill="#E0E0E0"/>
<path d="M161.589 120.76C161.589 120.882 158.746 120.977 155.244 120.977C151.742 120.977 148.907 120.882 148.907 120.76C148.907 120.637 151.749 120.535 155.244 120.535C158.74 120.535 161.589 120.617 161.589 120.76Z" fill="#E0E0E0"/>
<path d="M155.449 116.591C155.333 116.591 155.231 112.022 155.231 106.391C155.231 100.761 155.333 96.1914 155.449 96.1914C155.564 96.1914 155.673 100.754 155.673 106.391C155.673 112.029 155.571 116.591 155.449 116.591Z" fill="#E0E0E0"/>
<path d="M175.522 95.3076H161.725V129.464H175.522V95.3076Z" fill="#EBEBEB"/>
<path d="M147.071 83.3606C147.071 83.8246 146.933 84.2782 146.676 84.664C146.418 85.0498 146.051 85.3505 145.623 85.5281C145.194 85.7056 144.722 85.7521 144.267 85.6616C143.812 85.5711 143.394 85.3476 143.066 85.0195C142.738 84.6914 142.515 84.2734 142.424 83.8183C142.333 83.3633 142.38 82.8915 142.557 82.4629C142.735 82.0342 143.036 81.6678 143.422 81.41C143.807 81.1522 144.261 81.0146 144.725 81.0146C145.347 81.0164 145.942 81.2642 146.382 81.7038C146.821 82.1433 147.069 82.739 147.071 83.3606Z" fill="#E0E0E0"/>
<path d="M145.445 89.7861H143.997V123.004H145.445V89.7861Z" fill="#E0E0E0"/>
<path d="M220.933 154.25C220.058 152.844 219.491 151.269 219.269 149.628C219.048 147.987 219.177 146.318 219.647 144.73C220.276 142.889 221.172 141.15 222.306 139.569C223.494 137.633 225.005 135.915 226.774 134.489C226.012 135.169 227.053 134.279 226.774 134.489C227.093 134.183 227.515 132.449 227.712 132.028C228.746 129.988 229.487 129.376 230.201 129.151C231.193 128.786 232.221 128.526 233.268 128.376C234.682 128.165 237.083 129.165 238.273 129.954C238.548 129.045 239.053 128.222 239.737 127.564C240.422 126.906 241.264 126.434 242.183 126.193C243.107 125.967 244.069 125.937 245.007 126.105C245.944 126.274 246.835 126.638 247.623 127.173C247.7 127.248 247.795 127.303 247.898 127.335C248.001 127.366 248.111 127.373 248.217 127.353C248.324 127.334 248.424 127.29 248.51 127.224C248.595 127.158 248.664 127.073 248.711 126.975C249.251 126.284 249.969 125.752 250.788 125.437C251.608 125.122 252.497 125.035 253.362 125.187C254.218 125.381 254.975 125.876 255.494 126.583C256.014 127.29 256.261 128.161 256.191 129.036C256.855 128.515 257.661 128.207 258.504 128.154C259.346 128.1 260.185 128.303 260.91 128.736C261.634 129.169 262.211 129.812 262.563 130.579C262.915 131.346 263.026 132.202 262.882 133.034C264.119 132.769 265.541 132.545 266.547 133.32C267.151 133.882 267.612 134.581 267.888 135.359C268.165 136.137 268.251 136.97 268.138 137.787C267.844 139.217 267.173 140.541 266.193 141.623C265.044 142.643 264.058 141.997 262.555 142.303C260.318 142.799 257.952 143.275 255.755 142.575" fill="#263238"/>
<path d="M270.076 155.76C269.577 149.441 266.718 143.54 262.068 139.233C257.417 134.925 251.316 132.525 244.977 132.511H243.671C229.582 133.306 222.387 145.71 223.571 159.772L226.08 224.719H258.366L258.081 203.584C258.081 203.584 271.626 201.504 271.817 187.944C271.932 181.43 271.035 167.952 270.076 155.76Z" fill="#B78876"/>
<path d="M258.21 203.564C251.922 203.555 245.769 201.74 240.482 198.335C240.482 198.335 244.637 208.086 258.162 206.896L258.21 203.564Z" fill="#995037"/>
<path d="M264.84 166.456C264.844 166.96 264.65 167.446 264.301 167.809C263.952 168.172 263.474 168.385 262.97 168.401C262.724 168.42 262.476 168.39 262.242 168.312C262.007 168.234 261.791 168.11 261.605 167.947C261.419 167.784 261.268 167.586 261.16 167.364C261.053 167.141 260.99 166.9 260.978 166.653C260.974 166.149 261.167 165.663 261.517 165.3C261.866 164.937 262.344 164.724 262.848 164.708C263.094 164.69 263.341 164.721 263.575 164.799C263.809 164.877 264.025 165.001 264.211 165.164C264.396 165.327 264.547 165.525 264.655 165.747C264.763 165.968 264.826 166.21 264.84 166.456Z" fill="#263238"/>
<path d="M267.152 162.376C266.907 162.628 265.445 161.54 263.364 161.547C261.284 161.553 259.76 162.58 259.536 162.329C259.427 162.213 259.672 161.757 260.338 161.275C261.24 160.654 262.311 160.327 263.405 160.336C264.488 160.337 265.542 160.68 266.418 161.315C267.05 161.812 267.268 162.24 267.152 162.376Z" fill="#263238"/>
<path d="M244.8 167.381C244.806 167.887 244.613 168.374 244.264 168.739C243.914 169.104 243.435 169.317 242.93 169.333C242.684 169.351 242.437 169.321 242.203 169.242C241.969 169.164 241.753 169.04 241.567 168.877C241.382 168.715 241.231 168.517 241.123 168.295C241.015 168.073 240.952 167.832 240.938 167.585C240.938 167.082 241.132 166.599 241.481 166.236C241.83 165.873 242.305 165.66 242.808 165.641C243.054 165.621 243.301 165.651 243.535 165.728C243.769 165.806 243.985 165.929 244.171 166.092C244.356 166.254 244.508 166.451 244.616 166.673C244.724 166.894 244.787 167.135 244.8 167.381Z" fill="#263238"/>
<path d="M246.677 163.417C246.432 163.669 244.97 162.581 242.889 162.581C240.809 162.581 239.285 163.621 239.061 163.37C238.952 163.254 239.19 162.798 239.857 162.316C240.761 161.696 241.834 161.369 242.93 161.377C244.01 161.378 245.062 161.721 245.936 162.356C246.575 162.846 246.793 163.308 246.677 163.417Z" fill="#263238"/>
<path d="M254.218 178.166C254.218 178.051 255.503 177.826 257.618 177.568C258.148 177.514 258.652 177.405 258.747 177.044C258.792 176.495 258.668 175.945 258.393 175.467C257.895 174.184 257.373 172.835 256.829 171.421C254.66 165.654 253.089 160.922 253.32 160.833C253.552 160.745 255.503 165.348 257.672 171.115L259.168 175.195C259.504 175.837 259.6 176.576 259.44 177.282C259.364 177.469 259.246 177.635 259.095 177.768C258.944 177.901 258.764 177.998 258.57 178.051C258.275 178.131 257.971 178.175 257.666 178.18C255.537 178.282 254.225 178.289 254.218 178.166Z" fill="#263238"/>
<path d="M248.091 179.594C248.431 179.594 248.431 181.831 250.363 183.443C252.294 185.054 254.694 184.803 254.715 185.122C254.715 185.258 254.178 185.558 253.158 185.585C251.835 185.597 250.55 185.144 249.526 184.306C248.546 183.5 247.917 182.344 247.772 181.083C247.683 180.138 247.942 179.58 248.091 179.594Z" fill="#263238"/>
<path d="M247.745 158.704C247.548 159.269 245.467 159.024 243.026 159.343C240.584 159.663 238.626 160.35 238.266 159.847C238.123 159.609 238.456 159.071 239.245 158.487C240.307 157.804 241.511 157.374 242.765 157.228C244.019 157.081 245.289 157.224 246.48 157.643C247.378 157.997 247.84 158.432 247.745 158.704Z" fill="#263238"/>
<path d="M267.655 156.366C267.261 156.882 265.466 156.57 263.365 156.76C261.263 156.95 259.516 157.44 259.06 157.018C258.856 156.801 259.06 156.298 259.822 155.774C260.838 155.11 262.01 154.723 263.222 154.652C264.426 154.535 265.64 154.742 266.737 155.25C267.56 155.658 267.832 156.121 267.655 156.366Z" fill="#263238"/>
<path d="M225.597 169.795C225.4 169.72 216.302 167 216.56 176.282C216.818 185.564 226.08 183.347 226.08 183.082C226.08 182.817 225.597 169.795 225.597 169.795Z" fill="#B78876"/>
<path d="M223.979 179.662C223.938 179.662 223.823 179.777 223.557 179.913C223.179 180.086 222.748 180.108 222.354 179.974C221.361 179.641 220.491 178.118 220.395 176.452C220.35 175.658 220.483 174.863 220.783 174.126C220.859 173.835 221.006 173.567 221.21 173.345C221.413 173.123 221.669 172.955 221.953 172.855C222.137 172.799 222.334 172.81 222.511 172.886C222.688 172.962 222.832 173.098 222.918 173.27C223.054 173.521 223 173.712 223.047 173.725C223.095 173.739 223.245 173.562 223.156 173.181C223.099 172.952 222.965 172.751 222.775 172.61C222.514 172.429 222.192 172.356 221.878 172.406C221.499 172.491 221.149 172.672 220.861 172.931C220.572 173.191 220.356 173.521 220.232 173.888C219.863 174.702 219.699 175.594 219.756 176.486C219.865 178.349 220.878 180.063 222.225 180.41C222.475 180.475 222.737 180.484 222.992 180.434C223.246 180.385 223.486 180.279 223.693 180.124C223.972 179.92 224.04 179.675 223.979 179.662Z" fill="#995037"/>
<path d="M231.663 142.282L236.239 138.332L250.791 140.562L260.991 137.93L267.111 138.862C265.969 140.406 266.907 138.338 264.575 136.577C259.558 132.691 253.442 130.489 247.099 130.287C240.809 130.178 227.991 137.842 223.435 142.18C219.783 145.655 219.81 148.661 219.81 148.661C219.226 153.666 222.027 159.35 223.142 164.267C223.714 166.803 224.829 174.467 224.829 174.467C226.95 174.467 227.746 172.767 227.42 170.666L227.025 162.417C227.025 162.417 234.24 157.276 230.84 147.872C230.289 147.117 229.12 143.683 231.663 142.282Z" fill="#263238"/>
<path d="M229.779 144.485C230.595 141.847 233.478 140.201 236.239 140.235C239 140.269 241.591 141.711 243.604 143.635C244.098 144.156 244.655 144.613 245.263 144.995C245.567 145.181 245.912 145.289 246.268 145.31C246.623 145.331 246.979 145.265 247.303 145.118C247.493 145.016 247.697 144.859 247.908 144.92C248.053 144.98 248.173 145.088 248.248 145.226C248.772 146.082 249.51 146.785 250.39 147.266C250.831 147.489 251.33 147.567 251.818 147.492C252.305 147.416 252.757 147.19 253.11 146.845C253.616 147.313 254.248 147.623 254.928 147.736C255.608 147.85 256.307 147.762 256.937 147.484C257.568 147.206 258.104 146.749 258.479 146.17C258.853 145.592 259.051 144.916 259.046 144.227C260.257 144.642 261.569 143.9 262.446 142.948C263.131 142.188 263.636 141.284 263.926 140.303C264.216 139.322 264.282 138.289 264.12 137.279C263.959 136.269 263.573 135.308 262.992 134.466C262.41 133.625 261.648 132.924 260.76 132.415C259.367 131.703 257.851 131.264 256.292 131.123C253.862 130.777 251.411 130.593 248.955 130.572C247.878 130.505 246.798 130.631 245.766 130.946C244.358 131.456 243.189 132.606 241.686 132.789C240.727 132.829 239.77 132.677 238.871 132.34C237.56 131.889 236.176 131.686 234.791 131.742C232.071 131.987 229.847 133.932 228.052 135.978C226.698 137.346 225.72 139.039 225.21 140.895C224.815 142.765 225.393 144.975 227.018 145.968C227.329 146.181 227.685 146.319 228.059 146.368C228.432 146.418 228.812 146.379 229.167 146.253C229.515 146.109 229.792 145.832 229.937 145.485C230.082 145.137 230.084 144.746 229.942 144.397" fill="#263238"/>
<path d="M225.604 211.88L188 230.573L203.511 319.184L194.542 370.279L291.272 370.47L284.988 271.979L298.452 232.416L258.203 211.404C246.759 224.95 235.797 222.209 225.604 211.88Z" fill="#5833BC"/>
<path d="M264.303 287.707C264.303 287.707 264.303 287.49 264.262 287.068C264.221 286.646 264.262 286.007 264.201 285.198C264.153 283.546 264.092 281.118 264.01 278.092C263.861 271.972 263.657 263.193 263.405 252.674L263.691 252.735C260.96 258.621 257.715 264.255 253.994 269.572L253.81 269.837L253.695 269.538C251.655 264.247 249.234 258.658 246.446 253.095L244.943 250.13H245.249C241.679 256.434 239.124 263.261 237.681 270.36L237.62 270.66L237.402 270.442L225.461 258.644L225.706 258.522C226.417 265.914 227.692 273.24 229.521 280.438C230.201 283.022 230.758 285.028 231.16 286.388C231.364 287.068 231.513 287.578 231.622 287.938C231.731 288.299 231.771 288.476 231.771 288.476C231.771 288.476 231.697 288.299 231.581 287.952C231.465 287.605 231.296 287.082 231.078 286.415C230.65 285.055 230.044 283.056 229.364 280.479C227.471 273.287 226.152 265.956 225.42 258.556L225.4 258.12L225.686 258.399L237.64 270.19L237.361 270.272C238.803 263.145 241.362 256.29 244.943 249.96L245.106 249.675L245.256 249.967C245.752 250.953 246.256 251.939 246.766 252.939C249.554 258.535 251.974 264.111 254.014 269.415L253.715 269.374C257.431 264.077 260.677 258.466 263.419 252.606L263.698 252.014V252.694C263.895 263.214 264.058 271.972 264.173 278.112C264.214 281.166 264.255 283.552 264.282 285.225C264.282 286.028 264.282 286.653 264.282 287.095C264.282 287.537 264.303 287.707 264.303 287.707Z" fill="#263238"/>
<path d="M222.68 251.769C222.68 251.769 222.789 251.681 223.02 251.653C223.358 251.633 223.694 251.714 223.986 251.885C224.208 252.012 224.402 252.183 224.557 252.387C224.711 252.592 224.822 252.826 224.883 253.075C224.94 253.391 224.907 253.718 224.786 254.016C224.666 254.314 224.464 254.573 224.203 254.761C223.958 254.966 223.662 255.103 223.347 255.156C223.032 255.21 222.708 255.179 222.408 255.067C222.163 254.974 221.948 254.816 221.787 254.61C221.625 254.404 221.522 254.157 221.49 253.897C221.475 253.723 221.505 253.548 221.575 253.388C221.645 253.227 221.753 253.087 221.891 252.979C222.095 252.837 222.238 252.837 222.238 252.857C222.238 252.877 222.129 252.925 221.986 253.081C221.89 253.187 221.817 253.312 221.774 253.448C221.73 253.584 221.717 253.728 221.735 253.87C221.779 254.076 221.875 254.267 222.014 254.424C222.154 254.581 222.332 254.7 222.53 254.768C222.777 254.846 223.04 254.861 223.295 254.811C223.549 254.761 223.787 254.648 223.986 254.482C224.196 254.33 224.36 254.122 224.46 253.882C224.559 253.642 224.591 253.379 224.55 253.122C224.462 252.702 224.219 252.331 223.87 252.082C223.51 251.869 223.098 251.76 222.68 251.769Z" fill="#263238"/>
<path d="M245.188 244.194C245.188 244.194 245.311 244.119 245.555 244.133C245.896 244.165 246.218 244.3 246.48 244.52C246.684 244.685 246.85 244.892 246.967 245.126C247.085 245.361 247.15 245.618 247.16 245.88C247.145 246.207 247.043 246.524 246.866 246.798C246.688 247.073 246.441 247.295 246.149 247.443C245.857 247.591 245.532 247.659 245.205 247.64C244.879 247.621 244.563 247.516 244.29 247.335C244.087 247.17 243.921 246.963 243.804 246.729C243.686 246.494 243.621 246.237 243.61 245.975C243.585 245.628 243.668 245.281 243.848 244.983C243.984 244.779 244.1 244.711 244.114 244.724C243.914 245.102 243.826 245.529 243.862 245.955C243.887 246.175 243.956 246.387 244.065 246.58C244.174 246.772 244.32 246.941 244.494 247.077C244.721 247.213 244.978 247.289 245.242 247.298C245.505 247.307 245.767 247.25 246.002 247.13C246.237 247.01 246.438 246.833 246.586 246.614C246.734 246.396 246.824 246.143 246.847 245.88C246.843 245.659 246.794 245.441 246.704 245.239C246.614 245.037 246.485 244.855 246.324 244.704C246.004 244.426 245.609 244.248 245.188 244.194Z" fill="#263238"/>
<path d="M265.18 246.262C264.759 246.317 264.369 246.511 264.072 246.812C263.922 246.972 263.809 247.162 263.742 247.371C263.675 247.579 263.655 247.799 263.684 248.016C263.741 248.27 263.874 248.5 264.066 248.675C264.259 248.851 264.5 248.962 264.758 248.995C265.013 249.056 265.28 249.036 265.523 248.94C265.766 248.844 265.974 248.676 266.118 248.458C266.221 248.266 266.28 248.054 266.291 247.836C266.301 247.618 266.263 247.401 266.18 247.2C266.01 246.811 265.712 246.492 265.336 246.296C265.336 246.296 265.479 246.296 265.697 246.364C266.011 246.52 266.263 246.779 266.411 247.098C266.527 247.335 266.588 247.596 266.588 247.86C266.588 248.124 266.527 248.384 266.411 248.621C266.228 248.895 265.969 249.11 265.666 249.238C265.362 249.367 265.028 249.404 264.704 249.344C264.38 249.285 264.081 249.132 263.843 248.905C263.604 248.677 263.438 248.385 263.364 248.064C263.337 247.8 263.372 247.534 263.465 247.287C263.558 247.039 263.708 246.816 263.902 246.636C264.148 246.39 264.473 246.239 264.82 246.207C265.058 246.187 265.187 246.248 265.18 246.262Z" fill="#263238"/>
<path d="M268.689 289.604C268.54 289.62 268.389 289.62 268.24 289.604H262.222C258.224 289.604 252.702 289.692 246.623 289.985C240.544 290.277 235.063 290.719 231.051 291.1L226.345 291.562L225.06 291.678C224.911 291.696 224.76 291.696 224.611 291.678C224.755 291.633 224.903 291.604 225.053 291.59L226.325 291.406C227.433 291.25 229.045 291.046 231.031 290.828C235.002 290.386 240.503 289.903 246.603 289.611C252.702 289.318 258.224 289.278 262.243 289.332C264.242 289.332 265.86 289.407 267.003 289.454L268.288 289.516C268.424 289.532 268.558 289.562 268.689 289.604Z" fill="#263238"/>
<path d="M283.656 280.981L313.61 279.669C313.61 279.669 306.667 234.109 296.936 231.559C287.205 229.009 281.038 257.474 281.038 257.474L283.656 280.981Z" fill="#5833BC"/>
<path d="M171.741 291.087C171.884 289.455 176.957 235.654 188.061 230.567C199.166 225.481 205.741 286.858 205.741 286.858L171.741 291.087Z" fill="#5833BC"/>
<path d="M287.423 310.195C287.423 310.195 287.423 310.147 287.423 310.045L287.375 309.589C287.341 309.161 287.294 308.576 287.239 307.849C287.131 306.298 286.988 304.109 286.804 301.423C286.464 295.983 286.049 288.503 285.696 280.213C285.342 271.924 285.118 264.41 285.05 258.977C285.05 256.257 285.009 254.061 285.05 252.537C285.05 251.803 285.05 251.218 285.05 250.79C285.042 250.585 285.053 250.38 285.084 250.178C285.084 250.178 285.084 250.232 285.084 250.334C285.084 250.436 285.084 250.606 285.084 250.79C285.084 251.218 285.084 251.803 285.125 252.537C285.125 254.088 285.193 256.277 285.247 258.97C285.383 264.41 285.628 271.89 285.995 280.2C286.362 288.509 286.729 295.983 287.001 301.409C287.137 304.095 287.246 306.285 287.321 307.835C287.321 308.576 287.375 309.154 287.396 309.589C287.423 309.79 287.432 309.992 287.423 310.195Z" fill="#263238"/>
<path d="M201.009 307.434C200.997 307.242 200.997 307.049 201.009 306.856C201.009 306.441 201.009 305.891 201.009 305.19C201.009 303.708 201.009 301.62 201.009 299.07C201.009 293.895 200.859 286.749 200.716 278.854C200.573 270.959 200.492 263.805 200.526 258.631C200.526 256.04 200.567 253.945 200.614 252.511C200.614 251.831 200.648 251.259 200.662 250.851C200.662 250.655 200.678 250.46 200.709 250.267C200.721 250.461 200.721 250.657 200.709 250.851C200.709 251.259 200.709 251.817 200.709 252.517C200.709 254 200.709 256.081 200.709 258.637C200.709 263.812 200.859 270.959 201.002 278.854C201.145 286.749 201.226 293.895 201.192 299.077C201.192 301.661 201.151 303.755 201.104 305.197C201.104 305.877 201.104 306.448 201.056 306.863C201.056 307.054 201.04 307.245 201.009 307.434Z" fill="#263238"/>
<path d="M200.723 246.411C200.661 246.411 200.444 245.295 199.893 243.541C199.19 241.253 198.137 239.088 196.772 237.122C195.39 235.169 193.595 233.544 191.515 232.362C190.632 231.907 189.724 231.5 188.795 231.145C189.065 231.165 189.33 231.223 189.584 231.315C190.289 231.525 190.972 231.803 191.624 232.144C193.787 233.281 195.65 234.912 197.064 236.904C198.456 238.9 199.496 241.119 200.138 243.466C200.339 244.169 200.505 244.882 200.634 245.601C200.695 245.867 200.725 246.138 200.723 246.411Z" fill="#263238"/>
<path d="M218.886 304.075L225.142 320.143C225.142 320.143 195.555 335.783 188.728 336.327C181.901 336.871 179.786 335.327 176.943 330.078C174.686 325.909 175.094 315.675 175.672 309.032C176.44 299.981 177.12 290.379 177.12 290.379L200.485 287.51L200.907 307.366L218.859 304.075" fill="#B78876"/>
<path d="M200.716 307.618C200.059 307.747 199.412 307.92 198.778 308.135C197.297 308.777 195.955 309.701 194.827 310.855C193.648 311.966 192.544 313.154 191.522 314.411C190.754 315.39 190.407 316.084 190.359 316.057C190.386 315.873 190.451 315.697 190.55 315.54C190.775 315.096 191.032 314.669 191.318 314.262C192.295 312.945 193.387 311.719 194.582 310.596C195.736 309.398 197.141 308.469 198.696 307.876C199.171 307.713 199.665 307.611 200.165 307.57C200.35 307.551 200.537 307.567 200.716 307.618Z" fill="#995037"/>
<path d="M311.93 279.744L287.083 280.832L290.938 309.596L283.812 310.48L271.361 307.033L264.677 325.093C264.677 325.093 291.788 337.123 299.935 337.973C308.081 338.823 313.678 333.893 315.575 327.963C317.472 322.033 311.93 279.744 311.93 279.744Z" fill="#B78876"/>
<path d="M255.225 273.223H239.707C237.217 273.223 235.199 275.241 235.199 277.731V317.735C235.199 320.225 237.217 322.244 239.707 322.244H255.225C257.715 322.244 259.733 320.225 259.733 317.735V277.731C259.733 275.241 257.715 273.223 255.225 273.223Z" fill="#455A64"/>
<path d="M247.289 281.628C248.059 281.628 248.683 281.004 248.683 280.234C248.683 279.464 248.059 278.84 247.289 278.84C246.52 278.84 245.896 279.464 245.896 280.234C245.896 281.004 246.52 281.628 247.289 281.628Z" fill="white"/>
<path d="M307.136 320.055C307.068 320.055 306.775 318.933 305.871 317.287C304.697 315.143 303.009 313.322 300.96 311.989C298.911 310.655 296.564 309.849 294.127 309.644C292.257 309.481 291.095 309.678 291.088 309.644C291.349 309.554 291.621 309.502 291.897 309.487C292.644 309.402 293.397 309.382 294.148 309.426C296.644 309.568 299.059 310.361 301.154 311.726C303.249 313.091 304.95 314.98 306.089 317.205C306.436 317.87 306.723 318.564 306.945 319.279C307.042 319.529 307.106 319.789 307.136 320.055Z" fill="#995037"/>
<path d="M235.518 284.708C234.114 284.636 232.707 284.636 231.302 284.708L225.332 291.25C225.332 291.25 224.652 297.37 223.625 298.641C222.598 299.913 218.076 304.333 218.076 304.333L224.332 320.401L228.888 319.551C228.888 319.551 231.608 321.258 234.43 320.401C237.252 319.545 241.4 315.567 241.4 315.567L249.887 315.138L254.041 311.221L248.486 303.741L237.137 303.313L242.821 300.892L256.333 299.614C256.333 299.614 259.461 299.328 258.183 296.486C256.904 293.643 248.663 294.065 248.663 294.065L242.257 294.493C242.257 294.493 247.384 292.596 248.2 290.91C248.826 289.625 248.996 288.387 247.52 287.381C246.84 286.898 236.13 287.632 236.13 287.632L235.518 284.708Z" fill="#B78876"/>
<path d="M228.929 313.684C228.929 313.684 228.841 313.684 228.677 313.636C228.436 313.564 228.207 313.456 227.997 313.316C227.268 312.777 226.758 311.992 226.563 311.106C226.323 309.803 226.405 308.461 226.801 307.196C226.889 306.843 226.977 306.482 227.066 306.108C227.128 305.946 227.153 305.772 227.139 305.599C227.125 305.426 227.072 305.259 226.984 305.109C226.735 304.804 226.46 304.522 226.161 304.266C225.866 303.943 225.635 303.567 225.481 303.157C225.165 302.344 225.165 301.441 225.481 300.628C225.842 299.983 225.971 299.234 225.849 298.506C225.605 297.867 225.318 297.244 224.992 296.643C224.697 295.947 224.545 295.199 224.545 294.443C224.545 293.687 224.697 292.939 224.992 292.243C225.091 292.024 225.207 291.812 225.339 291.611C225.434 291.475 225.488 291.407 225.502 291.414C225.515 291.42 225.339 291.72 225.121 292.291C224.824 293.101 224.71 293.967 224.788 294.827C224.842 295.413 224.994 295.985 225.237 296.52C225.581 297.13 225.881 297.764 226.134 298.418C226.24 298.809 226.24 299.222 226.134 299.614C226.029 299.997 225.904 300.374 225.76 300.743C225.471 301.477 225.471 302.294 225.76 303.028C225.902 303.397 226.114 303.734 226.386 304.021C226.698 304.296 226.985 304.598 227.243 304.925C227.369 305.118 227.439 305.341 227.447 305.571C227.449 305.78 227.421 305.989 227.365 306.19C227.27 306.557 227.175 306.924 227.086 307.278C226.685 308.494 226.578 309.787 226.773 311.052C226.958 311.903 227.435 312.663 228.12 313.201C228.376 313.383 228.647 313.544 228.929 313.684Z" fill="#995037"/>
<path d="M253.226 309.8C253.031 309.894 252.822 309.956 252.607 309.984C252.033 310.089 251.45 310.143 250.866 310.147C248.953 310.097 247.043 309.941 245.147 309.678C243.252 309.524 241.345 309.581 239.463 309.848C238.007 310.018 237.11 310.161 237.103 310.113C237.295 310.016 237.502 309.954 237.715 309.93C238.116 309.834 238.701 309.719 239.429 309.603C241.323 309.254 243.255 309.161 245.175 309.324C247.412 309.556 249.411 309.882 250.866 309.896C252.321 309.909 253.212 309.76 253.226 309.8Z" fill="#995037"/>
<path d="M242.937 294.276C242.937 294.391 240.605 294.826 237.837 295.765C235.07 296.703 232.948 297.805 232.894 297.716C233.311 297.392 233.768 297.123 234.254 296.914C235.378 296.337 236.542 295.84 237.735 295.425C238.932 295.023 240.154 294.703 241.394 294.466C241.898 294.336 242.417 294.272 242.937 294.276Z" fill="#995037"/>
<path d="M236.892 287.122C236.388 287.564 235.807 287.909 235.179 288.142C234.598 288.477 233.963 288.708 233.302 288.822C234.387 288.041 235.603 287.458 236.892 287.102V287.122Z" fill="#995037"/>
<path d="M260.345 286.599C260.345 286.599 271.13 292.277 271.436 293.82C271.672 295.371 271.79 296.937 271.789 298.505L271.361 307.033L264.677 325.093C264.677 325.093 259.128 325.665 256.714 324.413C254.3 323.162 252.872 320 252.872 320L249.88 315.138L253.545 310.983L247.459 303.762C247.459 303.762 252.722 301.205 256.299 302.769C258.661 303.886 260.823 305.384 262.698 307.203L261.562 302.055L254.721 297.717L251.593 295.473C250.797 294.917 250.187 294.133 249.845 293.224C249.502 292.314 249.443 291.323 249.676 290.379C249.789 289.765 250.123 289.214 250.614 288.829C252.165 287.836 264.84 295.52 264.84 295.52C264.84 295.52 259.849 290.964 259.441 289.346C259.033 287.727 259.57 286.109 260.345 286.599Z" fill="#B78876"/>
<path d="M271.64 319.436C271.471 318.84 271.368 318.226 271.334 317.607C271.205 316.472 271.089 314.887 271.069 313.146C271.048 311.406 271.123 309.821 271.225 308.679C271.245 308.059 271.332 307.444 271.484 306.843C271.537 307.458 271.537 308.077 271.484 308.692C271.443 309.835 271.409 311.412 271.429 313.14C271.45 314.867 271.524 316.451 271.592 317.587C271.656 318.201 271.672 318.82 271.64 319.436Z" fill="#995037"/>
<path d="M252.906 309.848C253.047 310.209 253.117 310.595 253.11 310.983C253.14 311.407 253.113 311.832 253.028 312.248C252.907 312.77 252.654 313.252 252.294 313.649C251.634 314.34 250.772 314.804 249.832 314.975C249.461 315.09 249.068 315.12 248.683 315.063C249.034 314.916 249.398 314.804 249.771 314.73C250.63 314.506 251.411 314.049 252.029 313.411C252.601 312.735 252.897 311.868 252.858 310.983C252.831 310.604 252.847 310.223 252.906 309.848Z" fill="#995037"/>
<path d="M269.314 304.183C269.21 303.605 269.142 303.022 269.11 302.435C268.958 301.042 268.68 299.665 268.281 298.321C268.028 297.618 267.534 297.028 266.887 296.655C266.347 296.335 265.786 296.054 265.207 295.812C264.803 295.644 264.42 295.429 264.065 295.173C264.013 295.13 263.973 295.074 263.948 295.011C263.923 294.948 263.914 294.88 263.922 294.813C263.956 294.717 264.024 294.717 264.024 294.724C264.024 294.731 263.99 294.765 264.024 294.826C264.031 294.877 264.049 294.925 264.078 294.967C264.106 295.01 264.143 295.045 264.187 295.071C264.557 295.269 264.941 295.44 265.336 295.581C265.943 295.795 266.53 296.061 267.091 296.377C267.812 296.778 268.363 297.428 268.641 298.206C269.054 299.575 269.305 300.988 269.389 302.415C269.452 303.005 269.426 303.601 269.314 304.183Z" fill="#995037"/>
<path d="M249.662 290.379C249.703 290.379 249.628 290.699 249.622 291.27C249.606 292.074 249.801 292.869 250.186 293.575C250.796 294.606 251.663 295.462 252.702 296.057L256.435 298.492L261.63 301.932L261.685 301.973V302.034C261.839 303.285 262.099 304.52 262.46 305.727C262.618 306.179 262.73 306.646 262.793 307.121C262.599 306.678 262.434 306.224 262.297 305.761C261.87 304.562 261.567 303.322 261.392 302.062L261.46 302.17L256.231 298.77L252.512 296.309C251.439 295.676 250.556 294.767 249.955 293.677C249.574 292.928 249.41 292.087 249.479 291.25C249.494 291.021 249.528 290.793 249.581 290.57C249.628 290.454 249.649 290.373 249.662 290.379Z" fill="#995037"/>
<path d="M265.69 312.582C265.803 312.43 265.903 312.268 265.989 312.099C266.075 311.863 266.109 311.61 266.089 311.359C266.069 311.108 265.996 310.864 265.874 310.644C265.46 309.99 264.943 309.406 264.344 308.917C263.664 308.312 262.984 307.666 262.174 307.013C260.597 305.701 259.08 304.626 257.965 303.871C257.345 303.494 256.745 303.083 256.17 302.641C256.849 302.909 257.496 303.251 258.101 303.661C259.607 304.581 261.043 305.611 262.399 306.741C263.194 307.421 263.922 308.06 264.568 308.686C265.183 309.209 265.703 309.835 266.105 310.535C266.229 310.788 266.294 311.066 266.294 311.348C266.294 311.63 266.229 311.908 266.105 312.161C265.914 312.521 265.69 312.596 265.69 312.582Z" fill="#995037"/>
<path d="M251.682 310.14C251.852 310.054 252.032 309.992 252.219 309.956C252.706 309.832 253.175 309.645 253.613 309.399C253.926 309.226 254.187 308.973 254.368 308.666C254.55 308.359 254.646 308.008 254.647 307.651C254.645 307.215 254.602 306.78 254.518 306.352C254.477 305.896 254.341 305.453 254.116 305.054C253.854 304.702 253.472 304.46 253.042 304.374C252.613 304.272 252.18 304.193 251.743 304.136C250.9 304.006 250.132 303.925 249.492 303.877C248.792 303.856 248.093 303.799 247.398 303.707C248.095 303.596 248.803 303.569 249.506 303.626C250.186 303.626 250.927 303.7 251.784 303.809C252.241 303.859 252.696 303.937 253.144 304.04C253.662 304.153 254.12 304.453 254.429 304.884C254.676 305.328 254.829 305.819 254.878 306.325C254.957 306.774 254.994 307.229 254.987 307.685C254.977 308.123 254.84 308.548 254.592 308.909C254.374 309.216 254.085 309.466 253.749 309.637C253.283 309.872 252.783 310.032 252.267 310.113C252.075 310.156 251.877 310.166 251.682 310.14Z" fill="#995037"/>
<path d="M258.489 316.206C257.306 315.453 256.235 314.537 255.307 313.486C254.612 312.778 253.988 312.003 253.443 311.174C253.195 310.842 253.013 310.466 252.906 310.065C252.961 310.065 253.199 310.439 253.647 311.031C254.246 311.804 254.886 312.544 255.565 313.248C257.149 314.9 258.557 316.124 258.489 316.206Z" fill="#995037"/>
<path d="M128.908 177.996C123.121 172.78 115.743 177.261 111.799 180.267C107.855 183.273 106.06 187.584 105.081 191.827C104.101 196.07 103.789 200.436 102.177 204.557C100.225 209.548 96.3971 214.077 95.5199 219.279C94.5883 224.766 97.0499 230.56 95.0439 235.85C93.8811 238.917 91.3243 241.508 89.1959 244.228C87.0675 246.948 85.3199 250.096 85.9999 253.279C86.9859 257.95 92.7999 261.146 98.5459 262.928C103.231 264.39 108.29 265.301 113.254 264.893C118.218 264.485 123.08 262.649 125.821 259.453C128.173 256.733 128.799 253.333 128.901 250.021C129.234 239.345 124.821 228.867 122.883 218.252C120.544 205.298 123.815 190.297 128.928 177.975" fill="#263238"/>
<path d="M94.6903 261.873C94.6432 261.809 94.6022 261.741 94.568 261.669C94.4932 261.533 94.3639 261.336 94.2347 261.057C93.8675 260.241 93.6378 259.37 93.5547 258.48C93.4504 257.068 93.5767 255.648 93.9288 254.277C94.3899 252.469 94.9924 250.7 95.7307 248.987C99.824 239.034 102.909 228.697 104.938 218.128C106.051 212.313 106.841 206.44 107.304 200.537C107.515 197.817 107.699 195.212 108.1 192.805C108.436 190.563 109.072 188.377 109.99 186.304C110.788 184.606 111.866 183.055 113.18 181.714C114.168 180.708 115.317 179.874 116.58 179.246C117.386 178.864 118.239 178.587 119.116 178.423C119.415 178.376 119.646 178.355 119.796 178.335C119.875 178.327 119.955 178.327 120.034 178.335L119.803 178.389L119.123 178.505C118.261 178.696 117.425 178.99 116.634 179.382C115.393 180.024 114.263 180.862 113.288 181.864C112.007 183.198 110.959 184.738 110.188 186.42C109.295 188.478 108.68 190.646 108.358 192.866C107.971 195.26 107.801 197.851 107.597 200.578C107.154 206.495 106.371 212.383 105.251 218.21C103.222 228.801 100.098 239.151 95.928 249.096C95.1855 250.795 94.5696 252.548 94.0851 254.338C93.7253 255.688 93.5807 257.085 93.6567 258.48C93.77 259.669 94.1215 260.823 94.6903 261.873Z" fill="#455A64"/>
<path d="M94.8606 246.989L119.273 245.955L152.212 257.059L173.367 265.736L147.323 357.693L151.294 370.545H76.6638L80.023 300.797L94.8606 246.989Z" fill="#BA54D3"/>
<g opacity="0.3">
<path d="M145.418 358.474C143.12 342.943 140.824 327.412 138.53 311.881C138.108 309.025 137.585 305.958 135.518 303.945C133.559 302.028 130.656 301.518 127.929 301.178C121.809 300.43 115.281 300.212 109.882 303.17C105.312 305.672 102.184 310.126 99.328 314.492C90.692 327.704 85.2928 333.491 78.3432 347.662L77.2212 358.862C84.2592 356.7 90.9776 349.805 94.9012 343.596C98.8248 337.388 101.64 330.492 105.292 324.08C107.801 319.687 110.983 315.335 115.641 313.37C118.273 312.255 121.714 312.173 123.584 314.322C124.339 315.313 124.869 316.457 125.134 317.674C127.228 325.1 127.854 332.866 129.656 340.366C131.458 347.867 134.708 355.408 140.788 360.161C141.434 360.735 142.212 361.141 143.052 361.344C143.474 361.434 143.913 361.395 144.313 361.231C144.712 361.067 145.052 360.787 145.289 360.426C145.531 359.804 145.576 359.123 145.418 358.474Z" fill="black"/>
</g>
<path d="M64.4373 281.954C64.4373 281.274 75.2017 246.988 94.8605 246.988L88.8289 288.04L64.4373 281.954Z" fill="#BA54D3"/>
<path d="M173.367 265.736C173.367 265.736 179.487 270.972 180.419 275.358C181.35 279.744 182.425 301.253 182.425 301.253L158.536 299.6L173.367 265.736Z" fill="#BA54D3"/>
<path d="M90.9775 264.92C90.9941 265.071 90.9941 265.224 90.9775 265.376L90.8143 266.661C90.6715 267.776 90.4267 269.381 90.1003 271.38C89.4203 275.358 88.3935 280.825 87.1559 286.843C85.9183 292.861 84.8303 298.322 84.1163 302.279C83.7763 304.231 83.4907 305.822 83.2935 306.978L83.0623 308.256C83.0438 308.407 83.0096 308.555 82.9603 308.698C82.9433 308.547 82.9433 308.394 82.9603 308.243C83.0011 307.91 83.0555 307.488 83.1235 306.958C83.2663 305.836 83.5111 304.238 83.8035 302.238C84.4835 298.26 85.5103 292.793 86.7411 286.768C87.9719 280.744 89.0735 275.297 89.7807 271.332C90.1275 269.388 90.4063 267.79 90.6103 266.64C90.7055 266.117 90.7803 265.688 90.8415 265.362C90.8699 265.21 90.9155 265.062 90.9775 264.92Z" fill="#263238"/>
<path d="M164.479 280.798C164.484 281.128 164.457 281.459 164.397 281.784C164.322 282.423 164.193 283.334 164.023 284.463C163.677 286.721 163.112 289.828 162.452 293.249C161.793 296.669 161.201 299.702 160.752 302.007C160.548 303.081 160.385 303.972 160.249 304.666C160.207 304.994 160.132 305.318 160.025 305.631C160.025 305.299 160.054 304.966 160.113 304.639C160.195 304.006 160.331 303.095 160.508 301.966C160.868 299.709 161.439 296.601 162.106 293.181C162.772 289.76 163.336 286.727 163.772 284.422C163.969 283.348 164.139 282.457 164.261 281.763C164.309 281.436 164.381 281.114 164.479 280.798Z" fill="#263238"/>
<path d="M173.944 266.716C173.944 266.716 173.883 266.784 173.754 266.892L173.155 267.375C172.355 267.956 171.496 268.451 170.592 268.851C169.153 269.471 167.624 269.855 166.063 269.986C163.987 270.164 161.897 269.881 159.943 269.157C157.76 268.348 155.754 266.763 153.483 265.356C152.326 264.608 151.056 264.05 149.723 263.703C148.3 263.386 146.829 263.344 145.391 263.581C142.413 264.016 139.489 265.328 136.327 266.301C133.043 267.34 129.553 267.552 126.168 266.918C122.782 266.285 119.606 264.825 116.919 262.67C115.691 261.606 114.526 260.47 113.431 259.27C112.396 258.136 111.181 257.183 109.834 256.448C108.521 255.816 107.088 255.473 105.631 255.441C104.252 255.407 102.872 255.523 101.517 255.788C98.8859 256.298 96.4991 257.1 94.2415 257.556C92.2196 258.044 90.1212 258.127 88.0671 257.801C86.5182 257.515 85.0621 256.857 83.8239 255.883C83.0412 255.266 82.4107 254.477 81.9811 253.578C81.8695 253.348 81.7763 253.109 81.7023 252.864C81.6547 252.701 81.6343 252.612 81.6343 252.612C81.676 252.689 81.7124 252.769 81.7431 252.85C81.8246 253.085 81.9246 253.312 82.0423 253.53C82.4933 254.399 83.1293 255.158 83.9055 255.754C85.1392 256.692 86.5806 257.319 88.1079 257.583C90.136 257.888 92.2043 257.788 94.1939 257.291C96.4243 256.822 98.8043 256.006 101.463 255.482C102.839 255.2 104.241 255.075 105.645 255.108C107.148 255.138 108.627 255.488 109.983 256.135C111.367 256.882 112.615 257.857 113.676 259.018C114.763 260.204 115.919 261.325 117.137 262.377C119.78 264.495 122.905 265.929 126.234 266.552C129.563 267.174 132.995 266.967 136.225 265.947C139.359 265.002 142.304 263.683 145.343 263.227C146.823 262.985 148.335 263.031 149.797 263.363C151.16 263.726 152.457 264.302 153.639 265.07C155.924 266.505 157.896 268.082 160.031 268.892C161.951 269.614 164.005 269.908 166.049 269.755C167.594 269.64 169.111 269.282 170.544 268.694C171.446 268.309 172.309 267.837 173.121 267.287L173.733 266.831L173.944 266.716Z" fill="#FAFAFA"/>
<path d="M87.2715 279.608C87.2715 279.608 87.1967 279.649 87.0471 279.683C86.8249 279.743 86.597 279.779 86.3671 279.792C85.5426 279.844 84.7165 279.716 83.9463 279.418C82.8065 278.981 81.7609 278.33 80.8659 277.5C79.8391 276.589 78.8599 275.46 77.7787 274.345C76.793 273.28 75.6284 272.396 74.3379 271.734C73.2861 271.211 72.0959 271.035 70.9379 271.23C70.1534 271.358 69.4193 271.699 68.8163 272.216C68.3947 272.59 68.2315 272.896 68.1975 272.849C68.2197 272.773 68.2541 272.702 68.2995 272.638C68.4179 272.447 68.5595 272.271 68.7211 272.114C69.3158 271.531 70.0711 271.138 70.8903 270.986C72.1064 270.742 73.3686 270.9 74.4875 271.434C75.8248 272.1 77.0299 273.003 78.0439 274.1C79.1387 275.222 80.0839 276.358 81.0971 277.255C81.9545 278.074 82.9548 278.728 84.0483 279.186C85.0708 279.593 86.1788 279.738 87.2715 279.608Z" fill="#FAFAFA"/>
<path d="M157.951 298.335C157.085 298.874 156.156 299.301 155.183 299.606C152.523 300.477 149.68 300.629 146.941 300.048C145.049 299.665 143.246 298.924 141.631 297.866C139.833 296.59 138.185 295.114 136.721 293.466C135.125 291.659 133.358 290.01 131.444 288.543C129.33 287.057 126.8 286.279 124.216 286.319C121.628 286.434 119.067 286.891 116.6 287.679C114.179 288.359 111.84 289.107 109.575 289.57C102.783 290.953 95.7393 290.423 89.2299 288.04C88.3119 287.679 87.6047 287.4 87.1423 287.169L86.6119 286.924C86.4895 286.863 86.4283 286.836 86.4351 286.829C86.5012 286.84 86.5654 286.861 86.6255 286.89L87.1695 287.108C87.6455 287.312 88.3527 287.57 89.2775 287.91C91.8855 288.812 94.5822 289.432 97.3219 289.76C101.384 290.258 105.501 290.086 109.507 289.25C111.765 288.781 114.077 288.033 116.505 287.346C119.003 286.55 121.596 286.093 124.216 285.986C125.554 285.973 126.887 286.165 128.167 286.557C129.408 286.945 130.581 287.525 131.641 288.278C133.574 289.757 135.354 291.427 136.952 293.262C138.398 294.898 140.022 296.366 141.794 297.641C143.375 298.69 145.14 299.43 146.996 299.824C149.699 300.419 152.509 300.307 155.156 299.498C155.872 299.276 156.571 299.005 157.25 298.688L157.774 298.43C157.828 298.39 157.888 298.358 157.951 298.335Z" fill="#FAFAFA"/>
<path d="M181.805 285.408C181.805 285.408 181.805 285.483 181.717 285.605C181.615 285.785 181.502 285.958 181.377 286.122C180.909 286.727 180.341 287.247 179.697 287.659C178.735 288.281 177.636 288.659 176.494 288.761C175.102 288.811 173.715 288.58 172.414 288.081C171.152 287.602 169.825 287.316 168.477 287.231C167.377 287.214 166.285 287.422 165.268 287.843C164.335 288.253 163.465 288.793 162.684 289.447C162.684 289.447 162.684 289.379 162.813 289.271C162.95 289.116 163.098 288.97 163.255 288.835C163.827 288.331 164.474 287.918 165.172 287.611C166.213 287.152 167.34 286.92 168.477 286.931C169.873 286.997 171.25 287.281 172.557 287.775C173.817 288.256 175.159 288.487 176.508 288.455C177.6 288.374 178.658 288.036 179.595 287.469C180.443 286.912 181.191 286.215 181.805 285.408Z" fill="#FAFAFA"/>
<path d="M155.768 318.749C155.698 318.76 155.627 318.76 155.557 318.749L154.932 318.708C154.13 318.674 153.328 318.703 152.531 318.797C151.275 318.962 150.036 319.244 148.832 319.64C147.411 320.082 145.847 320.721 144.12 321.442C142.249 322.279 140.322 322.986 138.353 323.557C136.078 324.254 133.669 324.393 131.329 323.965C130.07 323.678 128.87 323.179 127.779 322.489C126.657 321.809 125.61 320.993 124.515 320.218C123.432 319.395 122.251 318.71 121 318.178C119.7 317.682 118.308 317.471 116.92 317.559C114.084 317.709 111.48 318.735 108.998 319.817C106.661 320.955 104.22 321.866 101.708 322.537C99.3836 323.055 96.968 322.999 94.67 322.373C92.6833 321.831 90.788 320.997 89.0464 319.898C87.6057 318.998 86.2411 317.982 84.9664 316.859C83.8376 315.879 82.9264 314.982 82.1784 314.241C81.4304 313.499 80.8728 312.915 80.492 312.52L80.0636 312.058C79.9684 311.956 79.9208 311.901 79.9276 311.895L80.0908 312.031L80.5396 312.466L82.2736 314.145C84.3643 316.229 86.6686 318.087 89.1484 319.687C90.8781 320.756 92.7542 321.567 94.7176 322.095C96.9701 322.692 99.3338 322.734 101.606 322.217C104.095 321.539 106.516 320.628 108.834 319.497C111.289 318.409 113.962 317.355 116.872 317.205C118.311 317.117 119.753 317.335 121.102 317.845C122.377 318.372 123.581 319.057 124.685 319.885C125.787 320.667 126.834 321.476 127.929 322.142C128.984 322.819 130.148 323.309 131.37 323.591C133.66 324.018 136.02 323.89 138.251 323.217C140.21 322.667 142.13 321.986 143.997 321.177C145.731 320.497 147.309 319.817 148.757 319.415C149.977 319.031 151.232 318.767 152.504 318.627C153.592 318.497 154.693 318.539 155.768 318.749Z" fill="#FAFAFA"/>
<path d="M147.928 352.211C147.3 351.38 146.553 350.647 145.711 350.035C144.719 349.348 143.611 348.848 142.44 348.56C140.881 348.16 139.249 348.139 137.68 348.499C135.782 348.981 134.07 350.018 132.764 351.477C132.016 352.218 131.274 353.034 130.445 353.816C129.609 354.664 128.628 355.355 127.548 355.856C126.384 356.345 125.103 356.482 123.862 356.251C122.586 356.002 121.37 355.51 120.279 354.802C118.008 353.442 116.24 351.327 114.254 349.457C113.292 348.51 112.219 347.684 111.058 346.996C109.928 346.348 108.679 345.934 107.386 345.779C104.914 345.563 102.425 345.917 100.11 346.812C97.8796 347.608 95.8532 348.641 93.9152 349.532C92.1319 350.392 90.2689 351.075 88.3528 351.572C85.5227 352.325 82.5165 352.038 79.88 350.763C79.1839 350.409 78.5464 349.951 77.9896 349.403C77.8459 349.261 77.7097 349.111 77.5816 348.954C77.5355 348.902 77.4924 348.848 77.4524 348.791C78.1693 349.548 79.0112 350.176 79.9412 350.647C82.5483 351.812 85.4805 352.029 88.2304 351.259C90.1264 350.761 91.9689 350.078 93.7316 349.219C95.656 348.342 97.6824 347.295 99.94 346.499C102.303 345.578 104.846 345.213 107.372 345.432C108.71 345.59 110.003 346.016 111.174 346.683C112.358 347.386 113.454 348.229 114.438 349.192C116.478 351.089 118.191 353.163 120.401 354.503C121.456 355.187 122.63 355.664 123.862 355.911C125.04 356.137 126.259 356.009 127.364 355.543C128.408 355.071 129.359 354.417 130.173 353.612C130.996 352.844 131.737 352.035 132.498 351.287C133.849 349.8 135.613 348.751 137.564 348.274C139.175 347.918 140.848 347.958 142.44 348.39C143.639 348.703 144.767 349.24 145.765 349.974C145.967 350.106 146.156 350.256 146.33 350.423C146.493 350.573 146.663 350.709 146.799 350.845C147.057 351.144 147.295 351.375 147.479 351.586L147.826 352.089C147.863 352.127 147.897 352.168 147.928 352.211Z" fill="#FAFAFA"/>
<g opacity="0.3">
<path d="M165.832 261.275C165.135 260.39 164.231 259.689 163.201 259.235C154.272 254.414 143.481 248.586 133.471 247.11C130.826 254.692 129.2 263.43 125.392 270.455C124.882 271.4 124.332 272.44 124.549 273.494C124.801 274.705 125.977 275.466 127.092 276.004C132.593 278.611 138.89 278.979 144.657 277.03L144.739 280.288C147.218 281.013 149.83 281.164 152.376 280.728C154.922 280.293 157.336 279.283 159.434 277.776C161.531 276.268 163.258 274.302 164.482 272.027C165.706 269.753 166.396 267.229 166.499 264.648C166.628 263.482 166.395 262.304 165.832 261.275Z" fill="black"/>
</g>
<path d="M152.103 185.87C153.334 186.066 154.448 186.716 155.224 187.691C156.001 188.666 156.384 189.897 156.299 191.14L150.056 258.188C149.546 266.124 137.728 270.014 129.242 269.402C120.674 268.79 120.599 264.567 120.864 257.012C121.292 244.391 121.544 239.652 121.544 239.726C121.544 239.801 110.8 237.374 109.27 223.114C108.508 216.022 109.454 204.509 110.528 195.112C111.48 186.652 117.627 176.52 126.039 177.88L152.103 185.87Z" fill="#FFBE9D"/>
<path d="M116.22 205.76C116.193 206.232 116.351 206.696 116.661 207.054C116.971 207.412 117.407 207.636 117.879 207.677C118.109 207.707 118.342 207.69 118.566 207.628C118.789 207.566 118.997 207.46 119.179 207.316C119.361 207.172 119.512 206.993 119.624 206.79C119.736 206.587 119.806 206.364 119.83 206.134C119.859 205.662 119.702 205.198 119.394 204.839C119.085 204.481 118.649 204.258 118.178 204.216C117.948 204.186 117.713 204.202 117.489 204.263C117.265 204.325 117.056 204.431 116.873 204.575C116.691 204.719 116.539 204.898 116.427 205.101C116.314 205.305 116.244 205.529 116.22 205.76Z" fill="#263238"/>
<path d="M112.684 201.741C112.895 201.993 114.323 201.061 116.274 201.149C118.226 201.238 119.606 202.299 119.831 202.074C119.939 201.972 119.735 201.53 119.151 201.048C118.338 200.418 117.349 200.057 116.322 200.014C115.306 199.959 114.298 200.228 113.445 200.782C112.806 201.211 112.582 201.632 112.684 201.741Z" fill="#263238"/>
<path d="M134.763 207.474C134.736 207.946 134.894 208.41 135.204 208.768C135.514 209.126 135.95 209.349 136.422 209.391C136.652 209.42 136.885 209.404 137.108 209.342C137.332 209.279 137.54 209.173 137.722 209.03C137.904 208.886 138.055 208.707 138.167 208.504C138.279 208.301 138.349 208.078 138.373 207.848C138.402 207.376 138.245 206.911 137.937 206.553C137.628 206.195 137.192 205.972 136.721 205.93C136.491 205.9 136.256 205.916 136.032 205.977C135.808 206.039 135.599 206.145 135.416 206.289C135.234 206.433 135.082 206.611 134.97 206.815C134.857 207.018 134.787 207.242 134.763 207.474Z" fill="#263238"/>
<path d="M132.023 203.183C132.233 203.428 133.661 202.503 135.613 202.585C137.565 202.666 138.945 203.741 139.169 203.509C139.278 203.407 139.074 202.972 138.489 202.489C137.677 201.857 136.689 201.494 135.661 201.449C134.644 201.396 133.637 201.667 132.784 202.224C132.145 202.653 131.921 203.04 132.023 203.183Z" fill="#263238"/>
<path d="M124.08 216.694C124.08 216.585 122.897 216.313 120.938 215.96C120.449 215.885 119.98 215.762 119.912 215.416C119.897 214.898 120.04 214.389 120.32 213.954C120.85 212.77 121.405 211.531 121.986 210.234C124.311 204.937 126.018 200.564 125.8 200.476C125.583 200.388 123.536 204.604 121.21 209.908L119.606 213.654C119.26 214.237 119.132 214.924 119.245 215.592C119.306 215.769 119.405 215.931 119.536 216.065C119.666 216.199 119.825 216.302 120 216.368C120.274 216.452 120.557 216.505 120.843 216.524C122.815 216.735 124.08 216.803 124.08 216.694Z" fill="#263238"/>
<path d="M121.53 239.76C128.186 240.203 134.833 238.79 140.734 235.68C140.734 235.68 135.443 245.424 121.354 243.377L121.53 239.76Z" fill="#EB996E"/>
<path d="M124.644 221.44C125.039 220.992 125.542 220.652 126.104 220.451C126.667 220.25 127.271 220.195 127.861 220.291C128.289 220.353 128.701 220.5 129.071 220.725C129.442 220.949 129.763 221.246 130.016 221.597C130.261 221.935 130.396 222.34 130.403 222.757C130.41 223.174 130.29 223.583 130.057 223.929C129.725 224.265 129.3 224.493 128.837 224.585C128.374 224.677 127.895 224.629 127.459 224.446C126.556 224.073 125.736 223.526 125.045 222.834C124.834 222.666 124.654 222.461 124.515 222.229C124.452 222.117 124.423 221.988 124.43 221.86C124.437 221.731 124.481 221.607 124.556 221.502" fill="#EB996E"/>
<path d="M129.731 218.34C129.418 218.3 129.302 220.421 127.412 221.836C125.521 223.25 123.277 222.896 123.25 223.196C123.209 223.332 123.733 223.638 124.685 223.712C125.925 223.788 127.152 223.427 128.153 222.692C129.117 221.987 129.766 220.933 129.962 219.755C130.084 218.871 129.88 218.334 129.731 218.34Z" fill="#263238"/>
<path d="M131.213 195.43C131.438 195.947 133.369 195.586 135.674 195.729C137.979 195.872 139.87 196.409 140.142 195.892C140.264 195.661 139.917 195.178 139.142 194.709C138.11 194.137 136.961 193.807 135.783 193.746C134.604 193.685 133.428 193.893 132.342 194.356C131.512 194.743 131.118 195.185 131.213 195.43Z" fill="#263238"/>
<path d="M112.935 199.252C113.227 199.742 114.676 199.477 116.335 199.694C117.994 199.912 119.374 200.422 119.735 200.007C119.912 199.81 119.735 199.327 119.191 198.831C118.431 198.203 117.5 197.816 116.518 197.722C115.543 197.597 114.552 197.77 113.676 198.219C113.064 198.586 112.806 199.014 112.935 199.252Z" fill="#263238"/>
<path d="M150.287 212.594C150.58 209.588 153.959 207.739 156.496 209.378C157.856 210.275 158.903 211.989 158.61 215.178C157.849 223.685 149.471 221.162 149.478 220.917C149.485 220.672 149.92 216.11 150.287 212.594Z" fill="#FFBE9D"/>
<path d="M152.361 217.932C152.402 217.932 152.504 218.048 152.742 218.184C153.078 218.369 153.475 218.413 153.844 218.306C154.775 218.055 155.659 216.701 155.836 215.171C155.926 214.443 155.852 213.704 155.618 213.009C155.561 212.737 155.439 212.482 155.262 212.267C155.086 212.052 154.861 211.882 154.605 211.771C154.438 211.711 154.256 211.711 154.089 211.772C153.922 211.833 153.783 211.951 153.694 212.105C153.558 212.329 153.599 212.506 153.551 212.513C153.504 212.519 153.381 212.356 153.483 212.009C153.548 211.803 153.683 211.625 153.864 211.506C154.114 211.353 154.414 211.302 154.7 211.363C155.044 211.464 155.356 211.652 155.606 211.908C155.856 212.164 156.036 212.48 156.128 212.825C156.428 213.592 156.531 214.422 156.428 215.239C156.224 216.946 155.197 218.469 153.939 218.714C153.701 218.765 153.454 218.76 153.218 218.7C152.982 218.639 152.764 218.526 152.579 218.367C152.361 218.136 152.334 217.939 152.361 217.932Z" fill="#EB996E"/>
<path d="M168.124 248.512C167.444 242.664 169.79 238.903 169.742 233.014C169.688 225.8 168.056 217.742 166.655 210.656C165.295 203.686 163.139 197.614 160.644 190.936C158.148 184.258 151.668 177.615 145.072 174.616C139.251 171.978 131.648 172.705 127.167 176.955C126.839 176.976 126.51 176.976 126.181 176.955C116.206 176.105 114.825 183.436 114.825 183.436C121.02 177.649 125.25 182.756 125.25 182.756C129.017 178.852 135.286 182.225 137.449 185.924C140.495 191.14 140.781 194.248 141.576 196.974C143.576 203.808 149.736 205.168 149.342 212.281C148.886 221.393 143.698 228.418 142.991 237.516C142.834 240.187 142.463 242.84 141.882 245.452C141.087 248.24 128.629 269.252 136.572 271.02C136.865 271.031 137.158 271.015 137.449 270.972L146.289 270.489L153.415 265.92L153.191 270.591L164.88 271.38C167.722 268.973 168.532 264.934 168.239 261.262C167.947 257.59 168.566 252.17 168.124 248.512Z" fill="#263238"/>
<path d="M124.883 182.028C124.912 181.924 124.953 181.824 125.005 181.729C125.1 181.538 125.236 181.26 125.434 180.913C125.967 179.905 126.655 178.987 127.474 178.193C128.054 177.646 128.752 177.239 129.514 177.003C130.405 176.747 131.354 176.768 132.234 177.064C134.11 177.683 135.681 179.233 136.994 180.96C139.241 183.947 141.154 187.172 142.699 190.576C143.311 191.874 143.78 192.928 144.1 193.663C144.236 194.003 144.358 194.282 144.453 194.513C144.548 194.744 144.569 194.812 144.555 194.819C144.488 194.734 144.433 194.64 144.392 194.54L143.97 193.724L142.474 190.691C140.872 187.336 138.943 184.148 136.715 181.171C135.402 179.464 133.879 177.962 132.118 177.37C131.297 177.081 130.407 177.05 129.568 177.282C128.837 177.493 128.162 177.868 127.596 178.376C126.768 179.129 126.056 180 125.481 180.96C125.3 181.326 125.101 181.683 124.883 182.028Z" fill="#455A64"/>
<path d="M137.911 186.72C137.857 186.72 137.449 185.808 136.612 184.401C136.117 183.583 135.574 182.795 134.987 182.041C134.282 181.114 133.449 180.292 132.512 179.6C132.047 179.24 131.508 178.986 130.934 178.859C130.402 178.787 129.86 178.882 129.384 179.131C128.555 179.59 127.807 180.18 127.167 180.878C126.587 181.553 125.945 182.173 125.25 182.728C125.38 182.526 125.533 182.339 125.705 182.17C126.004 181.824 126.433 181.314 126.99 180.702C127.628 179.956 128.389 179.325 129.241 178.838C129.777 178.548 130.392 178.436 130.996 178.519C131.62 178.651 132.208 178.921 132.716 179.308C133.679 180.022 134.531 180.874 135.246 181.837C135.828 182.614 136.358 183.43 136.83 184.278C137.143 184.85 137.427 185.438 137.68 186.04C137.788 186.254 137.866 186.483 137.911 186.72Z" fill="#455A64"/>
<path d="M151.328 265.797C151.352 265.713 151.388 265.632 151.437 265.559C151.518 265.389 151.634 265.165 151.777 264.879C151.92 264.593 152.13 264.199 152.348 263.784C152.566 263.369 152.797 262.832 153.069 262.268C154.554 259.022 155.716 255.637 156.537 252.163C157.741 247.007 158.346 241.729 158.339 236.435C158.302 229.95 157.619 223.485 156.299 217.136C154.939 210.336 153.144 204.039 151.416 198.307C149.689 192.575 148.214 187.373 146.031 183.408C144.41 180.218 141.969 177.517 138.959 175.581C138.132 175.076 137.258 174.655 136.348 174.323C136.042 174.201 135.79 174.14 135.668 174.085C135.583 174.063 135.501 174.031 135.423 173.99L135.674 174.045C135.838 174.092 136.089 174.147 136.402 174.255C137.331 174.562 138.225 174.968 139.068 175.466C142.117 177.392 144.591 180.106 146.228 183.32C148.458 187.311 149.934 192.547 151.709 198.246C153.484 203.944 155.265 210.316 156.625 217.102C157.96 223.472 158.643 229.961 158.665 236.469C158.66 241.785 158.028 247.083 156.782 252.251C155.934 255.734 154.73 259.12 153.191 262.356L152.443 263.866L151.845 264.947C151.682 265.219 151.559 265.437 151.464 265.627C151.423 265.687 151.378 265.744 151.328 265.797Z" fill="#455A64"/>
<path d="M153.782 269.476L153.946 269.265C154.063 269.115 154.227 268.918 154.435 268.673L155.238 267.715L156.244 266.355C158.328 263.389 159.955 260.127 161.072 256.678C162.735 251.561 163.561 246.208 163.52 240.827C163.392 234.246 162.479 227.703 160.8 221.339C159.148 214.539 157.135 208.16 155.489 202.299C153.844 196.437 152.511 191.14 150.763 186.89C149.998 184.974 149.089 183.119 148.043 181.341C147.244 180.005 146.334 178.738 145.323 177.553C144.691 176.801 144.01 176.093 143.283 175.432L142.719 174.908C142.651 174.854 142.589 174.793 142.535 174.725C142.608 174.77 142.677 174.822 142.739 174.881L143.331 175.377C144.084 176.018 144.789 176.713 145.439 177.458C146.468 178.638 147.397 179.903 148.213 181.239C149.277 183.017 150.203 184.874 150.981 186.795C152.762 191.051 154.143 196.369 155.788 202.21C157.434 208.051 159.474 214.45 161.133 221.25C162.792 228.05 163.853 234.721 163.792 240.821C163.838 246.234 162.997 251.618 161.303 256.76C160.162 260.221 158.492 263.485 156.353 266.436C155.965 266.946 155.618 267.395 155.319 267.796L154.483 268.735L153.966 269.306L153.782 269.476Z" fill="#455A64"/>
<path d="M147.615 247.825C147.181 247.138 146.864 246.384 146.676 245.594C146.165 243.43 146.2 241.173 146.778 239.025C147.159 237.547 147.681 236.107 148.336 234.728C149.016 233.232 149.845 231.688 150.695 230.056C151.603 228.369 152.385 226.616 153.034 224.813C153.734 222.887 154.048 220.843 153.959 218.795C153.799 216.745 153.341 214.729 152.599 212.811C151.919 210.941 151.11 209.187 150.342 207.514C148.798 204.182 147.404 201.177 146.262 198.64L143.542 192.649L142.814 191.011L142.63 190.582C142.59 190.487 142.576 190.433 142.583 190.433C142.617 190.474 142.644 190.519 142.664 190.569C142.726 190.677 142.794 190.813 142.875 190.983L143.671 192.588C144.351 194.023 145.323 196.049 146.513 198.538C147.703 201.027 149.124 204.053 150.695 207.378C151.47 209.044 152.286 210.778 152.98 212.696C153.728 214.645 154.186 216.693 154.34 218.775C154.433 220.869 154.109 222.961 153.388 224.929C152.729 226.745 151.933 228.509 151.008 230.206C150.151 231.838 149.315 233.368 148.628 234.85C147.971 236.211 147.44 237.629 147.044 239.087C146.452 241.196 146.382 243.418 146.84 245.56C146.979 246.138 147.163 246.704 147.39 247.253C147.479 247.438 147.554 247.629 147.615 247.825Z" fill="#455A64"/>
<path d="M67.8508 282.811C67.8508 282.811 61.4452 309.46 60.5612 316.28C59.3916 325.29 56.7872 339.577 59.1468 345.235C61.5064 350.892 69.2516 354.292 73.9708 353.116C78.69 351.939 107.23 311.194 107.23 310.221L98.0292 299.845L82.6952 310.221L86.7208 287.523L67.8508 282.811Z" fill="#FFBE9D"/>
<path d="M132.097 256.896H112.935C111.605 256.896 110.527 257.974 110.527 259.304V300.178C110.527 301.508 111.605 302.586 112.935 302.586H132.097C133.426 302.586 134.504 301.508 134.504 300.178V259.304C134.504 257.974 133.426 256.896 132.097 256.896Z" fill="#455A64"/>
<path d="M126.12 283.28C124.352 282.981 120.891 283.58 120.891 283.58L108.637 285.32L112.316 280.771C112.316 280.771 122.353 278.976 124.454 278.378C124.614 278.346 124.766 278.283 124.902 278.192C125.038 278.101 125.154 277.985 125.244 277.849C125.335 277.713 125.397 277.561 125.429 277.4C125.46 277.24 125.459 277.075 125.426 276.916C125.351 276.394 125.086 275.919 124.682 275.582C124.278 275.244 123.763 275.068 123.237 275.086L109.474 275.379L100.035 283.62V295.752L97.3152 300.355L106.74 310.48C106.74 310.48 113.22 306.978 113.819 305.632C114.177 304.835 114.331 303.961 114.268 303.089L122.292 300.369C122.738 300.221 123.121 299.927 123.38 299.535C123.639 299.143 123.759 298.675 123.72 298.206V297.982L113.52 297.227L124.624 295.31C124.967 295.25 125.276 295.069 125.495 294.799C125.714 294.529 125.827 294.188 125.814 293.841C125.801 293.493 125.662 293.162 125.423 292.91C125.184 292.657 124.861 292.5 124.515 292.467L111.595 291.236L122.339 287.632C124.138 287.102 125.901 286.454 127.616 285.694C128.582 285.191 128.112 283.641 126.12 283.28Z" fill="#FFBE9D"/>
<path d="M84.6399 308.896C84.4324 309.11 84.2047 309.303 83.9599 309.473C83.4976 309.827 82.8107 310.324 81.9607 310.936C80.2675 312.153 77.8808 313.785 75.4192 315.777C74.1816 316.784 73.0596 317.817 72.0872 318.762C71.2328 319.618 70.4333 320.526 69.6935 321.482C68.4355 323.141 67.8508 324.297 67.7896 324.263C67.8843 323.975 68.012 323.699 68.1703 323.441C68.3313 323.122 68.5106 322.813 68.7075 322.516C68.9481 322.109 69.2091 321.714 69.4896 321.333C70.2084 320.335 70.9993 319.392 71.8559 318.511C72.9115 317.438 74.0262 316.426 75.1948 315.478C77.6836 313.472 80.0907 311.867 81.8179 310.718L83.8579 309.358C84.1012 309.176 84.3634 309.021 84.6399 308.896Z" fill="#EB996E"/>
<path d="M123.774 262.37C123.774 262.588 123.709 262.801 123.588 262.982C123.467 263.163 123.295 263.305 123.094 263.388C122.893 263.471 122.671 263.493 122.457 263.451C122.244 263.408 122.048 263.303 121.893 263.149C121.739 262.995 121.634 262.799 121.592 262.585C121.549 262.371 121.571 262.15 121.655 261.949C121.738 261.747 121.879 261.575 122.06 261.454C122.242 261.333 122.455 261.269 122.672 261.269C122.965 261.269 123.245 261.385 123.451 261.591C123.658 261.798 123.774 262.078 123.774 262.37Z" fill="#E0E0E0"/>
<path d="M146.065 285.428L139.985 276.092C139.985 276.092 126.209 271.536 124.468 271.862C123.149 272.107 122.958 274.011 122.945 274.902C122.945 275.181 122.945 275.358 122.945 275.358L124.719 276.554L132.818 278.044L137.578 281.301L134.328 279.778L124.808 278.302C124.157 278.186 123.485 278.266 122.88 278.532C122.274 278.799 121.762 279.239 121.408 279.798C121.258 280.05 121.408 280.152 121.36 280.41C121.245 281.627 125.209 282.81 125.209 282.81L132.356 284.925L134.858 289.549L126.073 286.829C126.073 286.829 120.673 288.618 120.32 289.318C119.966 290.018 123.999 291.786 124.325 291.8C124.651 291.814 131.2 294.84 131.2 294.84L124.753 295.105L117.817 296.397L120.667 297.757L126.107 298.437L130.771 300.715L130.554 304.944C130.554 304.944 132.594 309.29 134.511 310.384C136.429 311.479 144.229 300.864 144.229 300.864L144.773 295.764L146.071 291.004L145.391 288.094L146.065 285.428Z" fill="#FFBE9D"/>
<path d="M134.505 310.384L144.48 357.114C144.48 357.114 147.513 366.954 158.468 366.954C168.525 366.954 172.211 347.975 172.211 347.975L180.962 301.15L161.358 299.43L155.979 327.146L144.229 300.837L134.505 310.384Z" fill="#FFBE9D"/>
<path d="M162.738 353.401C162.728 353.017 162.753 352.632 162.813 352.252C162.854 351.885 162.894 351.436 162.915 350.892C162.935 350.348 162.996 349.77 162.983 349.111C163.011 347.569 162.945 346.027 162.786 344.493C162.573 342.615 162.23 340.754 161.759 338.924C161.269 337.099 160.651 335.311 159.909 333.573C159.291 332.158 158.59 330.782 157.808 329.452C157.488 328.874 157.128 328.384 156.87 327.942C156.611 327.5 156.339 327.126 156.122 326.827C155.881 326.525 155.67 326.202 155.489 325.861C155.761 326.134 156.009 326.43 156.23 326.745C156.518 327.093 156.785 327.456 157.033 327.833C157.332 328.269 157.713 328.751 158.026 329.323C158.843 330.646 159.573 332.023 160.208 333.443C160.971 335.192 161.605 336.995 162.106 338.836C162.581 340.682 162.915 342.562 163.105 344.459C163.255 346.007 163.298 347.564 163.234 349.117C163.234 349.797 163.153 350.382 163.112 350.906C163.071 351.429 163.01 351.878 162.949 352.266C162.905 352.649 162.834 353.028 162.738 353.401Z" fill="#EB996E"/>
<path d="M182.424 301.252C182.386 301.11 182.363 300.964 182.356 300.817C182.324 300.491 182.283 300.069 182.234 299.552C182.138 298.41 182.009 296.832 181.846 294.901C181.52 290.978 181.112 285.544 180.568 279.56C180.391 277.779 180.255 276.031 179.976 274.406C179.538 272.91 178.75 271.539 177.678 270.408C176.025 268.541 174.184 266.85 172.183 265.362L169.259 264.111L168.484 263.764C168.394 263.726 168.308 263.681 168.226 263.628C168.226 263.628 168.328 263.628 168.511 263.71L169.3 264.002L172.265 265.165C174.314 266.623 176.195 268.304 177.875 270.176C178.996 271.342 179.818 272.764 180.268 274.318C180.561 275.977 180.697 277.718 180.874 279.499C181.418 285.49 181.792 290.923 182.05 294.854C182.166 296.792 182.261 298.369 182.329 299.518L182.383 300.783C182.412 300.938 182.426 301.095 182.424 301.252Z" fill="#263238"/>
<path d="M25.3782 340.42L29.9546 370.496H56.5426L62.717 340.855L25.3782 340.42Z" fill="#BA54D3"/>
<path d="M58.9973 359.698C58.9973 359.787 52.1973 359.855 43.7789 359.855C35.3605 359.855 28.5605 359.787 28.5605 359.698C28.5605 359.61 35.3605 359.542 43.7789 359.542C52.1973 359.542 58.9973 359.61 58.9973 359.698Z" fill="#FAFAFA"/>
<path d="M59.0993 358.215C59.0993 358.304 52.2381 358.371 43.7789 358.371C35.3197 358.371 28.4585 358.304 28.4585 358.215C28.4585 358.127 35.3197 358.079 43.7789 358.079C52.2381 358.079 59.0993 358.134 59.0993 358.215Z" fill="#FAFAFA"/>
<path d="M59.0451 356.55C59.0451 356.632 52.1907 356.706 43.7247 356.706C35.2587 356.706 28.4043 356.632 28.4043 356.55C28.4043 356.468 35.2655 356.394 43.7247 356.394C52.1839 356.394 59.0451 356.462 59.0451 356.55Z" fill="#FAFAFA"/>
<path d="M33.0076 368.783C32.6334 367.545 32.3605 366.278 32.1916 364.995C31.9207 363.73 31.7502 362.445 31.6816 361.153C32.0558 362.392 32.3287 363.658 32.4976 364.941C32.7685 366.206 32.9391 367.491 33.0076 368.783Z" fill="#FAFAFA"/>
<path d="M34.8165 368.463C34.628 367.24 34.5168 366.007 34.4833 364.77C34.3479 363.54 34.2911 362.302 34.3133 361.064C34.789 363.5 34.9581 365.985 34.8165 368.463Z" fill="#FAFAFA"/>
<path d="M38.1146 368.463C37.4876 365.958 37.1859 363.382 37.217 360.8C37.4618 362.058 37.6343 363.33 37.7338 364.608C37.9362 365.884 38.0634 367.172 38.1146 368.463Z" fill="#FAFAFA"/>
<path d="M40.4401 368.619C40.1878 367.352 40.0648 366.063 40.0729 364.771C39.9825 363.482 40.0212 362.189 40.1885 360.908C40.3278 362.189 40.3936 363.476 40.3857 364.764C40.48 366.047 40.4981 367.334 40.4401 368.619Z" fill="#FAFAFA"/>
<path d="M44.5201 368.462C44.3184 367.256 44.2229 366.034 44.2345 364.811C44.1288 363.591 44.1288 362.365 44.2345 361.146C44.4323 362.352 44.5256 363.574 44.5133 364.797C44.6148 366.017 44.6171 367.242 44.5201 368.462Z" fill="#FAFAFA"/>
<path d="M47.5189 368.619C47.3261 366.104 47.3466 363.576 47.5801 361.064C47.7637 363.58 47.7433 366.107 47.5189 368.619Z" fill="#FAFAFA"/>
<path d="M50.3205 368.218C50.298 366.897 50.3753 365.577 50.5517 364.267C50.6264 362.95 50.806 361.64 51.0889 360.351C51.1113 361.671 51.0341 362.992 50.8577 364.301C50.7829 365.619 50.6033 366.929 50.3205 368.218Z" fill="#FAFAFA"/>
<path d="M53.938 367.824C54.0542 365.561 54.5388 363.333 55.3728 361.228C55.2119 362.342 54.9848 363.445 54.6928 364.532C54.5024 365.643 54.2504 366.741 53.938 367.824Z" fill="#FAFAFA"/>
<path d="M51.3814 281.076C51.3842 281.123 51.3842 281.171 51.3814 281.219L51.259 281.647L50.715 283.279C50.4906 283.959 50.2186 284.836 49.933 285.849C49.6474 286.863 49.2938 287.998 48.9742 289.249C48.6546 290.501 48.2942 291.922 47.9406 293.438C47.587 294.955 47.2606 296.573 46.9138 298.28C46.2814 301.714 45.6966 305.501 45.2886 309.507C44.8806 313.512 44.7174 317.347 44.663 320.835C44.663 322.576 44.663 324.235 44.7106 325.786C44.7582 327.336 44.8194 328.778 44.901 330.097C44.9826 331.416 45.0846 332.599 45.1662 333.647C45.2478 334.694 45.3362 335.591 45.4178 336.326C45.4994 337.06 45.5538 337.604 45.5946 338.012C45.5946 338.196 45.5946 338.339 45.6354 338.454C45.6762 338.57 45.6354 338.604 45.6354 338.604C45.6354 338.604 45.6354 338.556 45.6354 338.461C45.6354 338.366 45.5946 338.203 45.5674 338.026C45.513 337.611 45.4314 337.047 45.3362 336.339C45.241 335.632 45.1186 334.707 45.0234 333.66C44.9282 332.613 44.7854 331.43 44.7174 330.111C44.6494 328.791 44.527 327.35 44.4862 325.793C44.4454 324.235 44.4182 322.576 44.4114 320.829C44.4454 317.333 44.6222 313.491 45.0098 309.473C45.3974 305.454 46.0162 301.659 46.669 298.225C47.0226 296.519 47.349 294.887 47.723 293.377C48.097 291.867 48.4438 290.467 48.7974 289.195C49.151 287.923 49.4774 286.774 49.8038 285.795C50.1302 284.816 50.3886 283.925 50.6334 283.231L51.1978 281.627L51.3202 281.239C51.3542 281.117 51.3746 281.069 51.3814 281.076Z" fill="#455A64"/>
<path d="M46.5599 299.695C47.2906 297.528 48.7521 295.681 50.6943 294.473C50.9985 294.234 51.3561 294.073 51.7363 294.003C52.1165 293.933 52.508 293.957 52.8771 294.072C53.8087 294.521 53.8835 295.826 53.6047 296.792C53.1253 298.468 52.0584 299.917 50.5991 300.872C49.3017 301.834 47.6762 302.245 46.0771 302.014" fill="#455A64"/>
<path d="M44.9624 312.274C45.6424 309.677 47.7232 305.984 49.872 304.38C50.2015 304.11 50.5802 303.906 50.9872 303.781C51.1927 303.724 51.409 303.718 51.6174 303.763C51.8259 303.808 52.0203 303.903 52.184 304.04C52.3672 304.283 52.4872 304.569 52.5335 304.87C52.5797 305.171 52.5508 305.479 52.4492 305.767C52.0094 307.661 51.0503 309.394 49.6798 310.773C48.3093 312.152 46.5815 313.122 44.6904 313.573" fill="#455A64"/>
<path d="M44.52 323.345C45.5858 320.865 47.2948 318.714 49.4704 317.116C49.7028 316.904 49.9753 316.739 50.2718 316.633C50.5683 316.527 50.8831 316.481 51.1976 316.497C52.136 316.667 52.5576 317.817 52.4828 318.769C52.3128 320.727 50.8168 322.298 49.2732 323.529C47.8525 324.506 46.3121 325.297 44.69 325.881" fill="#455A64"/>
<path d="M44.7715 331.301C45.8028 329.41 47.2403 327.77 48.9807 326.5C49.3538 326.218 49.7864 326.025 50.2455 325.936C50.4749 325.895 50.7111 325.917 50.9289 326C51.1468 326.083 51.3383 326.223 51.4831 326.405C51.9115 327.031 51.4831 327.867 51.0547 328.445C49.5673 330.514 47.463 332.059 45.0435 332.858" fill="#455A64"/>
<path d="M44.561 328.064C42.7432 325.845 40.7266 323.796 38.5362 321.944C38.3887 321.774 38.2017 321.644 37.9917 321.565C37.7816 321.485 37.5552 321.459 37.3326 321.488C37.1733 321.557 37.0368 321.669 36.9393 321.813C36.8417 321.956 36.7871 322.124 36.7818 322.297C36.7805 322.646 36.8596 322.991 37.013 323.304C37.7331 324.905 38.8045 326.323 40.1477 327.453C41.4909 328.583 43.0713 329.396 44.7718 329.832" fill="#455A64"/>
<path d="M44.7514 317.715L39.9914 311.942C39.5852 311.363 39.0729 310.867 38.4818 310.48C38.1922 310.262 37.8413 310.142 37.4793 310.137C37.1173 310.131 36.7628 310.241 36.4668 310.449C36.1708 310.658 35.9484 310.954 35.8315 311.297C35.7146 311.64 35.7093 312.011 35.8162 312.356C35.9871 313.047 36.3023 313.694 36.741 314.254C37.6584 315.686 38.8262 316.941 40.1886 317.96C41.5486 318.918 42.8406 319.537 44.5134 319.32" fill="#455A64"/>
<path d="M45.4105 306.052C44.4819 303.292 42.8397 300.826 40.6505 298.905C40.3055 298.56 39.8768 298.309 39.4061 298.178C38.9241 298.141 38.4443 298.273 38.0487 298.551C37.6531 298.829 37.3662 299.235 37.2369 299.701C37.0868 300.225 37.0473 300.774 37.1211 301.314C37.1949 301.853 37.3802 302.372 37.6653 302.836C38.2459 303.76 39.004 304.56 39.8957 305.189C41.4887 306.409 43.2652 307.368 45.1589 308.031" fill="#455A64"/>
<path d="M47.301 295.656C46.8454 292.31 45.1046 289.536 43.085 286.816C42.6566 286.245 42.065 285.639 41.3646 285.748C41.141 285.795 40.9329 285.897 40.7594 286.046C40.5858 286.195 40.4525 286.384 40.3718 286.598C40.2115 287.033 40.1488 287.497 40.1882 287.958C40.2758 289.986 40.9583 291.942 42.1506 293.585C43.3429 295.227 44.9923 296.481 46.893 297.193" fill="#455A64"/>
<path d="M48.6 290.351C48.3815 288.636 48.3223 286.903 48.4232 285.177C48.5343 283.442 49.1304 281.774 50.1436 280.362C50.5785 279.757 51.1746 279.286 51.864 279.002C52.21 278.865 52.5852 278.819 52.9542 278.867C53.3231 278.916 53.6735 279.059 53.972 279.281C54.2263 279.513 54.4255 279.799 54.5549 280.118C54.6843 280.436 54.7407 280.78 54.72 281.124C54.6592 281.812 54.4773 282.484 54.1828 283.109C52.9248 286.142 50.8236 289.501 48.6272 290.351" fill="#455A64"/>
<path d="M28.0096 294.336C28.0215 294.476 28.0215 294.617 28.0096 294.758C28.0096 295.07 28.0096 295.472 28.0096 295.975C28.0096 296.478 28.0096 297.144 28.0096 297.892C28.0096 298.64 28.0096 299.49 28.1048 300.436C28.1864 302.312 28.3632 304.516 28.6488 307.025C28.9344 309.534 29.3764 312.2 29.9612 315.008C30.546 317.816 31.26 320.448 32.0012 322.855C32.7424 325.262 33.4632 327.35 34.1432 329.111C34.4628 329.995 34.8232 330.777 35.0816 331.471C35.34 332.164 35.612 332.756 35.8228 333.239L36.2988 334.361C36.3602 334.488 36.4103 334.62 36.4484 334.755C36.3652 334.642 36.2967 334.518 36.2444 334.388L35.714 333.293C35.4828 332.817 35.2108 332.232 34.9184 331.539C34.626 330.845 34.2724 330.07 33.9392 329.186C33.2592 327.438 32.4704 325.317 31.7224 322.937C30.9744 320.557 30.2808 317.898 29.6824 315.076C29.084 312.254 28.6828 309.534 28.3904 307.059C28.098 304.584 27.962 302.299 27.9076 300.442C27.86 299.497 27.8736 298.647 27.86 297.892C27.8464 297.138 27.86 296.498 27.86 295.975C27.86 295.451 27.86 295.064 27.9008 294.758C27.9189 294.613 27.9555 294.471 28.0096 294.336Z" fill="#263238"/>
<path d="M28.7507 308.045C28.783 306.414 29.3789 304.845 30.4371 303.604C30.5936 303.375 30.8035 303.187 31.0487 303.057C31.2939 302.927 31.5671 302.858 31.8447 302.856C32.5723 302.965 32.9055 303.836 32.9259 304.57C32.9668 305.82 32.5537 307.042 31.7631 308.011C31.0861 308.942 30.0701 309.57 28.9343 309.758" fill="#263238"/>
<path d="M30.3556 316.96C30.2672 315.042 30.8792 312.084 32.0012 310.527C32.167 310.272 32.382 310.052 32.6336 309.881C32.7601 309.798 32.9049 309.748 33.0553 309.734C33.2058 309.719 33.3574 309.742 33.4972 309.799C33.6758 309.924 33.8203 310.091 33.9177 310.286C34.0151 310.481 34.0622 310.697 34.0548 310.915C34.1624 312.3 33.8822 313.687 33.2457 314.922C32.6091 316.156 31.6414 317.189 30.4508 317.905" fill="#263238"/>
<path d="M32.4365 324.589C32.6317 322.671 33.336 320.839 34.4765 319.285C34.5888 319.091 34.7386 318.921 34.9173 318.786C35.0959 318.65 35.2998 318.552 35.5169 318.496C36.1969 318.408 36.7341 319.094 36.8769 319.761C37.1829 321.121 36.5029 322.522 35.7141 323.684C34.9603 324.656 34.0824 325.525 33.1029 326.268" fill="#263238"/>
<path d="M34.3201 329.954C34.6172 328.444 35.2442 327.018 36.1561 325.779C36.3455 325.496 36.5996 325.263 36.8973 325.099C37.0447 325.02 37.2108 324.984 37.3775 324.994C37.5442 325.003 37.705 325.058 37.8425 325.153C38.2641 325.48 38.1689 326.139 37.9853 326.642C37.4205 328.372 36.3203 329.877 34.8437 330.94" fill="#263238"/>
<path d="M33.4838 327.799C31.7614 326.675 29.9406 325.71 28.0438 324.916C27.9081 324.832 27.7535 324.784 27.5943 324.776C27.4351 324.767 27.2763 324.799 27.1326 324.868C27.0337 324.948 26.9613 325.055 26.9248 325.176C26.8884 325.298 26.8897 325.428 26.9286 325.548C27.0017 325.787 27.1298 326.006 27.3026 326.187C28.137 327.122 29.1712 327.857 30.3283 328.337C31.4855 328.817 32.736 329.031 33.987 328.962" fill="#263238"/>
<path d="M31.3824 320.679L26.9216 317.769C26.5149 317.459 26.0536 317.228 25.5616 317.089C25.3091 316.981 25.0279 316.961 24.7626 317.032C24.4973 317.102 24.2631 317.259 24.0974 317.478C23.9317 317.697 23.8439 317.965 23.848 318.239C23.8521 318.514 23.9479 318.779 24.12 318.993C24.3864 319.425 24.7409 319.796 25.1604 320.081C26.0924 320.848 27.154 321.442 28.2952 321.835C28.8053 322.055 29.3548 322.169 29.9102 322.169C30.4656 322.169 31.0152 322.055 31.5252 321.835" fill="#263238"/>
<path d="M29.322 312.628C28.1014 310.951 26.4594 309.625 24.562 308.786C24.255 308.623 23.9097 308.545 23.5624 308.562C23.2252 308.638 22.9253 308.83 22.7153 309.105C22.5053 309.379 22.3984 309.719 22.4132 310.064C22.4231 310.453 22.5141 310.835 22.6804 311.187C22.8467 311.538 23.0846 311.851 23.3788 312.104C23.9783 312.609 24.6716 312.99 25.4188 313.226C26.75 313.704 28.1467 313.975 29.56 314.029" fill="#263238"/>
<path d="M28.3701 305.141C27.3433 302.965 25.5549 301.442 23.6101 300.035C23.4287 299.857 23.2035 299.731 22.9574 299.669C22.7114 299.607 22.4532 299.611 22.2093 299.681C22.068 299.761 21.949 299.875 21.8635 300.013C21.7779 300.151 21.7284 300.308 21.7197 300.47C21.703 300.795 21.7587 301.12 21.8829 301.422C22.3783 302.782 23.2637 303.966 24.4284 304.826C25.5931 305.686 26.9854 306.184 28.4313 306.257" fill="#263238"/>
<path d="M28.1322 301.245C27.6114 300.124 27.1992 298.956 26.9014 297.756C26.5999 296.553 26.6447 295.29 27.0306 294.111C27.1932 293.6 27.4973 293.145 27.9078 292.799C28.1147 292.632 28.3602 292.521 28.6218 292.474C28.8833 292.428 29.1523 292.448 29.4038 292.534C29.6254 292.641 29.8204 292.795 29.9745 292.987C30.1286 293.179 30.238 293.403 30.2946 293.642C30.4037 294.124 30.4245 294.622 30.3558 295.111C30.1518 297.443 29.4446 300.184 28.1322 301.231" fill="#263238"/>
<path d="M61.6287 294.044C61.639 294.184 61.639 294.325 61.6287 294.466C61.6287 294.778 61.6287 295.18 61.6763 295.683C61.7239 296.186 61.6763 296.852 61.6763 297.6C61.6763 298.348 61.6763 299.205 61.6287 300.15C61.5743 302.041 61.4179 304.285 61.1459 306.767C60.8739 309.249 60.4659 311.962 59.8539 314.784C59.2419 317.606 58.5483 320.258 57.8139 322.645C57.0795 325.032 56.3111 327.146 55.6039 328.901C55.2639 329.778 54.9239 330.56 54.6179 331.247C54.3119 331.934 54.0535 332.525 53.8291 333.001C53.6047 333.477 53.4347 333.817 53.2987 334.096C53.2431 334.225 53.1747 334.348 53.0947 334.463C53.1291 334.327 53.177 334.195 53.2375 334.069L53.7135 332.947C53.9311 332.471 54.1827 331.879 54.4615 331.179C54.7403 330.478 55.0735 329.703 55.3931 328.819C56.0731 327.065 56.8075 324.943 57.5419 322.563C58.2763 320.183 58.9563 317.531 59.5819 314.716C60.2075 311.901 60.5883 309.201 60.8943 306.733C61.2003 304.264 61.3635 302.02 61.4451 300.144C61.5063 299.198 61.5131 298.348 61.5335 297.6C61.5539 296.852 61.5335 296.206 61.5335 295.683C61.5335 295.159 61.5335 294.778 61.5335 294.466C61.5485 294.322 61.5804 294.18 61.6287 294.044Z" fill="#455A64"/>
<path d="M60.8878 307.76C60.8541 306.126 60.2558 304.555 59.1946 303.312C59.0396 303.083 58.831 302.895 58.5869 302.765C58.3428 302.635 58.0705 302.566 57.7938 302.564C57.0662 302.673 56.733 303.544 56.7058 304.278C56.6675 305.529 57.0829 306.751 57.8754 307.719C58.5499 308.653 59.5671 309.281 60.7042 309.466" fill="#455A64"/>
<path d="M59.2762 316.667C59.3714 314.749 58.7526 311.791 57.6374 310.234C57.4716 309.979 57.2566 309.759 57.005 309.588C56.8772 309.505 56.7314 309.455 56.5798 309.441C56.4283 309.426 56.2756 309.449 56.1346 309.507C55.9607 309.635 55.8201 309.804 55.7243 309.997C55.6285 310.191 55.5803 310.405 55.5838 310.622C55.4755 312.006 55.7547 313.393 56.39 314.628C57.0253 315.862 57.9917 316.896 59.181 317.612" fill="#455A64"/>
<path d="M57.1952 324.297C57.0003 322.379 56.296 320.547 55.1552 318.993C55.0424 318.798 54.8916 318.628 54.7117 318.492C54.5318 318.357 54.3265 318.259 54.108 318.204C53.428 318.116 52.8976 318.802 52.748 319.469C52.442 320.829 53.122 322.23 53.9108 323.392C54.6653 324.365 55.5431 325.236 56.522 325.983" fill="#455A64"/>
<path d="M55.3182 329.662C55.018 328.153 54.3914 326.728 53.4822 325.487C53.2892 325.208 53.0359 324.975 52.741 324.807C52.5938 324.728 52.4275 324.691 52.2607 324.701C52.0938 324.71 51.9329 324.766 51.7958 324.861C51.3742 325.188 51.4694 325.847 51.6462 326.351C52.2109 328.08 53.3111 329.585 54.7878 330.648" fill="#455A64"/>
<path d="M56.1548 327.48C57.877 326.356 59.6978 325.391 61.5948 324.596C61.7318 324.513 61.8875 324.465 62.0478 324.456C62.2081 324.448 62.3679 324.48 62.5128 324.549C62.609 324.63 62.6791 324.738 62.7142 324.859C62.7492 324.98 62.7478 325.109 62.71 325.229C62.6393 325.468 62.5136 325.687 62.3428 325.868C61.5071 326.803 60.4717 327.538 59.3134 328.018C58.1551 328.498 56.9036 328.712 55.6516 328.642" fill="#455A64"/>
<path d="M58.2491 320.414L62.7167 317.504C63.1225 317.192 63.5841 316.962 64.0767 316.824C64.3198 316.765 64.5743 316.772 64.8136 316.845C65.0529 316.918 65.2681 317.054 65.4367 317.239C65.5718 317.455 65.6435 317.705 65.6435 317.959C65.6435 318.214 65.5718 318.464 65.4367 318.68C65.1728 319.112 64.8206 319.483 64.4031 319.768C63.4687 320.535 62.4048 321.13 61.2615 321.523C60.7524 321.742 60.2041 321.854 59.6499 321.854C59.0958 321.854 58.5474 321.742 58.0383 321.523" fill="#455A64"/>
<path d="M60.3096 312.335C61.5309 310.659 63.1728 309.333 65.0696 308.493C65.3762 308.329 65.7218 308.251 66.0692 308.269C66.4157 308.342 66.7248 308.536 66.9405 308.816C67.1563 309.097 67.2645 309.446 67.2456 309.799C67.2354 310.188 67.1442 310.57 66.9779 310.921C66.8117 311.272 66.574 311.585 66.28 311.839C65.6815 312.345 64.9879 312.727 64.24 312.961C62.8925 313.448 61.4765 313.719 60.0444 313.763" fill="#455A64"/>
<path d="M61.2614 304.85C62.295 302.674 64.0766 301.15 66.0214 299.743C66.2031 299.566 66.4283 299.44 66.6743 299.378C66.9203 299.316 67.1782 299.32 67.4222 299.389C67.5643 299.468 67.684 299.582 67.7697 299.72C67.8554 299.858 67.9043 300.016 67.9118 300.178C67.9276 300.503 67.8743 300.827 67.7554 301.13C67.2575 302.491 66.3708 303.675 65.2053 304.536C64.0398 305.397 62.6471 305.896 61.2002 305.972" fill="#455A64"/>
<path d="M61.52 300.959C62.0379 299.837 62.4499 298.669 62.7508 297.471C63.0468 296.267 62.9996 295.004 62.6148 293.826C62.4494 293.318 62.1456 292.866 61.7376 292.52C61.5327 292.353 61.2879 292.241 61.027 292.195C60.7661 292.15 60.4979 292.173 60.2484 292.262C60.0255 292.368 59.8292 292.523 59.6739 292.714C59.5185 292.906 59.4081 293.13 59.3508 293.37C59.24 293.852 59.2147 294.349 59.276 294.839C59.48 297.172 60.194 299.912 61.5064 300.959" fill="#455A64"/>
<path d="M22.3252 334.463V340.093C22.3252 340.681 22.5587 341.245 22.9745 341.661C23.3902 342.077 23.9541 342.31 24.542 342.31H63.0436C63.3347 342.31 63.623 342.253 63.8919 342.141C64.1609 342.03 64.4053 341.867 64.6111 341.661C64.817 341.455 64.9802 341.211 65.0917 340.942C65.2031 340.673 65.2604 340.384 65.2604 340.093V334.463H22.3252Z" fill="#BA54D3"/>
<g opacity="0.4">
<path d="M25.6641 342.311L25.9837 344.099L61.5137 346.635L62.4113 342.311H25.6641Z" fill="black"/>
</g>
<path d="M65.1921 178.505C82.3173 178.505 96.2001 164.671 96.2001 147.606C96.2001 130.541 82.3173 116.707 65.1921 116.707C48.0668 116.707 34.1841 130.541 34.1841 147.606C34.1841 164.671 48.0668 178.505 65.1921 178.505Z" fill="#FAFAFA"/>
<path d="M97.7708 169.972C97.4738 170.047 97.181 170.138 96.8936 170.244C96.1251 170.569 95.4764 171.125 95.0372 171.835C94.7305 172.317 94.5332 172.86 94.4592 173.426C94.3912 174.071 94.5091 174.723 94.7992 175.303C95.0997 175.992 95.6044 176.572 96.2452 176.965C96.886 177.358 97.632 177.545 98.3824 177.501C99.1328 177.456 99.8515 177.182 100.441 176.716C101.031 176.25 101.464 175.615 101.681 174.895C101.901 174.284 101.939 173.623 101.79 172.991C101.653 172.438 101.395 171.922 101.035 171.481C100.512 170.827 99.7995 170.352 98.9948 170.121C98.6971 170.046 98.3951 169.989 98.0904 169.951C98.0904 169.951 98.172 169.951 98.3352 169.951C98.4325 169.942 98.5304 169.942 98.6276 169.951C98.7608 169.963 98.8927 169.986 99.022 170.019C99.8714 170.226 100.63 170.703 101.184 171.379C101.577 171.836 101.861 172.375 102.014 172.957C102.181 173.631 102.151 174.34 101.926 174.997C101.675 175.723 101.23 176.368 100.64 176.86C100.019 177.418 99.2266 177.748 98.3929 177.798C97.5593 177.847 96.7335 177.613 96.0504 177.132C95.404 176.715 94.8861 176.126 94.5544 175.432C94.2454 174.8 94.1295 174.09 94.2212 173.392C94.3032 172.809 94.5147 172.251 94.84 171.76C95.3153 171.03 96.0144 170.474 96.8324 170.176C96.9586 170.128 97.0881 170.089 97.22 170.06C97.3138 170.037 97.4093 170.021 97.5056 170.013C97.6892 169.965 97.7708 169.958 97.7708 169.972Z" fill="#263238"/>
<path d="M96.1526 150.143C96.1526 150.143 96.1526 149.973 96.1526 149.64C96.1526 149.306 96.1526 148.81 96.1526 148.171C96.1526 147.844 96.1526 147.491 96.1526 147.083C96.1526 146.675 96.0914 146.253 96.0642 145.784C96.037 145.315 95.9826 144.805 95.9418 144.261C95.9285 143.982 95.8922 143.704 95.833 143.431C95.7786 143.146 95.731 142.853 95.6766 142.547C95.1835 139.606 94.2481 136.756 92.9022 134.095C91.1479 130.556 88.7284 127.388 85.7758 124.765L84.5246 123.677C84.0826 123.33 83.6134 122.997 83.1646 122.678L82.4846 122.174C82.256 121.993 82.0126 121.832 81.757 121.692L80.2202 120.801C79.9618 120.651 79.7034 120.495 79.4382 120.352L78.6154 119.978L76.9358 119.21C76.3646 118.972 75.7594 118.802 75.161 118.584L74.2634 118.278C74.1138 118.23 73.9642 118.169 73.8078 118.128L73.3386 118.02C72.0739 117.683 70.7881 117.43 69.4898 117.265C68.8098 117.19 68.1706 117.074 67.4974 117.034L65.4574 116.979C65.1174 116.979 64.7774 116.979 64.4238 116.979L63.3902 117.054C62.7102 117.115 62.0302 117.142 61.3026 117.231C59.8886 117.431 58.4893 117.724 57.1138 118.108L56.0666 118.407C55.8898 118.455 55.713 118.496 55.543 118.557L55.033 118.754L52.993 119.556C52.313 119.856 51.633 120.236 50.9938 120.549C50.6674 120.726 50.3138 120.869 50.001 121.073L49.0422 121.678C47.7477 122.504 46.5076 123.413 45.3294 124.398L43.6362 125.996L43.2146 126.397C43.0786 126.54 42.9562 126.69 42.8202 126.832L42.045 127.723L41.2698 128.607L40.5898 129.573L39.9098 130.538L39.563 131.021C39.4542 131.191 39.359 131.368 39.257 131.538C38.8558 132.218 38.4478 132.898 38.0466 133.626C37.6454 134.353 37.3666 135.094 37.0334 135.829C34.4309 141.944 33.9007 148.743 35.5238 155.188L36.2038 157.528C36.4939 158.285 36.7863 159.033 37.081 159.772L37.2986 160.329L37.5706 160.866L38.1078 161.927L38.645 162.988L39.2774 163.988L39.903 164.98L40.2226 165.477L40.583 165.939L42.0042 167.782C43.0044 168.906 44.0717 169.969 45.2002 170.964L46.0502 171.706C46.3358 171.957 46.6554 172.154 46.9546 172.386C47.5666 172.821 48.1582 173.276 48.777 173.678L50.6878 174.793L51.157 175.065L51.6534 175.296L52.6462 175.752C53.9433 176.346 55.2792 176.853 56.6446 177.268C57.3246 177.465 58.0046 177.601 58.6846 177.764L59.691 178.002C60.031 178.077 60.371 178.097 60.711 178.152L62.751 178.41C63.431 178.472 64.111 178.458 64.791 178.492C66.0985 178.531 67.4071 178.481 68.7078 178.342H69.1906L69.6598 178.261L70.5982 178.098C71.217 177.982 71.8426 177.907 72.4478 177.758L74.2226 177.261L75.0998 177.016L75.943 176.697L77.5954 176.051C77.8696 175.952 78.1356 175.831 78.391 175.69L79.1594 175.303C79.6694 175.044 80.1794 174.8 80.669 174.528L82.0766 173.644C85.4025 171.512 88.2843 168.758 90.563 165.531C90.8214 165.178 91.073 164.851 91.311 164.491L91.9366 163.423L92.535 162.396C92.6302 162.226 92.739 162.063 92.8206 161.893C92.9022 161.723 92.9838 161.553 93.0586 161.383L93.9562 159.438C94.2214 158.813 94.3982 158.187 94.6362 157.609C94.7382 157.324 94.8334 157.038 94.9286 156.766C95.0318 156.506 95.1115 156.238 95.1666 155.964C95.2958 155.433 95.4114 154.937 95.5202 154.481C95.629 154.026 95.7446 153.597 95.8126 153.203L95.9622 152.135C96.0506 151.496 96.1186 151.013 96.1662 150.68C96.2138 150.347 96.241 150.184 96.241 150.184C96.241 150.184 96.241 150.347 96.1934 150.68C96.1458 151.013 96.0914 151.503 96.0166 152.142C95.9758 152.462 95.935 152.822 95.8874 153.216C95.8398 153.611 95.7038 154.032 95.6086 154.495C95.5134 154.957 95.3842 155.454 95.2618 155.991C95.2091 156.267 95.1318 156.538 95.0306 156.8C94.9354 157.072 94.8402 157.358 94.745 157.65C94.5342 158.228 94.3642 158.854 94.099 159.486C93.8338 160.118 93.521 160.758 93.2082 161.444C93.1334 161.614 93.0518 161.784 92.977 161.961C92.9022 162.138 92.7866 162.294 92.6914 162.464L92.093 163.498L91.4674 164.572C91.2362 164.926 90.9778 165.252 90.7262 165.626C88.4394 168.868 85.5487 171.639 82.2126 173.786L80.805 174.684C80.3086 174.956 79.7918 175.201 79.2818 175.466L78.5066 175.86C78.2483 176.002 77.9801 176.125 77.7042 176.228L76.045 176.874C75.7594 176.982 75.4806 177.098 75.195 177.2L74.3178 177.452L72.5294 177.955C71.9174 178.104 71.2918 178.186 70.6662 178.302L69.721 178.472C69.5646 178.472 69.4082 178.533 69.245 178.546L68.7622 178.587C67.4503 178.729 66.1303 178.781 64.8114 178.744C64.1314 178.744 63.4514 178.744 62.7714 178.669L60.7314 178.404C60.3914 178.356 60.0514 178.329 59.7046 178.261L58.6846 178.023C58.0046 177.853 57.3246 177.724 56.6446 177.526C55.2678 177.107 53.9207 176.596 52.6122 175.996L51.6126 175.541L51.1094 175.31L50.6334 175.031L48.6002 173.902C47.9746 173.494 47.3762 173.032 46.7574 172.596C46.4582 172.372 46.1318 172.175 45.8462 171.916L44.9894 171.162C43.8247 170.149 42.7275 169.061 41.705 167.904L40.2634 166.048L39.903 165.586L39.5834 165.082L38.951 164.083L38.3118 163.076L37.7678 162.009L37.2238 160.934L36.9518 160.39L36.7274 159.833C36.435 159.078 36.1426 158.323 35.8434 157.562C35.5442 156.8 35.4082 155.998 35.1634 155.202C33.5246 148.698 34.062 141.835 36.6934 135.666L37.7134 133.435C38.1214 132.755 38.5294 132.034 38.9306 131.334C39.0394 131.164 39.1346 130.987 39.2434 130.817L39.5902 130.328L40.2702 129.348L40.9502 128.376L41.8002 127.492L42.5822 126.594C42.7182 126.452 42.8406 126.295 42.9766 126.152L43.405 125.751L45.1458 124.16C46.3313 123.169 47.5832 122.26 48.8926 121.44L49.8582 120.828C50.1778 120.624 50.5382 120.481 50.8578 120.304C51.5378 119.971 52.2178 119.624 52.8978 119.305L54.9786 118.496L55.4886 118.298C55.6654 118.237 55.8422 118.196 56.019 118.142L57.0798 117.85C58.4665 117.463 59.8771 117.167 61.3026 116.966C61.9826 116.877 62.7102 116.85 63.4106 116.796L64.451 116.721C64.7978 116.721 65.131 116.721 65.4914 116.721L67.5314 116.775C68.2114 116.823 68.8914 116.938 69.5714 117.02C70.8798 117.181 72.1751 117.436 73.4474 117.782L73.9166 117.897C74.073 117.938 74.2226 117.999 74.379 118.047L75.2834 118.36C75.8818 118.57 76.4938 118.747 77.0718 118.992L78.7582 119.767L79.5878 120.148C79.8598 120.291 80.1182 120.454 80.3766 120.604L81.9202 121.508C82.1729 121.653 82.4159 121.814 82.6478 121.991L83.3278 122.501C83.797 122.841 84.2662 123.181 84.6878 123.514C85.1094 123.847 85.531 124.255 85.9458 124.616C88.9098 127.263 91.3342 130.459 93.0858 134.027C94.4203 136.707 95.3376 139.576 95.8058 142.534C95.8534 142.833 95.9078 143.125 95.9554 143.418C96.0117 143.693 96.048 143.973 96.0642 144.254C96.0642 144.798 96.1322 145.301 96.1662 145.777C96.2002 146.253 96.241 146.682 96.2478 147.083L96.207 148.171C96.207 148.81 96.1662 149.3 96.1526 149.64C96.139 149.98 96.1526 150.143 96.1526 150.143Z" fill="#263238"/>
<path d="M55.2915 148.078H60.185M69.9721 148.078V152.972M65.0785 157.865H69.9721M65.0785 148.096L65.0949 148.078M74.8656 148.096L74.8819 148.078M65.0785 152.99L65.0949 152.972M74.8656 152.99L74.8819 152.972M74.8656 157.883L74.8819 157.865M65.0785 143.203L65.0949 143.185M65.0785 138.309L65.0949 138.291M74.8656 133.397H79.7591V138.291M74.8656 162.759H79.7591V157.865M55.2915 133.397H50.3979V138.291M55.2915 162.759H50.3979V157.865M60.185 139.27V142.206C60.185 142.746 59.7468 143.185 59.2063 143.185H56.2702C55.7297 143.185 55.2915 142.746 55.2915 142.206V139.27C55.2915 138.729 55.7297 138.291 56.2702 138.291H59.2063C59.7468 138.291 60.185 138.729 60.185 139.27ZM60.185 153.95V156.886C60.185 157.427 59.7468 157.865 59.2063 157.865H56.2702C55.7297 157.865 55.2915 157.427 55.2915 156.886V153.95C55.2915 153.41 55.7297 152.972 56.2702 152.972H59.2063C59.7468 152.972 60.185 153.41 60.185 153.95ZM74.8656 139.27V142.206C74.8656 142.746 74.4275 143.185 73.8869 143.185H70.9508C70.4102 143.185 69.9721 142.746 69.9721 142.206V139.27C69.9721 138.729 70.4102 138.291 70.9508 138.291H73.8869C74.4275 138.291 74.8656 138.729 74.8656 139.27Z" stroke="#263238" stroke-width="1.71202" stroke-linecap="round" stroke-linejoin="round"/>
<path d="M320.6 370.496C320.6 370.598 251.825 370.673 167.002 370.673C82.1785 370.673 13.3965 370.598 13.3965 370.496C13.3965 370.394 82.1581 370.319 167.002 370.319C251.845 370.319 320.6 370.401 320.6 370.496Z" fill="#263238"/>
</svg>
