<svg width="343" height="435" viewBox="0 0 343 435" fill="none" xmlns="http://www.w3.org/2000/svg">
<rect x="0.5" y="0.5" width="342" height="434" rx="15.5" stroke="#D2DDEC"/>
<g clip-path="url(#clip0_10659_12270)">
<path d="M297.211 101.281H116.756C112.439 101.281 108.939 104.781 108.939 109.098V203.88C108.939 208.197 112.439 211.697 116.756 211.697H297.211C301.529 211.697 305.028 208.197 305.028 203.88V109.098C305.028 104.781 301.529 101.281 297.211 101.281Z" fill="#F5F5F5"/>
<path d="M297.212 212.419H116.77C114.507 212.421 112.336 211.525 110.733 209.929C109.13 208.332 108.225 206.165 108.217 203.902V109.098C108.219 106.834 109.119 104.663 110.72 103.063C112.321 101.462 114.492 100.562 116.756 100.56H297.197C298.322 100.556 299.436 100.774 300.476 101.201C301.516 101.628 302.461 102.256 303.258 103.049C304.056 103.842 304.688 104.785 305.121 105.823C305.553 106.861 305.777 107.974 305.779 109.098V203.902C305.769 206.167 304.862 208.335 303.256 209.932C301.65 211.528 299.476 212.423 297.212 212.419ZM116.77 101.989C114.889 101.991 113.086 102.739 111.755 104.069C110.425 105.399 109.677 107.203 109.675 109.084V203.902C109.677 205.783 110.425 207.587 111.755 208.917C113.086 210.247 114.889 210.995 116.77 210.997H297.212C298.145 211 299.071 210.818 299.934 210.463C300.798 210.108 301.583 209.586 302.245 208.927C302.907 208.268 303.432 207.485 303.791 206.623C304.149 205.76 304.334 204.836 304.335 203.902V109.098C304.333 107.217 303.585 105.413 302.255 104.083C300.925 102.753 299.122 102.005 297.24 102.003L116.77 101.989Z" fill="#E0E0E0"/>
<path d="M108.456 169.026H139.491V185.136H167.77V204.031H263.765V174.078H283.578V135.06H304.552V200.74C304.552 203.6 303.416 206.343 301.394 208.365C299.371 210.387 296.629 211.523 293.769 211.523H120.199C118.656 211.524 117.129 211.221 115.704 210.631C114.279 210.042 112.984 209.177 111.893 208.086C110.802 206.995 109.937 205.7 109.348 204.275C108.758 202.85 108.455 201.323 108.456 199.78V169.026Z" fill="#E0E0E0"/>
<path d="M119.564 227.23C119.564 228.341 119.311 247.158 118.892 279.045V279.103H118.842H26.1816H26.1094V214.39H26.1816H77.7156H77.7589V214.44C77.9287 216.225 78.5578 217.936 79.585 219.406C80.5505 220.813 81.7606 222.035 83.1577 223.015C85.76 224.732 88.7244 225.824 91.8189 226.205C94.5088 226.56 97.2183 226.746 99.9315 226.761L106.781 226.927L119.535 227.244L106.788 226.999L99.9532 226.847C97.2379 226.837 94.5259 226.657 91.8333 226.306C88.7182 225.931 85.7331 224.837 83.1144 223.109C81.7043 222.132 80.4817 220.91 79.5056 219.5C78.4629 218.004 77.8263 216.263 77.6579 214.447L77.7156 214.498H26.1816L26.2537 214.426V279.017L26.1816 278.937L118.842 278.966L118.784 279.024C119.268 247.158 119.564 228.341 119.564 227.23Z" fill="#EBEBEB"/>
<path d="M178.251 364.415C178.251 364.415 178.251 364.069 178.251 363.412C178.251 362.755 178.251 361.781 178.251 360.525C178.251 357.977 178.251 354.238 178.251 349.439C178.251 339.853 178.207 326.032 178.171 309.07L178.315 309.215L83.8364 309.258L84.024 309.07C84.024 328.666 84.024 347.389 84.024 364.43L83.8508 364.256L151.819 364.336L171.307 364.386H176.511H177.854H178.315H177.875H176.554H171.387L151.899 364.43L83.8147 364.516H83.6343V364.343C83.6343 347.302 83.6343 328.579 83.6343 308.984V308.796H83.8292L178.308 308.839H178.46V308.984C178.46 325.981 178.395 339.832 178.38 349.446C178.38 354.231 178.38 357.955 178.344 360.496C178.344 361.752 178.344 362.712 178.344 363.383C178.344 364.054 178.251 364.415 178.251 364.415Z" fill="#E0E0E0"/>
<path d="M174.05 312.405C174.05 312.463 173.609 312.477 173.328 313.004C173.241 313.145 173.187 313.304 173.169 313.469C173.152 313.634 173.172 313.801 173.227 313.957C173.32 314.125 173.459 314.264 173.627 314.357C173.795 314.451 173.985 314.496 174.178 314.487C174.37 314.478 174.555 314.415 174.714 314.307C174.872 314.198 174.997 314.046 175.075 313.87C175.113 313.709 175.115 313.542 175.081 313.38C175.047 313.217 174.979 313.065 174.88 312.932C174.674 312.678 174.394 312.494 174.078 312.405C174.078 312.405 174.18 312.34 174.374 312.362C174.656 312.405 174.912 312.549 175.096 312.766C175.241 312.926 175.345 313.118 175.401 313.326C175.456 313.535 175.46 313.754 175.414 313.964C175.325 314.219 175.163 314.442 174.946 314.604C174.73 314.765 174.47 314.858 174.201 314.871C173.931 314.883 173.664 314.814 173.434 314.673C173.203 314.532 173.021 314.325 172.909 314.08C172.843 313.875 172.827 313.657 172.862 313.445C172.898 313.233 172.983 313.032 173.111 312.86C173.272 312.629 173.51 312.462 173.783 312.391C173.941 312.347 174.05 312.383 174.05 312.405Z" fill="#E0E0E0"/>
<path d="M87.806 312.405C87.806 312.463 87.3657 312.477 87.0842 313.004C86.9974 313.145 86.9432 313.304 86.9258 313.469C86.9083 313.634 86.9279 313.801 86.9832 313.957C87.0663 314.134 87.2029 314.281 87.3738 314.377C87.5447 314.473 87.7412 314.513 87.9359 314.491C88.1316 314.496 88.3237 314.438 88.4846 314.327C88.6454 314.215 88.7667 314.055 88.8309 313.87C88.871 313.709 88.8743 313.541 88.8405 313.379C88.8068 313.217 88.7369 313.064 88.636 312.932C88.4313 312.676 88.1508 312.492 87.8348 312.405C87.8348 312.405 87.9359 312.34 88.1308 312.362C88.4121 312.405 88.6684 312.549 88.8525 312.766C88.9981 312.925 89.1035 313.117 89.16 313.326C89.2165 313.534 89.2224 313.753 89.1773 313.964C89.0873 314.219 88.9235 314.441 88.7067 314.601C88.4899 314.762 88.23 314.855 87.9603 314.867C87.6906 314.88 87.4234 314.811 87.1927 314.671C86.9621 314.531 86.7785 314.325 86.6656 314.08C86.5996 313.875 86.5836 313.657 86.6187 313.445C86.6539 313.233 86.7392 313.032 86.8677 312.86C87.0298 312.627 87.2708 312.46 87.5461 312.391C87.6977 312.347 87.806 312.383 87.806 312.405Z" fill="#E0E0E0"/>
<path d="M174.158 359.298C174.158 359.363 173.717 359.378 173.436 359.905C173.349 360.046 173.295 360.205 173.277 360.37C173.26 360.535 173.279 360.701 173.335 360.857C173.418 361.035 173.555 361.182 173.725 361.277C173.896 361.373 174.093 361.413 174.287 361.392C174.482 361.392 174.672 361.333 174.832 361.222C174.992 361.111 175.115 360.953 175.182 360.771C175.221 360.61 175.223 360.442 175.19 360.28C175.156 360.118 175.087 359.965 174.988 359.833C174.627 359.335 174.172 359.363 174.186 359.298C174.201 359.233 174.287 359.233 174.482 359.255C174.764 359.304 175.019 359.449 175.204 359.667C175.348 359.825 175.452 360.016 175.508 360.223C175.563 360.431 175.568 360.648 175.522 360.857C175.434 361.113 175.272 361.336 175.056 361.498C174.84 361.661 174.581 361.755 174.311 361.768C174.041 361.781 173.774 361.713 173.543 361.573C173.313 361.432 173.129 361.226 173.017 360.98C172.951 360.775 172.935 360.558 172.97 360.346C173.005 360.134 173.091 359.933 173.219 359.76C173.381 359.528 173.618 359.36 173.89 359.284C174.049 359.248 174.158 359.284 174.158 359.298Z" fill="#E0E0E0"/>
<path d="M186.623 312.405C186.623 312.463 186.183 312.477 185.901 313.004C185.815 313.146 185.761 313.304 185.742 313.469C185.723 313.633 185.741 313.8 185.793 313.957C185.885 314.127 186.024 314.268 186.193 314.363C186.362 314.458 186.554 314.503 186.747 314.494C186.941 314.485 187.128 314.422 187.287 314.312C187.446 314.201 187.571 314.048 187.648 313.87C187.686 313.709 187.688 313.542 187.654 313.38C187.621 313.217 187.552 313.065 187.453 312.932C187.246 312.675 186.963 312.491 186.645 312.405C186.645 312.405 186.746 312.34 186.948 312.362C187.228 312.408 187.483 312.551 187.669 312.766C187.813 312.927 187.916 313.119 187.971 313.327C188.026 313.535 188.032 313.754 187.987 313.964C187.899 314.219 187.736 314.442 187.52 314.604C187.303 314.765 187.044 314.858 186.774 314.871C186.504 314.883 186.237 314.814 186.007 314.673C185.777 314.532 185.594 314.325 185.482 314.08C185.415 313.875 185.398 313.657 185.433 313.445C185.468 313.232 185.554 313.032 185.685 312.86C185.842 312.626 186.082 312.459 186.356 312.391C186.522 312.347 186.623 312.383 186.623 312.405Z" fill="#E0E0E0"/>
<path d="M186.732 359.298C186.732 359.363 186.291 359.378 186.01 359.905C185.927 360.047 185.875 360.206 185.857 360.37C185.84 360.534 185.857 360.701 185.909 360.857C185.992 361.035 186.129 361.182 186.299 361.277C186.47 361.373 186.667 361.413 186.861 361.392C187.057 361.393 187.249 361.335 187.411 361.224C187.572 361.113 187.695 360.955 187.764 360.771C187.802 360.61 187.805 360.442 187.771 360.28C187.737 360.118 187.668 359.965 187.569 359.833C187.208 359.335 186.753 359.363 186.76 359.298C186.768 359.233 186.861 359.233 187.056 359.255C187.338 359.302 187.594 359.448 187.778 359.667C187.924 359.825 188.029 360.015 188.085 360.222C188.142 360.43 188.148 360.647 188.103 360.857C188.014 361.112 187.85 361.335 187.634 361.496C187.418 361.658 187.158 361.751 186.888 361.765C186.619 361.778 186.351 361.71 186.12 361.57C185.889 361.431 185.705 361.225 185.591 360.98C185.526 360.775 185.511 360.557 185.548 360.345C185.584 360.133 185.671 359.932 185.8 359.76C185.96 359.527 186.198 359.358 186.472 359.284C186.623 359.248 186.732 359.284 186.732 359.298Z" fill="#E0E0E0"/>
<path d="M218.221 312.405C218.221 312.463 217.781 312.477 217.5 313.004C217.414 313.146 217.359 313.304 217.341 313.469C217.322 313.633 217.339 313.8 217.391 313.957C217.484 314.127 217.623 314.268 217.792 314.363C217.96 314.458 218.153 314.503 218.346 314.494C218.54 314.485 218.727 314.422 218.886 314.312C219.045 314.201 219.17 314.048 219.246 313.87C219.284 313.709 219.287 313.542 219.253 313.38C219.219 313.217 219.151 313.065 219.052 312.932C218.845 312.675 218.562 312.491 218.243 312.405C218.243 312.405 218.344 312.34 218.546 312.362C218.827 312.407 219.083 312.55 219.268 312.766C219.411 312.927 219.515 313.119 219.57 313.327C219.625 313.535 219.63 313.754 219.586 313.964C219.497 314.219 219.334 314.442 219.118 314.604C218.902 314.765 218.642 314.858 218.372 314.871C218.103 314.883 217.836 314.814 217.605 314.673C217.375 314.532 217.193 314.325 217.081 314.08C217.015 313.875 216.999 313.657 217.034 313.445C217.069 313.233 217.155 313.032 217.283 312.86C217.441 312.626 217.68 312.459 217.954 312.391C218.12 312.347 218.229 312.383 218.221 312.405Z" fill="#E0E0E0"/>
<path d="M218.33 359.298C218.33 359.363 217.89 359.377 217.608 359.904C217.522 360.046 217.468 360.204 217.449 360.369C217.43 360.533 217.448 360.7 217.5 360.857C217.593 361.027 217.731 361.168 217.9 361.263C218.069 361.358 218.261 361.403 218.455 361.394C218.648 361.385 218.835 361.322 218.994 361.212C219.154 361.101 219.279 360.948 219.355 360.77C219.399 360.606 219.405 360.433 219.372 360.265C219.34 360.098 219.27 359.94 219.167 359.803C218.806 359.305 218.352 359.334 218.359 359.269C218.366 359.204 218.46 359.204 218.662 359.226C218.943 359.276 219.198 359.421 219.384 359.637C219.526 359.797 219.63 359.988 219.685 360.195C219.74 360.402 219.746 360.619 219.701 360.828C219.614 361.084 219.452 361.307 219.236 361.469C219.02 361.631 218.76 361.725 218.491 361.738C218.221 361.752 217.954 361.684 217.723 361.543C217.492 361.403 217.309 361.196 217.197 360.951C217.129 360.746 217.112 360.529 217.147 360.316C217.182 360.103 217.269 359.903 217.399 359.731C217.559 359.498 217.797 359.329 218.07 359.255C218.229 359.247 218.33 359.284 218.33 359.298Z" fill="#E0E0E0"/>
<path d="M87.6976 359.298C87.6976 359.363 87.2573 359.377 86.9758 359.904C86.889 360.046 86.8349 360.204 86.8174 360.369C86.7999 360.534 86.8195 360.701 86.8748 360.857C86.9681 361.025 87.1066 361.164 87.2746 361.258C87.4426 361.351 87.6334 361.396 87.8255 361.387C88.0176 361.378 88.2034 361.316 88.3619 361.207C88.5204 361.098 88.6453 360.947 88.7225 360.77C88.7678 360.605 88.7737 360.432 88.7399 360.264C88.7061 360.096 88.6334 359.938 88.5276 359.803C88.1667 359.305 87.712 359.334 87.7192 359.269C87.7265 359.204 87.8203 359.204 88.0151 359.226C88.2971 359.273 88.5531 359.418 88.7369 359.637C88.8824 359.795 88.9878 359.986 89.0443 360.193C89.1008 360.4 89.1068 360.618 89.0617 360.828C88.9725 361.083 88.8093 361.306 88.5929 361.467C88.3765 361.629 88.1169 361.722 87.8472 361.735C87.5774 361.748 87.3099 361.681 87.0788 361.541C86.8477 361.401 86.6636 361.196 86.55 360.951C86.4858 360.746 86.4706 360.529 86.5057 360.317C86.5409 360.105 86.6252 359.904 86.7521 359.731C86.9161 359.498 87.156 359.33 87.4305 359.255C87.5893 359.247 87.6976 359.284 87.6976 359.298Z" fill="#E0E0E0"/>
<path d="M208.614 364.415C208.614 364.415 208.614 364.314 208.614 364.133C208.614 363.953 208.614 363.678 208.614 363.339C208.614 362.617 208.614 361.593 208.614 360.264C208.614 357.579 208.614 353.682 208.564 348.781C208.564 338.98 208.513 325.165 208.485 309.084L208.658 309.257H181.859L182.046 309.07C182.046 330.477 182.01 349.972 181.996 364.429L181.859 364.292L201.418 364.364L206.774 364.4H208.174H208.658H208.203H206.824L201.505 364.436L181.859 364.508H181.721V364.371C181.721 349.936 181.685 330.448 181.671 309.012V308.824H208.838V309.005C208.802 325.165 208.773 339.016 208.752 348.853C208.752 353.732 208.715 357.616 208.701 360.293C208.701 361.607 208.701 362.625 208.701 363.332C208.701 363.664 208.701 363.917 208.701 364.104C208.682 364.21 208.653 364.314 208.614 364.415Z" fill="#E0E0E0"/>
<path d="M208.002 335.782C208.002 335.891 202.307 335.97 195.299 335.97C188.29 335.97 182.588 335.891 182.588 335.782C182.588 335.674 188.276 335.595 195.299 335.595C202.321 335.595 208.002 335.681 208.002 335.782Z" fill="#E0E0E0"/>
<path d="M290.802 364.415C290.802 364.415 290.802 364.061 290.802 363.397C290.802 362.733 290.802 361.744 290.802 360.459C290.802 357.883 290.802 354.115 290.766 349.294C290.766 339.665 290.715 325.843 290.687 309.055L290.838 309.207L213.032 309.243L213.22 309.055C213.22 328.875 213.22 347.684 213.22 364.415L213.046 364.241L269.142 364.328L285.129 364.371H289.38H290.477H290.86H290.499H289.423H285.201L269.257 364.422L213.046 364.508H212.873V364.335C212.873 347.605 212.873 328.795 212.873 308.976V308.788H213.068L290.874 308.824H291.026V308.976C291.026 325.8 290.961 339.658 290.946 349.315C290.946 354.115 290.946 357.875 290.903 360.445C290.903 361.715 290.903 362.682 290.903 363.332C290.903 363.981 290.802 364.415 290.802 364.415Z" fill="#E0E0E0"/>
<path d="M28.3037 114.857V199.888H91.5809V114.843C91.5809 114.843 28.3037 115.543 28.3037 114.857Z" fill="#E0E0E0"/>
<path d="M28.3037 115.039V128.262L91.6025 128.651V114.858L28.3037 115.039Z" fill="#EBEBEB"/>
<path d="M51.1978 120.942V123.534H71.4649V121.289C71.4649 121.289 51.7174 120.942 51.1978 120.942Z" fill="white"/>
<path d="M51.6455 134.353H31.833V155.601H51.6455V134.353Z" fill="#FAFAFA"/>
<path d="M48.8809 177.854H49.7542H52.2659H61.4757L61.4179 177.911C61.4179 171.589 61.4179 163.231 61.4179 154.093V148.694H61.4901H79.7075L79.6497 148.752C79.7147 144.811 79.7652 141.599 79.8013 139.369C79.8013 138.279 79.8013 137.42 79.8518 136.8C79.9023 136.179 79.8518 135.897 79.8518 135.897C79.8518 135.897 79.8518 136.208 79.8518 136.8C79.8518 137.392 79.8518 138.243 79.8518 139.369C79.8518 141.628 79.7941 144.84 79.7508 148.752V148.81H79.693H61.4757L61.5551 148.73V154.057C61.5551 163.209 61.5551 171.567 61.5551 177.875V177.919H61.4973H52.2876H49.7758L48.8809 177.854Z" fill="#FAFAFA"/>
<path d="M86.1819 184.147H84.6806H80.4366H65.2795H65.2146V184.082C65.2146 177.976 65.2146 170.772 65.2146 163.086V153.277H77.7805L77.7228 153.342C77.7228 147.467 77.7228 142.58 77.7228 139.138C77.7228 137.449 77.7228 136.113 77.7228 135.168C77.7228 134.222 77.7228 133.768 77.7228 133.768C77.7228 133.768 77.7228 134.258 77.7228 135.168C77.7228 136.077 77.7228 137.449 77.7228 139.138C77.7228 142.58 77.7228 147.467 77.7228 153.342V153.407H65.1641L65.2362 153.335C65.2362 156.467 65.2362 159.758 65.2362 163.136C65.2362 170.823 65.2362 178.026 65.2362 184.132L65.1713 184.067H80.3284H84.5723L86.1819 184.147Z" fill="#EBEBEB"/>
<path d="M31.9629 160.242V162.234H47.9933V159.845L31.9629 160.242Z" fill="#FAFAFA"/>
<path d="M31.833 163.713V165.713H47.8634V163.316L31.833 163.713Z" fill="#FAFAFA"/>
<path d="M315.161 279.045C315.161 277.97 315.162 259.558 315.104 228.255L315.161 228.313H204.594L204.674 228.24C204.674 246.097 204.674 263.282 204.674 279.031L204.601 278.959L315.176 279.031L204.601 279.103H204.529V228.183H204.609H315.176H315.226V228.24C315.205 259.529 315.161 277.97 315.161 279.045Z" fill="#EBEBEB"/>
<path d="M315.798 370.701C315.798 370.802 251.2 370.889 171.538 370.889C91.8771 370.889 27.2646 370.802 27.2646 370.701C27.2646 370.6 91.8482 370.514 171.538 370.514C251.228 370.514 315.798 370.629 315.798 370.701Z" fill="#263238"/>
<path d="M77.1962 293.652H71.0396V370.694H77.1962V293.652Z" fill="#263238"/>
<path d="M269.958 293.652H263.801V370.701H269.958V293.652Z" fill="#263238"/>
<path d="M275.256 284.688H68.7878C66.42 284.688 64.5005 286.608 64.5005 288.976V290.152C64.5005 292.52 66.42 294.44 68.7878 294.44H275.256C277.624 294.44 279.543 292.52 279.543 290.152V288.976C279.543 286.608 277.624 284.688 275.256 284.688Z" fill="#455A64"/>
<path d="M219.637 121.26L195.205 112.49L171.019 121.151C167.929 122.595 165.244 123.483 165.244 126.355V140.675C165.191 150.731 167.941 160.604 173.184 169.185C178.423 177.856 186.191 184.717 195.443 188.846C205.331 185.634 212.715 177.067 217.226 169.748C222.482 161.17 225.244 151.298 225.201 141.238V128.355C225.201 124.248 223.022 122.249 219.637 121.26Z" fill="#79DB9A"/>
<g opacity="0.3">
<path d="M195.443 180.531C188.113 177.221 181.969 171.751 177.832 164.854C173.679 158.064 171.497 150.252 171.531 142.292V132.245C171.531 129.971 172.902 127.835 175.631 126.565L195.212 119.246V112.49L171.026 121.151C168.485 122.256 165.252 123.483 165.252 126.355V140.675C165.199 150.731 167.948 160.604 173.191 169.185C178.431 177.856 186.198 184.717 195.45 188.846L195.443 180.531Z" fill="black"/>
</g>
<g opacity="0.4">
<path d="M195.443 188.846C197.101 188.303 198.707 187.615 200.243 186.789C204.011 184.652 207.435 181.958 210.398 178.799C213.091 175.901 215.461 172.719 217.464 169.308C222.79 160.671 225.479 150.667 225.202 140.524V128.694C225.202 122.804 222.163 122.371 219.622 121.26L195.205 112.49V119.246L215.025 126.673C217.753 127.95 219.124 130.08 219.124 132.36V142.407C219.158 150.366 216.974 158.176 212.816 164.963C208.774 171.822 202.704 177.259 195.443 180.524V188.846Z" fill="black"/>
</g>
<path opacity="0.5" d="M201.686 141.649V139.714C201.631 138.07 200.939 136.511 199.756 135.367C198.573 134.223 196.991 133.584 195.346 133.584C193.7 133.584 192.119 134.223 190.936 135.367C189.753 136.511 189.061 138.07 189.005 139.714V141.685C188.163 141.809 187.394 142.232 186.838 142.876C186.282 143.519 185.975 144.342 185.974 145.193V156.596C185.976 157.537 186.351 158.438 187.016 159.103C187.682 159.767 188.584 160.14 189.525 160.14H201.362C201.828 160.141 202.289 160.05 202.72 159.873C203.151 159.695 203.542 159.434 203.872 159.105C204.202 158.776 204.464 158.385 204.642 157.954C204.821 157.524 204.913 157.062 204.913 156.596V145.193C204.915 144.306 204.585 143.45 203.988 142.794C203.391 142.138 202.57 141.73 201.686 141.649ZM197.067 153.745H193.971L194.454 151.515C194.113 151.295 193.851 150.97 193.71 150.588C193.568 150.207 193.554 149.79 193.669 149.4C193.784 149.01 194.022 148.667 194.347 148.424C194.673 148.18 195.069 148.048 195.476 148.048C195.882 148.048 196.278 148.18 196.604 148.424C196.93 148.667 197.168 149.01 197.283 149.4C197.398 149.79 197.383 150.207 197.242 150.588C197.1 150.97 196.839 151.295 196.497 151.515L197.067 153.745ZM200.322 141.634H190.369V139.714C190.418 138.427 190.964 137.209 191.892 136.316C192.82 135.423 194.058 134.924 195.346 134.924C196.634 134.924 197.872 135.423 198.8 136.316C199.728 137.209 200.273 138.427 200.322 139.714V141.634Z" fill="white"/>
<path d="M175.486 141.512C175.28 140.868 175.159 140.201 175.125 139.527C174.939 137.912 174.871 136.286 174.923 134.662C174.923 133.709 175.017 132.807 175.104 131.984C175.137 131.233 175.321 130.497 175.645 129.819C175.88 129.358 176.254 128.982 176.713 128.744C177.045 128.585 177.255 128.592 177.255 128.621C176.666 128.894 176.192 129.367 175.919 129.956C175.654 130.61 175.509 131.307 175.494 132.013C175.429 132.829 175.378 133.724 175.349 134.669C175.299 136.553 175.349 138.278 175.421 139.491C175.501 140.161 175.522 140.837 175.486 141.512Z" fill="white"/>
<path d="M175.862 147.748C175.746 147.748 175.638 147.164 175.624 146.435C175.609 145.706 175.696 145.114 175.811 145.107C175.927 145.099 176.035 145.698 176.049 146.427C176.064 147.156 175.963 147.748 175.862 147.748Z" fill="white"/>
<path d="M227.93 114.013C228.59 114.171 229.237 114.381 229.864 114.641C230.631 114.947 231.358 115.344 232.029 115.825C232.979 116.473 233.764 117.333 234.325 118.336C235 119.612 235.361 121.029 235.378 122.472C235.378 124.046 235.378 125.749 235.378 127.589C235.378 131.263 235.414 135.464 235.378 140.148C235.311 145.296 234.647 150.418 233.401 155.413C231.937 161.23 229.676 166.817 226.681 172.014C223.33 177.832 219.178 183.151 214.346 187.814C209.294 192.642 203.058 196.915 195.775 199.181H195.71H195.645C193.094 198.091 190.605 196.863 188.189 195.5C185.719 194.069 183.34 192.485 181.065 190.758C176.372 187.168 172.195 182.949 168.651 178.221C160.984 168.116 156.422 155.998 155.522 143.346C155.291 140.35 155.356 137.391 155.349 134.482V125.872C155.349 124.428 155.349 123.071 155.349 121.693C155.326 120.996 155.351 120.3 155.421 119.607C155.526 118.902 155.815 118.237 156.258 117.68C157.167 116.654 158.294 115.845 159.557 115.312C160.762 114.742 161.975 114.244 163.166 113.717L195.349 102.891H195.385H195.429L219.305 111.054L225.678 113.219L227.316 113.789L227.872 113.999C227.872 113.999 227.677 113.948 227.309 113.825L225.656 113.284L219.261 111.119L195.407 103.1H195.486L163.332 114.02C162.148 114.547 160.928 115.045 159.723 115.615C158.505 116.129 157.418 116.908 156.54 117.896C156.132 118.41 155.868 119.023 155.775 119.672C155.709 120.346 155.687 121.023 155.71 121.7V125.879C155.71 128.687 155.71 131.552 155.71 134.453C155.71 137.355 155.659 140.314 155.89 143.288C156.789 155.87 161.328 167.92 168.954 177.969C172.481 182.669 176.636 186.864 181.304 190.434C183.563 192.151 185.928 193.726 188.384 195.147C190.797 196.517 193.283 197.754 195.833 198.849H195.71C202.928 196.612 209.099 192.353 214.151 187.575C218.967 182.941 223.109 177.654 226.457 171.87C229.437 166.709 231.698 161.165 233.177 155.392C234.431 150.42 235.107 145.319 235.191 140.191C235.191 135.514 235.191 131.307 235.234 127.633C235.234 125.792 235.234 124.082 235.234 122.523C235.232 121.1 234.888 119.699 234.231 118.437C233.686 117.447 232.923 116.593 232 115.94C231.326 115.46 230.6 115.058 229.835 114.742C229.363 114.544 228.881 114.371 228.392 114.222L227.93 114.013Z" fill="#5833BC"/>
<path d="M151.899 228.016L153.696 261.939L198.85 262.971L195.508 236.612L198.958 209.676C196.692 197.059 179.001 196.186 179.001 196.186L165.122 195.962C160.369 195.619 155.62 196.672 151.459 198.993C151.459 198.993 137.37 206.666 137.492 226.161" fill="#455A64"/>
<path d="M179.138 195.796C178.829 196.75 178.42 197.67 177.918 198.539C177.244 199.529 176.336 200.339 175.275 200.896C174.214 201.454 173.032 201.742 171.834 201.736C170.634 201.759 169.448 201.483 168.381 200.932C167.315 200.382 166.403 199.574 165.728 198.582C165.341 197.96 165.049 197.284 164.862 196.575C164.81 196.308 164.73 196.047 164.624 195.796C164.603 196.072 164.627 196.35 164.696 196.619C164.83 197.364 165.094 198.079 165.475 198.733C166.049 199.717 166.874 200.532 167.864 201.094C169.066 201.804 170.438 202.176 171.834 202.169C173.229 202.174 174.598 201.791 175.789 201.065C176.764 200.482 177.584 199.673 178.178 198.705C178.567 198.055 178.852 197.349 179.023 196.611C179.111 196.349 179.15 196.073 179.138 195.796Z" fill="#263238"/>
<path d="M189.748 207.149C187.597 208.865 185.839 211.024 184.593 213.478C183.348 215.932 182.645 218.626 182.531 221.375C182.184 229.993 181.65 241.96 181.333 242.559C180.344 244.407 154.223 242.833 151.473 242.639L148.153 241.614C148.153 241.614 142.047 236.33 140.935 237.918C139.824 239.506 144.14 240.524 144.977 243.642C145.814 246.76 137.139 244.32 136.576 243.938L134.338 243.303C134.338 243.303 135.666 247.561 136.8 248.911C140.408 253.241 148.702 255.407 148.702 255.407C148.702 255.407 182.531 266.399 196.194 257.327C200.661 254.36 201.419 225.28 199.73 214.021C199.406 211.872 198.315 209.914 196.66 208.508C195.004 207.102 192.895 206.342 190.723 206.37L189.748 207.149Z" fill="#FFBE9D"/>
<path d="M139.563 248.102C138.905 247.694 138.217 247.335 137.506 247.027C136.838 246.638 136.143 246.296 135.428 246.002C136.012 246.521 136.675 246.945 137.391 247.258C138.068 247.649 138.8 247.933 139.563 248.102Z" fill="#EB996E"/>
<path d="M195.349 203.086C199.514 207.07 203.548 215.067 202.054 231.069L179.86 230.152L180.43 208.254C180.462 207.157 180.738 206.08 181.238 205.103C181.737 204.126 182.447 203.271 183.317 202.602C185.052 201.237 187.217 200.535 189.422 200.624C191.628 200.712 193.73 201.585 195.349 203.086Z" fill="#455A64"/>
<path d="M151.119 366.298L150.527 357.904L166.24 356.685L167.243 368.955L166.276 369.092C161.945 369.669 144.277 371.726 141.31 371.069C138.004 370.34 151.119 366.298 151.119 366.298Z" fill="#5833BC"/>
<g opacity="0.3">
<path d="M161.534 369.273C161.665 367.928 162.287 366.679 163.281 365.765C164.259 364.846 165.548 364.33 166.89 364.321L167.236 368.71L161.534 369.273Z" fill="white"/>
</g>
<g opacity="0.3">
<path d="M144.731 368.507C144.731 368.507 140.155 370.217 140.798 370.946C141.44 371.675 159.383 370.268 167.243 368.954L167.193 368.608L146.261 370.419C146.261 370.419 145.648 368.463 144.731 368.507Z" fill="white"/>
</g>
<path d="M167.438 368.579L167.171 368.63L166.399 368.738L163.548 369.084C161.145 369.359 157.817 369.691 154.165 369.987C150.513 370.282 147.135 370.463 144.717 370.571L141.83 370.672H141.051C140.96 370.685 140.867 370.685 140.776 370.672H141.051L141.83 370.622L144.717 370.456C147.135 370.319 150.491 370.109 154.158 369.813C157.824 369.517 161.166 369.207 163.541 368.969L166.428 368.68L167.2 368.608C167.278 368.59 167.358 368.58 167.438 368.579Z" fill="#263238"/>
<path d="M146.269 370.665C146.004 369.706 145.402 368.875 144.573 368.326C145.074 368.467 145.506 368.789 145.785 369.228C146.12 369.63 146.293 370.142 146.269 370.665Z" fill="#263238"/>
<path d="M150.751 367.952C150.708 367.952 150.47 367.728 150.21 367.389C149.95 367.05 149.777 366.739 149.82 366.71C149.863 366.681 150.109 366.927 150.361 367.273C150.614 367.62 150.794 367.916 150.751 367.952Z" fill="#263238"/>
<path d="M151.971 367.179C151.971 367.222 151.682 367.071 151.393 366.854C151.105 366.638 150.888 366.414 150.924 366.371C150.96 366.327 151.22 366.479 151.509 366.703C151.798 366.926 152.043 367.136 151.971 367.179Z" fill="#263238"/>
<path d="M152.664 365.635C152.406 365.747 152.129 365.803 151.848 365.801C151.575 365.864 151.291 365.864 151.018 365.801C151.274 365.686 151.553 365.629 151.834 365.635C152.106 365.568 152.391 365.568 152.664 365.635Z" fill="#263238"/>
<path d="M152.858 364.566C152.599 364.763 152.288 364.879 151.963 364.898C151.646 364.981 151.311 364.963 151.003 364.848C151.309 364.776 151.621 364.731 151.935 364.711C152.237 364.635 152.547 364.587 152.858 364.566Z" fill="#263238"/>
<path d="M150.116 366.624C149.786 366.703 149.444 366.728 149.106 366.696C148.736 366.68 148.368 366.627 148.009 366.537C147.789 366.497 147.576 366.429 147.373 366.335C147.248 366.274 147.15 366.169 147.099 366.039C147.078 365.966 147.078 365.889 147.1 365.816C147.122 365.743 147.164 365.678 147.222 365.628C147.592 365.408 148.027 365.324 148.452 365.39C148.878 365.456 149.267 365.668 149.553 365.989C149.725 366.176 149.855 366.397 149.936 366.638C149.969 366.723 149.986 366.814 149.986 366.905C149.858 366.604 149.68 366.326 149.459 366.083C149.21 365.835 148.894 365.664 148.55 365.592C148.349 365.539 148.139 365.527 147.933 365.557C147.727 365.587 147.53 365.657 147.352 365.765C147.2 365.895 147.28 366.083 147.467 366.169C147.655 366.256 147.851 366.324 148.052 366.371C148.4 366.461 148.755 366.524 149.113 366.559C149.726 366.617 150.109 366.588 150.116 366.624Z" fill="#263238"/>
<path d="M149.878 366.688C149.728 366.479 149.666 366.22 149.704 365.967C149.716 365.698 149.791 365.436 149.921 365.201C149.995 365.046 150.107 364.911 150.247 364.81C150.387 364.709 150.551 364.645 150.722 364.624C150.774 364.629 150.824 364.645 150.87 364.67C150.916 364.696 150.956 364.73 150.989 364.771C151.021 364.812 151.045 364.859 151.058 364.909C151.072 364.96 151.076 365.013 151.068 365.064C151.06 365.226 151.016 365.384 150.939 365.526C150.823 365.761 150.678 365.979 150.506 366.176C150.217 366.515 149.971 366.652 149.957 366.631C149.943 366.609 150.145 366.436 150.397 366.096C150.547 365.897 150.676 365.681 150.78 365.454C150.895 365.23 150.96 364.841 150.708 364.812C150.455 364.783 150.217 365.079 150.072 365.295C149.948 365.502 149.869 365.734 149.841 365.974C149.828 366.213 149.84 366.452 149.878 366.688Z" fill="#263238"/>
<path d="M166.781 364.299C166.781 364.299 166.327 364.299 165.626 364.437C164.707 364.609 163.855 365.041 163.171 365.68C162.487 366.319 162 367.139 161.765 368.045C161.577 368.767 161.592 369.193 161.556 369.193C161.535 369.088 161.535 368.98 161.556 368.875C161.561 368.584 161.598 368.293 161.664 368.009C161.872 367.064 162.363 366.204 163.07 365.542C163.777 364.881 164.669 364.45 165.626 364.307C165.913 364.263 166.203 364.249 166.493 364.263C166.59 364.264 166.687 364.276 166.781 364.299Z" fill="#263238"/>
<path d="M164.638 357.89C164.836 358.953 164.966 360.028 165.027 361.109C165.158 362.182 165.226 363.261 165.23 364.342C165.031 363.279 164.901 362.203 164.84 361.123C164.709 360.05 164.642 358.971 164.638 357.89Z" fill="#263238"/>
<path d="M159.441 367.894C157.948 368.306 156.393 368.443 154.851 368.298C154.851 368.24 155.883 368.226 157.146 368.11C158.409 367.995 159.427 367.843 159.441 367.894Z" fill="#263238"/>
<path d="M162.516 367.648C162.559 367.684 162.451 367.872 162.364 368.117C162.277 368.363 162.241 368.579 162.184 368.579C162.126 368.579 162.083 368.334 162.184 368.052C162.285 367.771 162.48 367.619 162.516 367.648Z" fill="#263238"/>
<path d="M163.591 366.119C163.628 366.119 163.541 366.321 163.389 366.501C163.238 366.682 163.086 366.79 163.05 366.761C163.014 366.732 163.093 366.552 163.245 366.378C163.397 366.205 163.526 366.083 163.591 366.119Z" fill="#263238"/>
<path d="M165.179 365.324C165.179 365.382 164.963 365.396 164.739 365.497C164.515 365.598 164.356 365.728 164.313 365.7C164.27 365.671 164.378 365.44 164.659 365.317C164.941 365.194 165.186 365.274 165.179 365.324Z" fill="#263238"/>
<path d="M166.334 364.92C166.334 364.971 166.276 365.057 166.147 365.115C166.017 365.173 165.901 365.187 165.88 365.115C165.858 365.043 165.937 364.978 166.067 364.92C166.197 364.862 166.313 364.855 166.334 364.92Z" fill="#263238"/>
<path d="M102.818 366.696L103.028 358.287L118.791 358.583L118.611 370.889L117.629 370.94C113.299 371.098 95.4853 371.438 92.5911 370.507C89.372 369.46 102.818 366.696 102.818 366.696Z" fill="#5833BC"/>
<g opacity="0.3">
<path d="M112.895 370.63C113.158 369.306 113.897 368.124 114.973 367.309C116.029 366.499 117.35 366.115 118.676 366.234L118.596 370.637L112.895 370.63Z" fill="white"/>
</g>
<g opacity="0.3">
<path d="M96.2434 368.283C96.2434 368.283 91.523 369.546 92.0932 370.333C92.6634 371.12 110.657 371.445 118.611 370.889V370.542L97.6219 370.333C97.6219 370.333 97.1889 368.334 96.2434 368.283Z" fill="white"/>
</g>
<path d="M118.842 370.535H118.567L117.788 370.572L114.901 370.644C112.476 370.687 109.127 370.701 105.439 370.644C101.75 370.586 98.4013 370.449 95.9834 370.319L93.0964 370.146L92.3241 370.088C92.2329 370.098 92.1409 370.098 92.0498 370.088C92.1411 370.08 92.2328 370.08 92.3241 370.088H93.1036L95.9906 370.196C98.4086 370.29 101.765 370.398 105.446 370.463C109.127 370.528 112.476 370.535 114.901 370.528H118.546C118.644 370.518 118.744 370.52 118.842 370.535Z" fill="#263238"/>
<path d="M97.6003 370.578C97.4817 370.103 97.3098 369.643 97.0879 369.207C96.8136 368.797 96.4914 368.421 96.1279 368.088C96.5921 368.308 96.9786 368.664 97.2363 369.109C97.494 369.553 97.6109 370.066 97.5715 370.578H97.6003Z" fill="#263238"/>
<path d="M102.292 368.305C102.248 368.305 102.032 368.06 101.808 367.692C101.584 367.324 101.44 367.006 101.483 366.97C101.527 366.934 101.743 367.222 101.967 367.583C102.191 367.944 102.335 368.276 102.292 368.305Z" fill="#263238"/>
<path d="M103.576 367.656C103.576 367.692 103.295 367.526 103.028 367.274C102.761 367.021 102.573 366.79 102.609 366.754C102.645 366.718 102.89 366.884 103.157 367.136C103.425 367.389 103.612 367.62 103.576 367.656Z" fill="#263238"/>
<path d="M104.406 366.183C104.142 366.273 103.861 366.303 103.584 366.269C103.305 366.303 103.023 366.268 102.761 366.168C103.302 366.043 103.865 366.043 104.406 366.168V366.183Z" fill="#263238"/>
<path d="M104.71 365.137C104.435 365.314 104.113 365.403 103.786 365.389C103.463 365.437 103.134 365.387 102.84 365.245C103.151 365.199 103.465 365.183 103.779 365.194C104.087 365.15 104.398 365.131 104.71 365.137Z" fill="#263238"/>
<path d="M101.779 366.92C101.445 366.979 101.103 366.979 100.769 366.92C100.403 366.868 100.043 366.781 99.6932 366.66C99.4792 366.595 99.2733 366.505 99.0797 366.393C98.9617 366.321 98.8743 366.208 98.8343 366.075C98.8209 366 98.8294 365.923 98.8589 365.852C98.8883 365.782 98.9374 365.722 99.0003 365.678C99.39 365.494 99.832 365.451 100.25 365.558C100.668 365.664 101.035 365.914 101.288 366.263C101.438 366.466 101.546 366.697 101.606 366.942C101.625 367.032 101.625 367.125 101.606 367.216C101.505 366.902 101.354 366.607 101.158 366.342C100.934 366.071 100.635 365.871 100.299 365.765C99.9058 365.625 99.4727 365.646 99.0941 365.823C98.9281 365.945 98.9931 366.133 99.1663 366.241C99.3456 366.343 99.5341 366.428 99.7293 366.494C100.068 366.617 100.415 366.713 100.769 366.783C101.397 366.884 101.779 366.891 101.779 366.92Z" fill="#263238"/>
<path d="M101.519 366.97C101.396 366.75 101.358 366.494 101.411 366.248C101.452 365.988 101.553 365.74 101.707 365.526C101.794 365.377 101.918 365.253 102.067 365.165C102.216 365.078 102.386 365.031 102.559 365.028C102.66 365.052 102.748 365.115 102.804 365.202C102.861 365.289 102.881 365.395 102.862 365.497C102.834 365.66 102.773 365.815 102.681 365.952C102.541 366.17 102.377 366.371 102.19 366.551C102.027 366.727 101.828 366.865 101.606 366.955C101.606 366.955 101.808 366.775 102.097 366.457C102.261 366.273 102.406 366.072 102.53 365.858C102.674 365.649 102.775 365.267 102.53 365.216C102.284 365.165 102.01 365.433 101.851 365.635C101.708 365.828 101.608 366.049 101.555 366.284C101.522 366.511 101.51 366.741 101.519 366.97Z" fill="#263238"/>
<path d="M118.597 366.219C118.597 366.255 118.142 366.169 117.435 366.219C116.503 366.305 115.614 366.652 114.872 367.222C114.13 367.792 113.565 368.56 113.241 369.438C112.988 370.109 112.96 370.564 112.924 370.557C112.903 370.452 112.903 370.344 112.924 370.239C112.956 369.952 113.019 369.669 113.111 369.395C113.41 368.468 113.985 367.655 114.759 367.064C115.533 366.474 116.469 366.133 117.442 366.089C117.73 366.056 118.02 366.056 118.308 366.089C118.413 366.111 118.511 366.155 118.597 366.219Z" fill="#263238"/>
<path d="M117.081 359.63C117.168 360.708 117.195 361.79 117.16 362.871C117.186 363.95 117.148 365.03 117.044 366.104C116.957 365.026 116.93 363.944 116.965 362.863C116.943 361.784 116.982 360.705 117.081 359.63Z" fill="#263238"/>
<path d="M110.946 369.085C109.418 369.347 107.856 369.335 106.333 369.049C106.333 368.991 107.373 369.049 108.636 369.085C109.899 369.121 110.938 369.034 110.946 369.085Z" fill="#263238"/>
<path d="M114.035 369.142C114.035 369.178 113.941 369.359 113.833 369.59C113.724 369.821 113.667 370.03 113.609 370.03C113.551 370.03 113.53 369.778 113.66 369.51C113.789 369.243 113.999 369.099 114.035 369.142Z" fill="#263238"/>
<path d="M115.233 367.742C115.276 367.778 115.168 367.944 115.002 368.103C114.836 368.262 114.67 368.37 114.634 368.327C114.598 368.284 114.706 368.132 114.872 367.966C115.038 367.8 115.182 367.677 115.233 367.742Z" fill="#263238"/>
<path d="M116.9 367.077C116.9 367.135 116.677 367.128 116.446 367.207C116.215 367.286 116.041 367.402 116.005 367.366C115.969 367.33 116.099 367.113 116.388 367.019C116.677 366.925 116.915 367.019 116.9 367.077Z" fill="#263238"/>
<path d="M118.12 366.789C118.12 366.84 118.048 366.919 117.918 366.97C117.788 367.02 117.658 367.013 117.644 366.97C117.629 366.926 117.716 366.847 117.846 366.797C117.976 366.746 118.07 366.739 118.12 366.789Z" fill="#263238"/>
<path d="M116.676 260.971L170.729 260.293L159.434 285.706L124.861 285.843L121.534 363.7H100.415L102.429 276.857C102.521 272.946 104.008 269.196 106.622 266.284C109.236 263.372 112.804 261.491 116.684 260.979L116.676 260.971Z" fill="#263238"/>
<path d="M122.234 357.702C122.234 357.587 117.333 357.493 111.285 357.493C105.236 357.493 100.343 357.587 100.343 357.702C100.343 357.818 105.244 357.919 111.285 357.919C117.326 357.919 122.234 357.818 122.234 357.702Z" fill="#455A64"/>
<path d="M168.052 287.778L169.575 362.546L145.143 363.744C145.143 363.744 141.253 290.492 143.194 269.705C144.522 255.479 198.813 261.592 198.813 261.592C199.6 289.921 168.052 287.778 168.052 287.778Z" fill="#263238"/>
<path d="M169.575 356.648C169.265 356.598 168.95 356.586 168.637 356.612L166.074 356.67C163.909 356.742 160.928 356.872 157.637 357.038C154.346 357.204 151.358 357.377 149.2 357.522L146.652 357.724C146.335 357.727 146.019 357.771 145.713 357.854C146.026 357.899 146.343 357.911 146.659 357.89L149.221 357.825C151.386 357.76 154.367 357.63 157.659 357.464C160.95 357.298 163.938 357.125 166.096 356.973L168.644 356.778C168.958 356.772 169.271 356.728 169.575 356.648Z" fill="#455A64"/>
<path d="M168.362 281.498C168.086 282.681 167.945 283.892 167.944 285.107C167.804 286.306 167.804 287.517 167.944 288.716C168.221 287.533 168.361 286.322 168.362 285.107C168.502 283.908 168.502 282.697 168.362 281.498Z" fill="#455A64"/>
<path d="M169.308 260.438C169.154 260.419 168.999 260.419 168.846 260.438H167.525C166.377 260.474 164.71 260.532 162.66 260.647C160.61 260.763 158.164 260.943 155.443 261.369C152.484 261.769 149.643 262.79 147.106 264.364C146.449 264.805 145.85 265.326 145.323 265.916C144.805 266.501 144.408 267.183 144.154 267.923C143.719 269.291 143.431 270.701 143.295 272.131C143.071 274.53 142.97 276.939 142.992 279.348V284.213C142.992 284.747 142.992 285.18 142.992 285.534C142.973 285.687 142.973 285.842 142.992 285.996C143.032 285.845 143.054 285.69 143.057 285.534C143.057 285.238 143.122 284.812 143.151 284.213C143.216 283.065 143.252 281.405 143.288 279.355C143.324 277.306 143.367 274.859 143.678 272.174C143.825 270.774 144.115 269.393 144.544 268.053C145.091 266.667 146.074 265.496 147.344 264.718C149.826 263.178 152.601 262.17 155.493 261.759C158.164 261.34 160.603 261.131 162.646 260.972L167.496 260.633L168.81 260.525C168.979 260.517 169.146 260.488 169.308 260.438Z" fill="#455A64"/>
<path d="M171.625 202.14C170.656 202.135 169.698 201.939 168.805 201.563C167.913 201.186 167.104 200.637 166.424 199.947C165.745 199.257 165.208 198.439 164.846 197.541C164.484 196.642 164.303 195.681 164.313 194.713C164.313 192.165 164.385 189.956 164.385 189.956C164.385 189.956 158.488 189.408 158.055 183.569C157.622 177.73 157.81 164.254 157.81 164.254C161.043 162.623 164.652 161.885 168.265 162.114C171.879 162.344 175.366 163.534 178.366 165.561L179.275 166.174L178.994 194.872C178.977 196.811 178.192 198.665 176.81 200.028C175.429 201.39 173.564 202.149 171.625 202.14Z" fill="#FFBE9D"/>
<path d="M164.212 179.975C163.774 180.091 163.32 180.128 162.869 180.083C162.75 180.104 162.628 180.104 162.508 180.083C162.425 180.064 162.348 180.026 162.281 179.972C162.215 179.918 162.162 179.85 162.126 179.773C162.046 179.481 162.069 179.17 162.191 178.892L162.689 177.203C163.411 174.822 164.132 172.923 164.234 172.959C164.335 172.996 163.858 174.959 163.122 177.341C162.934 177.918 162.761 178.467 162.588 179.015C162.493 179.205 162.453 179.417 162.472 179.629C162.472 179.744 162.667 179.78 162.877 179.787C163.329 179.774 163.781 179.837 164.212 179.975Z" fill="#263238"/>
<path d="M164.313 189.878C167.014 189.761 169.619 188.844 171.798 187.243C171.798 187.243 170.253 191.574 164.392 191.386L164.313 189.878Z" fill="#EB996E"/>
<path d="M177.738 172.635C177.846 172.591 181.433 172.122 181.094 176.359C180.755 180.596 176.583 178.856 176.583 178.734C176.583 178.611 177.738 172.635 177.738 172.635Z" fill="#FFBE9D"/>
<path d="M178.026 177.347C178.026 177.347 178.091 177.405 178.214 177.47C178.382 177.561 178.579 177.582 178.763 177.528C179.049 177.377 179.291 177.152 179.462 176.877C179.633 176.601 179.728 176.286 179.737 175.962C179.78 175.598 179.738 175.23 179.614 174.886C179.587 174.75 179.527 174.623 179.439 174.516C179.351 174.409 179.237 174.325 179.109 174.273C179.026 174.242 178.935 174.242 178.851 174.273C178.768 174.303 178.698 174.362 178.654 174.439C178.589 174.554 178.611 174.641 178.589 174.648C178.568 174.655 178.503 174.569 178.546 174.395C178.582 174.293 178.651 174.204 178.741 174.143C178.864 174.067 179.011 174.041 179.152 174.071C179.324 174.12 179.48 174.212 179.606 174.338C179.733 174.464 179.825 174.621 179.874 174.792C180.024 175.175 180.078 175.589 180.033 175.998C180.025 176.376 179.905 176.743 179.688 177.053C179.471 177.363 179.166 177.601 178.813 177.737C178.696 177.763 178.574 177.761 178.458 177.733C178.342 177.704 178.233 177.649 178.142 177.571C178.026 177.448 178.026 177.355 178.026 177.347Z" fill="#EB996E"/>
<path d="M158.236 164.609C157.521 164.396 156.898 163.953 156.463 163.348C156.028 162.744 155.806 162.011 155.832 161.267C155.884 160.523 156.138 159.807 156.565 159.196C156.992 158.584 157.577 158.1 158.257 157.795C158.944 157.503 159.684 157.359 160.43 157.371C161.176 157.384 161.911 157.553 162.588 157.867C162.795 156.777 163.383 155.796 164.247 155.1C165.111 154.404 166.195 154.039 167.304 154.069C168.413 154.1 169.475 154.524 170.3 155.266C171.125 156.008 171.658 157.02 171.805 158.12C171.949 156.994 173.248 156.366 174.36 156.294C174.926 156.236 175.498 156.308 176.032 156.505C176.566 156.701 177.048 157.017 177.442 157.427C177.822 157.849 178.033 158.397 178.033 158.964C178.033 159.532 177.822 160.08 177.442 160.502C178.71 160.337 179.995 160.645 181.051 161.368C181.573 161.737 181.994 162.231 182.276 162.804C182.559 163.378 182.693 164.013 182.667 164.652C182.619 165.288 182.372 165.893 181.962 166.381C181.551 166.869 180.998 167.216 180.379 167.373C179.954 167.467 179.845 167.178 179.614 167.546C179.493 167.944 179.437 168.358 179.448 168.773C179.531 170.111 179.451 171.454 179.21 172.772C178.819 172.635 178.39 172.653 178.012 172.822C177.633 172.991 177.334 173.299 177.175 173.681C176.884 174.462 176.805 175.306 176.944 176.128C176.833 176.243 176.698 176.331 176.549 176.388C176.4 176.444 176.24 176.466 176.081 176.453C175.922 176.44 175.768 176.392 175.63 176.312C175.492 176.232 175.374 176.122 175.284 175.991C174.949 175.428 174.8 174.774 174.858 174.122L174.771 167.366C174.438 167.55 174.064 167.646 173.683 167.646C173.303 167.645 172.928 167.548 172.596 167.364C172.263 167.179 171.983 166.913 171.781 166.59C171.58 166.267 171.464 165.898 171.444 165.518C170.967 165.977 170.393 166.324 169.765 166.533C169.137 166.743 168.47 166.81 167.813 166.73C167.156 166.65 166.525 166.424 165.966 166.07C165.406 165.715 164.933 165.241 164.58 164.681C163.902 165.25 163.158 165.734 162.364 166.124C161.556 166.52 160.629 166.6 159.766 166.348C159.338 166.216 158.961 165.953 158.689 165.598C158.416 165.242 158.26 164.811 158.243 164.363L158.539 164.111" fill="#263238"/>
<path d="M179.138 261.318H121.44L111.927 224.472H160.069L167.691 258.914L179.138 259.189V261.318Z" fill="#79DB9A"/>
<path d="M161.815 173.126C161.873 173.205 161.339 173.624 160.545 173.638C159.751 173.653 159.195 173.27 159.253 173.191C159.311 173.111 159.845 173.284 160.538 173.263C161.231 173.241 161.765 173.032 161.815 173.126Z" fill="#263238"/>
<path d="M159.737 173.516C159.737 173.714 159.816 173.904 159.956 174.044C160.096 174.184 160.286 174.263 160.484 174.263C160.682 174.263 160.872 174.184 161.012 174.044C161.152 173.904 161.231 173.714 161.231 173.516" fill="#263238"/>
<path d="M169.936 173.175C170.001 173.255 169.466 173.673 168.665 173.688C167.864 173.702 167.316 173.32 167.373 173.24C167.431 173.161 167.972 173.334 168.658 173.313C169.344 173.291 169.885 173.082 169.936 173.175Z" fill="#263238"/>
<path d="M167.864 173.587C167.864 173.784 167.943 173.973 168.082 174.113C168.221 174.252 168.411 174.33 168.608 174.33C168.805 174.33 168.994 174.252 169.133 174.113C169.273 173.973 169.351 173.784 169.351 173.587" fill="#263238"/>
<path d="M170.462 171.278C170.405 171.588 169.567 171.704 168.578 171.718C167.59 171.733 166.745 171.632 166.687 171.321C166.63 171.011 167.46 170.6 168.564 170.6C169.668 170.6 170.513 170.975 170.462 171.278Z" fill="#263238"/>
<path d="M162.083 171.747C162.033 172.057 161.195 172.18 160.206 172.194C159.218 172.209 158.373 172.1 158.308 171.79C158.243 171.48 159.088 171.068 160.192 171.068C161.296 171.068 162.148 171.422 162.083 171.747Z" fill="#263238"/>
<path d="M183.173 174.821C183.173 175.876 182.754 176.888 182.008 177.633C181.262 178.379 180.251 178.798 179.196 178.798C177.031 178.798 176.237 177.023 176.237 174.821C176.237 172.62 177.002 170.852 179.196 170.852C180.25 170.852 181.26 171.27 182.006 172.014C182.751 172.758 183.171 173.768 183.173 174.821Z" fill="#455A64"/>
<path d="M178.856 171.79C178.856 171.79 181.931 157.037 171.826 157.615L171.343 156.691C171.343 156.691 177.463 155.247 179.701 160.011C181.447 163.721 180.314 171.631 180.314 171.631L178.856 171.79Z" fill="#455A64"/>
<path d="M179.701 178.798C179.212 178.817 178.735 178.643 178.373 178.315C177.437 177.596 176.82 176.538 176.655 175.37C176.519 174.207 176.773 173.031 177.377 172.028C177.889 171.256 178.532 171.155 178.524 171.205C178.147 171.45 177.831 171.779 177.601 172.165C177.115 173.141 176.922 174.236 177.045 175.319C177.204 176.397 177.738 177.384 178.553 178.105C178.908 178.379 179.293 178.611 179.701 178.798Z" fill="#263238"/>
<path d="M164.465 181.527C164.522 181.614 164.414 181.794 164.183 181.859C163.952 181.924 163.757 181.859 163.772 181.722C163.786 181.585 163.923 181.542 164.082 181.498C164.241 181.455 164.407 181.412 164.465 181.527Z" fill="#263238"/>
<path d="M148.845 183.966C149.79 183.966 150.556 183.2 150.556 182.256C150.556 181.311 149.79 180.545 148.845 180.545C147.901 180.545 147.135 181.311 147.135 182.256C147.135 183.2 147.901 183.966 148.845 183.966Z" fill="#263238"/>
<path d="M150.311 181.685C149.401 180.71 148.651 179.596 148.088 178.387C147.422 177.241 146.838 176.05 146.341 174.821C147.168 175.865 147.87 177.001 148.434 178.206C149.438 180.141 150.39 181.62 150.311 181.685Z" fill="#263238"/>
<path d="M149.488 172.938C149.582 172.974 149.214 173.861 148.254 174.475C147.989 174.687 147.682 174.84 147.354 174.925C147.025 175.01 146.682 175.023 146.348 174.966C146.348 174.857 147.193 174.728 148.052 174.165C148.91 173.602 149.394 172.865 149.488 172.938Z" fill="#263238"/>
<path d="M150.231 174.547C150.325 174.547 150 175.471 149.026 175.991C148.756 176.181 148.444 176.302 148.117 176.343C147.79 176.385 147.458 176.346 147.149 176.229C147.728 176.09 148.293 175.902 148.838 175.666C149.704 175.211 150.13 174.497 150.231 174.547Z" fill="#263238"/>
<path d="M139.975 181.26C139.844 181.43 139.666 181.557 139.463 181.626C139.26 181.695 139.041 181.701 138.834 181.645C138.628 181.59 138.442 181.473 138.301 181.312C138.16 181.151 138.07 180.951 138.043 180.738C138.016 180.526 138.052 180.31 138.148 180.118C138.243 179.926 138.393 179.767 138.579 179.66C138.765 179.554 138.979 179.505 139.192 179.52C139.406 179.535 139.611 179.613 139.78 179.745C140.006 179.92 140.154 180.178 140.191 180.462C140.227 180.746 140.15 181.033 139.975 181.26Z" fill="#263238"/>
<path d="M140.069 180.877C139.927 180.037 139.959 179.177 140.163 178.35C140.256 177.513 140.448 176.689 140.733 175.896C140.813 176.739 140.747 177.588 140.538 178.408C140.453 179.243 140.296 180.069 140.069 180.877Z" fill="#263238"/>
<path d="M144.017 177.132C143.494 177.325 142.927 177.368 142.381 177.256C141.835 177.144 141.332 176.881 140.928 176.497C140.682 176.229 140.639 175.984 140.682 175.97C140.726 175.955 140.848 176.121 141.108 176.302C141.444 176.542 141.821 176.72 142.22 176.829C143.172 177.096 144.002 177.016 144.017 177.132Z" fill="#263238"/>
<path d="M143.259 182.501C143.129 182.67 142.951 182.797 142.748 182.865C142.546 182.934 142.328 182.941 142.121 182.885C141.915 182.83 141.729 182.714 141.588 182.553C141.447 182.393 141.357 182.194 141.329 181.982C141.301 181.77 141.336 181.554 141.43 181.362C141.524 181.171 141.673 181.011 141.858 180.903C142.043 180.796 142.256 180.746 142.469 180.759C142.682 180.772 142.887 180.848 143.057 180.978C143.171 181.064 143.266 181.172 143.338 181.296C143.41 181.419 143.456 181.556 143.475 181.697C143.494 181.839 143.485 181.982 143.448 182.12C143.411 182.258 143.347 182.388 143.259 182.501Z" fill="#263238"/>
<path d="M143.382 182.118C143.235 181.279 143.267 180.418 143.476 179.592C143.565 178.752 143.757 177.925 144.046 177.131C144.125 177.976 144.057 178.828 143.844 179.65C143.763 180.485 143.608 181.311 143.382 182.118Z" fill="#263238"/>
<path d="M143.923 177.867C143.657 178.017 143.361 178.109 143.056 178.136C142.751 178.164 142.444 178.126 142.155 178.026C141.152 177.788 140.567 177.153 140.639 177.088C140.711 177.023 141.361 177.449 142.242 177.658C143.122 177.867 143.902 177.759 143.923 177.867Z" fill="#263238"/>
<path d="M202.025 231.068C201.895 231.079 201.765 231.079 201.635 231.068H200.531L196.453 230.917C193.01 230.772 188.261 230.548 183.014 230.274L180.322 230.137H180.141V229.964C180.141 225.373 180.184 221.303 180.199 218.329C180.199 216.885 180.242 215.738 180.257 214.879C180.257 214.504 180.257 214.2 180.257 213.948C180.258 213.839 180.27 213.73 180.293 213.623C180.324 213.728 180.336 213.838 180.329 213.948C180.329 214.2 180.329 214.504 180.365 214.879C180.365 215.738 180.365 216.9 180.415 218.329C180.415 221.31 180.459 225.373 180.48 229.964L180.307 229.776L182.992 229.913C188.239 230.188 192.996 230.455 196.431 230.635L200.502 230.909L201.606 231.003C201.749 231.001 201.89 231.023 202.025 231.068Z" fill="#263238"/>
<path d="M191.74 199.571C190.881 199.464 190.013 199.437 189.149 199.491C187.075 199.718 185.14 200.644 183.664 202.118C182.22 203.63 181.241 205.524 180.842 207.575C180.524 209.148 180.589 210.166 180.517 210.159C180.455 209.924 180.428 209.68 180.437 209.437C180.395 206.615 181.457 203.888 183.397 201.837C184.926 200.296 186.962 199.36 189.128 199.203C189.775 199.16 190.426 199.203 191.062 199.332C191.3 199.372 191.53 199.453 191.74 199.571Z" fill="#263238"/>
<path d="M151.884 210.772C151.993 211.467 152.036 212.17 152.014 212.873C152.014 214.172 152.058 215.998 152.014 217.997C151.971 219.888 151.935 221.606 151.899 223.006C151.899 223.808 151.899 224.385 151.899 224.955C151.899 224.306 151.899 223.656 151.899 222.747C151.899 221.303 151.827 219.629 151.79 217.694C151.754 215.76 151.79 214.085 151.79 212.793C151.76 212.118 151.791 211.442 151.884 210.772Z" fill="#263238"/>
<path d="M140.762 242.877C140.763 243.524 140.573 244.156 140.214 244.695C139.856 245.234 139.346 245.654 138.748 245.902C138.151 246.151 137.494 246.217 136.859 246.091C136.224 245.966 135.641 245.655 135.183 245.198C134.725 244.741 134.413 244.159 134.286 243.524C134.159 242.89 134.224 242.232 134.471 241.634C134.718 241.036 135.137 240.525 135.675 240.166C136.213 239.806 136.845 239.614 137.492 239.614C138.358 239.614 139.189 239.958 139.802 240.569C140.415 241.181 140.76 242.011 140.762 242.877Z" fill="#F5F5F5"/>
</g>
<defs>
<clipPath id="clip0_10659_12270">
<rect width="343" height="323" fill="white" transform="translate(0 48)"/>
</clipPath>
</defs>
</svg>
