<svg width="343" height="435" viewBox="0 0 343 435" fill="none" xmlns="http://www.w3.org/2000/svg">
<rect x="0.5" y="0.5" width="342" height="434" rx="15.5" stroke="#D2DDEC"/>
<path d="M121.437 179.64C122.7 188.194 121.398 196.93 117.694 204.743C113.99 212.556 108.052 219.095 100.63 223.531C93.2088 227.968 84.6381 230.104 76.0026 229.667C67.3672 229.231 59.0553 226.243 52.1189 221.081C45.1824 215.918 39.9333 208.815 37.0359 200.668C34.1384 192.522 33.7228 183.699 35.8418 175.316C37.9607 166.933 42.5189 159.367 48.9394 153.576C55.3599 147.785 63.3541 144.028 71.9104 142.782C83.3656 141.103 95.019 144.042 104.307 150.954C113.595 157.866 119.757 168.185 121.437 179.64Z" fill="#F5F5F5"/>
<path d="M111.151 181.141C112.112 187.659 111.118 194.315 108.295 200.268C105.471 206.221 100.945 211.202 95.2894 214.581C89.6337 217.961 83.1025 219.587 76.5225 219.253C69.9425 218.919 63.6094 216.641 58.3248 212.706C53.0402 208.771 49.0416 203.358 46.835 197.15C44.6285 190.942 44.3132 184.218 45.9291 177.831C47.545 171.444 51.0194 165.68 55.9126 161.268C60.8058 156.856 66.8979 153.995 73.4178 153.047C77.7401 152.413 82.1449 152.638 86.3805 153.707C90.6162 154.776 94.5997 156.669 98.1037 159.278C101.608 161.887 104.563 165.16 106.802 168.911C109.041 172.663 110.519 176.818 111.151 181.141Z" fill="#EBEBEB"/>
<path d="M110.986 180.107C110.793 180.107 110.441 178.714 109.551 176.274C108.297 172.837 106.52 169.614 104.282 166.72C102.738 164.75 100.983 162.955 99.0498 161.365C96.8267 159.561 94.3805 158.051 91.7715 156.872C90.3663 156.228 88.9147 155.691 87.429 155.264C85.886 154.807 84.3091 154.474 82.7132 154.267C81.0654 154.038 79.4022 153.94 77.739 153.972C76.0233 154.014 74.313 154.179 72.6212 154.468C70.9348 154.78 69.2725 155.212 67.647 155.76C66.0698 156.305 64.5364 156.969 63.0604 157.748C61.6352 158.498 60.2697 159.357 58.9763 160.317C57.7296 161.227 56.5538 162.23 55.4592 163.318C53.4161 165.315 51.6404 167.568 50.1763 170.022C48.9059 172.178 47.8757 174.467 47.1042 176.848C46.0007 180.33 45.4414 183.962 45.4462 187.615C45.4462 190.22 45.6112 191.677 45.4462 191.713C45.2811 191.749 44.8001 190.335 44.4915 187.665C44.0895 183.863 44.4011 180.019 45.4103 176.331C46.1031 173.767 47.0982 171.295 48.3747 168.967C49.8536 166.284 51.6886 163.814 53.8298 161.624C54.9821 160.431 56.2278 159.331 57.5551 158.336C58.9284 157.279 60.3855 156.336 61.912 155.516C63.4967 154.67 65.1455 153.95 66.8431 153.362C68.5914 152.748 70.3838 152.268 72.2049 151.927C74.0292 151.615 75.8742 151.439 77.7246 151.403C79.5208 151.378 81.3161 151.495 83.0936 151.754C84.8104 152.003 86.5048 152.387 88.1611 152.903C89.7496 153.38 91.2977 153.982 92.7908 154.704C95.5565 156.026 98.1304 157.716 100.442 159.729C102.442 161.476 104.228 163.454 105.761 165.622C107.978 168.739 109.594 172.242 110.527 175.951C111.152 178.592 111.152 180.071 110.986 180.107Z" fill="#E0E0E0"/>
<path d="M84.7729 205.042L85.6916 210.784L80.5811 211.603L79.6839 206.033C74.5733 206.535 69.4627 205.724 66.2973 203.98L68.0846 197.297C71.3501 198.872 74.968 199.575 78.5856 199.336L77.2147 190.794C71.3217 190.328 64.6751 189.445 63.5051 182.131C62.6366 176.712 65.8307 171.429 73.7622 169.211L72.8506 163.533L77.9684 162.715L78.8584 168.285C82.548 167.9 86.2762 168.392 89.7399 169.72L88.1895 176.424C85.5637 175.401 82.7596 174.913 79.9422 174.989L81.3347 183.681C87.2205 184.105 93.7666 184.995 94.9223 192.208C95.798 197.563 92.6469 202.788 84.7729 205.042ZM76.0447 183.258L74.8819 175.994C72.2692 177.042 71.4294 178.7 71.7022 180.387C71.9749 182.073 73.676 182.942 76.0447 183.258ZM86.8114 194.175C86.5243 192.381 84.8877 191.648 82.5621 191.232L83.6962 198.295C86.1654 197.297 87.077 195.812 86.8114 194.175Z" fill="#E0E0E0"/>
<path d="M280.109 140.356C283.379 145.722 284.984 151.937 284.72 158.215C284.456 164.493 282.335 170.552 278.626 175.624C274.917 180.696 269.787 184.554 263.884 186.709C257.981 188.865 251.572 189.22 245.468 187.731C239.363 186.242 233.837 182.975 229.59 178.344C225.343 173.713 222.566 167.926 221.609 161.715C220.652 155.505 221.56 149.15 224.216 143.456C226.873 137.761 231.159 132.983 236.533 129.726C240.092 127.562 244.043 126.12 248.159 125.483C252.275 124.846 256.477 125.027 260.523 126.014C264.57 127.001 268.382 128.776 271.743 131.237C275.104 133.697 277.946 136.796 280.109 140.356Z" fill="#F5F5F5"/>
<path d="M273.649 144.268C276.142 148.357 277.367 153.095 277.167 157.88C276.966 162.666 275.351 167.284 272.525 171.151C269.698 175.018 265.788 177.959 261.289 179.603C256.79 181.246 251.905 181.518 247.252 180.384C242.598 179.249 238.386 176.76 235.148 173.23C231.911 169.7 229.793 165.289 229.063 160.556C228.334 155.822 229.025 150.978 231.05 146.637C233.074 142.297 236.341 138.654 240.437 136.171C245.916 132.844 252.491 131.827 258.719 133.345C264.947 134.864 270.317 138.792 273.649 144.268Z" fill="#EBEBEB"/>
<path d="M273.254 143.623C273.132 143.709 272.493 142.854 271.194 141.469C269.384 139.524 267.282 137.872 264.964 136.574C263.372 135.69 261.687 134.985 259.939 134.471C257.94 133.894 255.875 133.576 253.795 133.523C252.673 133.494 251.55 133.547 250.436 133.681C249.274 133.814 248.125 134.037 246.998 134.349C245.829 134.662 244.686 135.068 243.581 135.562C241.301 136.583 239.194 137.954 237.337 139.624C236.437 140.434 235.602 141.312 234.839 142.252C233.385 144.027 232.202 146.008 231.329 148.13C230.527 150.051 229.979 152.068 229.699 154.131C229.461 155.932 229.42 157.754 229.577 159.564C229.825 162.21 230.481 164.8 231.523 167.245C232.24 168.989 232.786 169.922 232.664 170.001C232.542 170.08 231.838 169.283 230.877 167.568C229.531 165.136 228.65 162.476 228.278 159.722C228.015 157.819 227.979 155.892 228.171 153.98C228.529 150.559 229.595 147.249 231.3 144.261C231.935 143.166 232.655 142.122 233.453 141.139C234.265 140.11 235.161 139.15 236.131 138.268C238.118 136.447 240.393 134.967 242.864 133.889C244.059 133.361 245.295 132.932 246.56 132.605C247.777 132.281 249.018 132.056 250.271 131.93C251.463 131.802 252.663 131.768 253.86 131.829C258.025 131.99 262.078 133.227 265.624 135.418C267.99 136.874 270.064 138.758 271.74 140.974C272.91 142.575 273.369 143.565 273.254 143.623Z" fill="#E0E0E0"/>
<path d="M262.782 167.739L265.014 171.328L261.827 173.324L259.674 169.85C256.393 171.63 252.747 172.541 250.127 172.269L249.445 167.244C252.079 167.376 254.701 166.819 257.054 165.629L253.716 160.303C249.639 161.66 244.945 162.959 242.088 158.394C239.971 155.013 240.61 150.57 245.289 146.845L243.071 143.299L246.266 141.304L248.419 144.785C250.79 143.484 253.438 142.767 256.142 142.696L257.004 147.62C254.957 147.688 252.944 148.161 251.082 149.013L254.477 154.439C258.54 153.047 263.169 151.798 265.961 156.291C268.036 159.607 267.411 164 262.782 167.739ZM250.759 155.666L247.924 151.137C246.488 152.573 246.38 153.922 247.041 154.977C247.701 156.033 249.079 156.068 250.759 155.666ZM261.059 159.916C260.341 158.803 259.056 158.774 257.384 159.155L260.14 163.555C261.518 162.177 261.698 160.913 261.059 159.887V159.916Z" fill="#E0E0E0"/>
<path d="M237.351 110.956C234.618 112.689 231.433 113.572 228.198 113.493C224.964 113.415 221.825 112.378 219.18 110.515C216.534 108.652 214.501 106.046 213.338 103.026C212.174 100.007 211.933 96.7107 212.644 93.5541C213.355 90.3976 214.986 87.5229 217.332 85.2941C219.677 83.0652 222.631 81.5823 225.82 81.0331C229.009 80.484 232.289 80.8932 235.245 82.209C238.201 83.5248 240.7 85.6881 242.426 88.4249C243.572 90.2375 244.35 92.2581 244.716 94.3714C245.081 96.4847 245.026 98.6493 244.555 100.742C244.084 102.834 243.205 104.813 241.969 106.565C240.733 108.318 239.164 109.81 237.351 110.956Z" fill="#F5F5F5"/>
<path d="M235.277 107.668C233.194 108.988 230.767 109.66 228.302 109.599C225.838 109.539 223.446 108.748 221.431 107.328C219.416 105.908 217.867 103.922 216.98 101.622C216.094 99.3212 215.91 96.8094 216.452 94.4042C216.994 91.9991 218.237 89.8087 220.024 88.1103C221.811 86.4118 224.062 85.2817 226.491 84.8628C228.921 84.4439 231.42 84.7552 233.672 85.7572C235.925 86.7592 237.83 88.4069 239.146 90.4918C240.02 91.8735 240.613 93.414 240.892 95.0251C241.171 96.6362 241.129 98.2865 240.77 99.8816C240.411 101.477 239.741 102.985 238.798 104.321C237.856 105.658 236.659 106.795 235.277 107.668Z" fill="#EBEBEB"/>
<path d="M235.6 107.46C235.564 107.396 235.994 107.059 236.698 106.377C237.682 105.427 238.512 104.33 239.16 103.125C239.599 102.297 239.946 101.424 240.193 100.52C240.474 99.4876 240.619 98.4235 240.624 97.3542C240.634 96.7756 240.598 96.1972 240.516 95.6243C240.437 95.0272 240.312 94.4369 240.143 93.8586C239.968 93.2612 239.747 92.6781 239.483 92.1144C239.206 91.5333 238.89 90.9721 238.535 90.4348C238.173 89.8996 237.772 89.3911 237.337 88.9131C236.912 88.4586 236.453 88.0363 235.966 87.6498C235.492 87.2765 234.991 86.9405 234.466 86.6449C233.966 86.3658 233.445 86.1258 232.908 85.9272C231.908 85.539 230.864 85.2762 229.8 85.1448C228.87 85.0407 227.931 85.0407 227.001 85.1448C225.639 85.294 224.31 85.6549 223.06 86.2143C222.605 86.4686 222.124 86.6732 221.625 86.8244C221.967 86.4268 222.391 86.1063 222.866 85.8841C224.104 85.1622 225.464 84.6755 226.879 84.4485C227.862 84.2973 228.859 84.2636 229.85 84.348C230.99 84.436 232.113 84.6775 233.188 85.0658C233.772 85.2796 234.338 85.5388 234.882 85.841C235.45 86.1512 235.993 86.5064 236.504 86.9033C237.038 87.3144 237.539 87.7655 238.004 88.2528C238.472 88.7632 238.903 89.3052 239.296 89.8749C239.695 90.4592 240.048 91.0736 240.351 91.7124C240.641 92.3237 240.881 92.9574 241.069 93.6074C241.247 94.23 241.375 94.8662 241.45 95.5095C241.524 96.1262 241.553 96.7476 241.536 97.3685C241.479 99.5167 240.874 101.615 239.777 103.462C239.049 104.693 238.097 105.776 236.971 106.657C236.577 107.02 236.109 107.295 235.6 107.46Z" fill="#E0E0E0"/>
<path d="M223.125 102.285L221.301 103.469L220.253 101.833L222.019 100.684C221.125 99.2124 220.665 97.5182 220.691 95.7963L223.254 95.3944C223.212 96.7514 223.521 98.0963 224.151 99.2991L226.828 97.5262C226.11 95.4374 225.393 93.0329 227.704 91.5184C229.427 90.3986 231.716 90.6857 233.683 93.0616L235.485 91.8916L236.54 93.5138L234.774 94.6551C235.463 95.8597 235.859 97.2096 235.93 98.5957L233.403 99.0837C233.341 98.0452 233.078 97.0286 232.628 96.0906L229.864 97.8922C230.618 99.9666 231.3 102.342 229.017 103.828C227.324 104.912 225.063 104.632 223.125 102.285ZM229.24 95.9829L231.551 94.4828C230.798 93.765 230.116 93.7148 229.563 94.0665C229.01 94.4182 228.974 95.1216 229.211 95.9829H229.24ZM227.144 101.33C227.718 100.957 227.718 100.29 227.51 99.4283L225.264 100.864C225.945 101.582 226.599 101.668 227.115 101.33H227.144Z" fill="#E0E0E0"/>
<path d="M330.935 371.316C330.935 371.423 259.523 371.502 171.451 371.502C83.3802 371.502 11.9541 371.423 11.9541 371.316C11.9541 371.208 83.3515 371.129 171.451 371.129C259.552 371.129 330.935 371.215 330.935 371.316Z" fill="#263238"/>
<path d="M54.6336 349.28C55.4446 346.143 53.3846 342.985 51.0447 340.71C48.7047 338.434 45.9771 336.403 44.7785 333.381C42.8333 328.5 45.446 322.184 42.1299 318.114C40.1775 315.717 36.6748 314.913 34.9521 312.372C34.0405 311.029 33.7462 309.379 33.3873 307.799C31.5546 299.687 27.5729 292.217 21.8598 286.173C21.4786 293.393 23.0454 300.582 26.3962 306.988C27.7384 309.544 29.3893 312.013 29.8343 314.884C30.5521 319.521 27.9681 324.301 29.1166 328.852C30.4157 334.063 36.2943 337.551 36.5456 342.913C36.7824 347.45 32.8275 351.426 33.1218 355.955C33.3625 357.881 34.0534 359.723 35.1387 361.331C38.6558 367.188 43.7879 371.201 51.5758 371.072L61.1366 371.402L54.6336 349.28Z" fill="#1ACFD3"/>
<g opacity="0.3">
<path d="M54.6336 349.28C55.4446 346.143 53.3846 342.985 51.0447 340.71C48.7047 338.434 45.9771 336.403 44.7785 333.381C42.8333 328.5 45.446 322.184 42.1299 318.114C40.1775 315.717 36.6748 314.913 34.9521 312.372C34.0405 311.029 33.7462 309.379 33.3873 307.799C31.5546 299.687 27.5729 292.217 21.8598 286.173C21.4786 293.393 23.0454 300.582 26.3962 306.988C27.7384 309.544 29.3893 312.013 29.8343 314.884C30.5521 319.521 27.9681 324.301 29.1166 328.852C30.4157 334.063 36.2943 337.551 36.5456 342.913C36.7824 347.45 32.8275 351.426 33.1218 355.955C33.3625 357.881 34.0534 359.723 35.1387 361.331C38.6558 367.188 43.7879 371.201 51.5758 371.072L61.1366 371.402L54.6336 349.28Z" fill="black"/>
</g>
<path d="M63.0601 371.337C63.9344 371.473 64.8259 371.456 65.6944 371.287C66.7506 371.125 67.789 370.864 68.7952 370.504C70.183 370.021 71.4807 369.31 72.6353 368.401C73.3281 367.842 73.8708 367.119 74.2144 366.298C74.5052 365.369 74.6552 364.401 74.6594 363.427C74.6809 362.392 74.7576 361.36 74.8891 360.333C75.0727 359.243 75.4677 358.2 76.0519 357.261C77.1788 355.28 79.0522 353.407 79.6408 350.715C80.2294 348.023 79.8274 345.21 79.3824 342.339C78.9374 339.467 78.5067 336.345 79.6049 333.359C80.7031 330.373 82.7272 327.667 83.7752 324.301C84.8231 320.934 84.3351 317.231 84.5504 313.62C84.6212 311.788 85.0453 309.987 85.7993 308.316C86.5745 306.622 87.644 305.028 88.4838 303.241C90.1778 299.652 90.4792 295.561 90.9458 291.563C91.1707 289.544 91.41 287.507 91.6636 285.455C91.808 283.385 92.164 281.336 92.7259 279.339C93.3712 277.324 94.1358 275.349 95.0156 273.425C95.4674 272.425 95.837 271.391 96.121 270.331C96.2832 269.242 96.3863 268.144 96.4296 267.044C96.5357 264.835 96.4516 262.62 96.1784 260.426C95.92 258.222 95.518 256.033 95.2812 253.822L95.2381 253.442L95.1879 253.004L94.8003 253.198C92.7738 254.23 91.0126 255.716 89.6538 257.54C88.3281 259.323 87.2623 261.286 86.4884 263.369C84.8949 267.474 84.3351 271.781 83.5168 275.887C82.6985 279.992 81.7223 284.048 79.569 287.464C78.5282 289.166 77.2578 290.716 76.1452 292.381C74.9627 294 74.1537 295.86 73.7765 297.829C73.2095 301.87 75.4346 305.423 74.9752 309.005C74.7552 310.764 74.1604 312.455 73.231 313.965C72.3625 315.494 71.3433 316.908 70.3599 318.336C69.3715 319.724 68.5114 321.199 67.7903 322.743C67.1173 324.259 66.7211 325.883 66.6203 327.538C66.3834 330.761 66.8428 333.819 66.6203 336.704C66.3564 339.452 65.5565 342.123 64.266 344.564C63.1032 346.911 61.8184 349.043 60.7417 351.103C60.2034 352.136 59.7009 353.141 59.3061 354.146C58.9239 355.124 58.6425 356.139 58.4663 357.175C58.1844 358.981 58.1626 360.818 58.4017 362.63C58.6565 365.151 59.6057 367.551 61.1437 369.564C61.3764 369.864 61.6333 370.145 61.9117 370.404C62.104 370.601 62.3156 370.779 62.5433 370.935C62.895 371.2 63.0888 371.315 63.0888 371.315C62.4032 370.778 61.7818 370.164 61.237 369.485C59.7613 367.461 58.8632 365.074 58.6386 362.58C58.4275 360.789 58.4686 358.976 58.7606 357.197C58.9447 356.188 59.2284 355.199 59.6076 354.246C60.0167 353.263 60.5192 352.258 61.0432 351.239C62.1342 349.201 63.4334 347.083 64.6321 344.714C65.9664 342.237 66.7959 339.519 67.0725 336.718C67.3237 333.768 66.8859 330.703 67.1299 327.552C67.2325 325.953 67.6215 324.385 68.2784 322.923C68.9908 321.412 69.8414 319.97 70.8193 318.616C71.7811 317.18 72.8147 315.781 73.6904 314.216C74.6622 312.646 75.2864 310.886 75.5207 309.055C75.9801 305.237 73.7694 301.662 74.3436 297.908C74.71 296.022 75.4922 294.242 76.6333 292.697C77.7243 291.06 79.002 289.51 80.0786 287.766C82.232 284.249 83.3015 280.136 84.0982 276.009C84.8949 271.881 85.4835 267.618 87.0554 263.591C87.8073 261.564 88.8441 259.655 90.1347 257.921C91.4346 256.171 93.1225 254.746 95.0658 253.758L94.6208 253.514L94.6639 253.901C94.9079 256.133 95.3027 258.33 95.5611 260.505C95.8306 262.666 95.9147 264.846 95.8123 267.022C95.7738 268.091 95.6756 269.158 95.518 270.216C95.2451 271.237 94.8873 272.234 94.4485 273.195C93.5648 275.141 92.7955 277.138 92.1445 279.174C91.5699 281.203 91.2091 283.286 91.0678 285.39C90.8381 287.452 90.6132 289.491 90.3931 291.506C89.9337 295.518 89.6323 299.537 88.0029 302.99C87.1918 304.72 86.1223 306.32 85.3256 308.072C84.5473 309.805 84.111 311.672 84.0408 313.57C83.8326 317.259 84.3135 320.87 83.323 324.136C82.3325 327.402 80.2509 330.1 79.1958 333.187C78.1406 336.273 78.5354 339.532 78.9876 342.389C79.4398 345.246 79.9135 348.066 79.2963 350.615C78.679 353.163 76.9276 355.036 75.7791 357.075C75.1784 358.051 74.776 359.136 74.5948 360.269C74.4667 361.307 74.3996 362.352 74.3938 363.398C74.3926 364.339 74.2548 365.275 73.9847 366.176C73.665 366.959 73.1542 367.65 72.4989 368.186C71.3752 369.089 70.1123 369.804 68.7593 370.303C67.7659 370.674 66.7397 370.951 65.6944 371.129C65.0522 371.245 64.4017 371.31 63.7492 371.322C63.3185 371.33 63.0601 371.337 63.0601 371.337Z" fill="#263238"/>
<path d="M93.293 258.718C93.2514 258.812 93.2201 258.911 93.1996 259.012C93.1422 259.242 93.0776 259.522 92.9915 259.873C92.8049 260.627 92.5752 261.761 92.2163 263.182C91.8574 264.604 90.9745 266.197 90.2352 268.171C89.3624 270.392 88.6029 272.656 87.9599 274.954C87.2421 277.502 86.5817 280.337 85.907 283.366C85.2323 286.395 84.5145 289.64 82.8493 292.697C82.0669 294.248 81.184 295.82 80.4806 297.542C79.7924 299.305 79.3317 301.147 79.1097 303.026C78.6272 306.915 77.9371 310.775 77.0425 314.59C75.126 322.428 73.3028 329.885 71.6376 336.683L67.1084 354.699C65.8523 359.795 64.8259 363.937 64.1081 366.851C63.7779 368.287 63.5124 369.363 63.3186 370.167C63.2468 370.519 63.1822 370.806 63.1319 371.036C63.1034 371.131 63.0889 371.23 63.0889 371.33C63.1344 371.241 63.1705 371.147 63.1965 371.05L63.4406 370.196C63.6631 369.399 63.9574 368.301 64.3378 366.916C65.1058 364.001 66.1968 359.881 67.5319 354.799L72.1903 336.819C73.8699 330.022 75.7074 322.564 77.6454 314.726C78.5373 310.894 79.2249 307.017 79.7054 303.112C79.9164 301.29 80.3527 299.501 81.0046 297.786C81.6793 296.114 82.5478 294.549 83.3302 292.977C85.017 289.862 85.7132 286.517 86.3879 283.503C87.0626 280.488 87.6584 277.638 88.3546 275.09C89.0509 272.542 89.7902 270.281 90.508 268.322C91.2258 266.362 92.0512 264.733 92.4029 263.261C92.7546 261.79 92.9197 260.684 93.0704 259.916C93.1279 259.565 93.1781 259.278 93.2212 259.048C93.258 258.941 93.2821 258.83 93.293 258.718Z" fill="#263238"/>
<path d="M64.7755 371.401C71.0201 367.691 72.8146 356.709 70.2091 349.926C67.6035 343.143 63.0313 336.948 62.3135 329.72C61.768 324.165 63.5911 318.458 62.3135 313.025C60.5765 305.682 53.4202 300.018 53.5064 292.482C53.5494 288.254 55.954 284.278 55.7674 280.05C55.5305 274.875 51.554 270.762 49.092 266.197C45.3165 259.213 45.0725 250.951 43.7805 243.12C42.4885 235.289 39.4738 226.898 32.5688 223.022C31.5424 229.669 29.791 234.227 30.3437 243.235C30.5375 246.472 34.2986 252.66 34.8083 259.744C35.1169 263.986 35.3251 268.228 35.5835 272.47C35.8347 276.597 36.1003 280.796 37.5861 284.672C38.7201 287.637 40.5361 290.321 41.3831 293.379C42.9622 299.121 40.8807 305.352 42.1583 311.173C43.2421 316.104 46.6588 320.353 47.355 325.356C48.3384 332.383 43.7661 339.712 46.1133 346.387C47.2689 349.717 50.0108 352.388 50.786 355.819C51.3889 358.489 50.7286 361.31 51.2741 363.987C52.1569 368.294 60.3827 371.653 64.7755 371.38" fill="#1ACFD3"/>
<path d="M34.2848 229.647C34.2736 229.774 34.2736 229.901 34.2848 230.028C34.2848 230.308 34.3709 230.667 34.4283 231.119C34.5719 232.081 34.7298 233.488 35.0528 235.311C35.3758 237.134 36.352 239.208 37.1057 241.699C37.8593 244.19 38.6919 247.046 39.3954 250.248C40.0988 253.449 40.7017 257.002 41.3262 260.813C41.9507 264.625 42.6397 268.788 44.5275 272.764C45.4032 274.76 46.3865 276.755 47.1258 278.887C47.8464 281.072 48.2878 283.339 48.4394 285.634C48.7901 290.511 49.4035 295.365 50.2769 300.176C52.1862 310.031 54.0093 319.413 55.6674 327.961C57.3254 336.51 58.9907 344.133 60.3114 350.586C61.6321 357.039 62.7375 362.192 63.4983 365.831C63.8788 367.597 64.1802 368.982 64.3956 369.973C64.4961 370.418 64.5822 370.77 64.6468 371.043C64.6675 371.165 64.7012 371.286 64.7473 371.401C64.7519 371.276 64.7374 371.15 64.7042 371.028C64.654 370.755 64.5965 370.397 64.5176 369.944C64.331 368.954 64.0654 367.561 63.7352 365.781C63.0174 362.135 61.9982 356.924 60.7421 350.5C59.486 344.076 57.9212 336.367 56.2201 327.847L50.8798 300.076C50.019 295.281 49.4152 290.443 49.071 285.584C48.9088 283.241 48.4506 280.928 47.7072 278.7C46.9464 276.547 45.9559 274.523 45.073 272.542C43.1924 268.63 42.5321 264.539 41.8573 260.734C41.1826 256.93 40.5869 253.37 39.8476 250.162C39.1083 246.953 38.29 244.082 37.4574 241.598C36.6247 239.115 35.6916 237.055 35.304 235.268C34.9164 233.48 34.7442 232.052 34.5863 231.105C34.5001 230.66 34.4355 230.301 34.3853 230.021C34.3688 229.892 34.335 229.767 34.2848 229.647Z" fill="#263238"/>
<path d="M306.387 328.651C307.357 329.113 308.224 329.767 308.935 330.572C309.647 331.377 310.189 332.318 310.528 333.338C311.193 335.386 311.382 337.558 311.081 339.69C310.614 343.817 308.267 347.973 305.748 351.268C302.274 348.239 301.441 342.956 301.24 340.25C300.867 335.943 302.784 328.012 306.387 328.651Z" fill="#1ACFD3"/>
<path d="M309.775 358.079C309.543 356.904 309.624 355.688 310.011 354.554C310.398 353.42 311.076 352.408 311.978 351.619C312.897 350.846 313.96 350.263 315.106 349.905C316.252 349.546 317.458 349.419 318.654 349.53C319.208 349.524 319.757 349.638 320.262 349.865C320.768 350.092 321.218 350.426 321.582 350.844C321.854 351.287 322.003 351.796 322.011 352.316C322.02 352.836 321.889 353.349 321.632 353.801C321.106 354.7 320.35 355.443 319.443 355.955C316.436 357.842 313.177 359.12 309.775 358.108" fill="#1ACFD3"/>
<path d="M305.325 370.698C305.341 370.413 305.382 370.129 305.447 369.851C305.554 369.255 305.698 368.487 305.87 367.561C306.254 365.007 307.052 362.531 308.232 360.233C309.453 357.94 311.264 356.015 313.479 354.656C314.155 354.252 314.878 353.934 315.632 353.708C315.835 353.644 316.041 353.591 316.249 353.55C316.393 353.55 316.472 353.507 316.472 353.55C314.754 354.105 313.165 354.997 311.797 356.174C310.428 357.351 309.309 358.79 308.504 360.405C307.349 362.665 306.536 365.084 306.093 367.583C305.877 368.545 305.705 369.32 305.576 369.851C305.522 370.141 305.438 370.425 305.325 370.698Z" fill="#263238"/>
<path d="M305.454 334.816C305.477 334.94 305.492 335.064 305.497 335.19C305.497 335.462 305.533 335.814 305.562 336.252C305.612 337.171 305.662 338.506 305.72 340.164C305.82 343.466 305.906 348.059 305.885 353.084C305.863 358.108 305.741 362.695 305.605 366.004C305.54 367.655 305.468 368.99 305.411 369.916C305.411 370.346 305.361 370.698 305.339 370.978C305.338 371.101 305.324 371.224 305.296 371.344C305.285 371.22 305.285 371.095 305.296 370.971C305.296 370.698 305.296 370.346 305.296 369.909C305.296 368.947 305.354 367.619 305.389 365.997C305.476 362.695 305.562 358.101 305.583 353.077C305.605 348.052 305.583 343.473 305.504 340.157C305.504 338.534 305.461 337.207 305.44 336.245V335.182C305.434 335.06 305.439 334.938 305.454 334.816Z" fill="#263238"/>
<path d="M303.767 360.562C303.348 358.064 302.34 355.701 300.826 353.67C299.312 351.639 297.335 349.999 295.06 348.884C293.905 348.324 292.383 347.965 291.436 348.827C290.488 349.688 290.718 351.246 291.156 352.416C292.178 354.904 293.913 357.034 296.143 358.539C298.373 360.043 300.998 360.855 303.688 360.871" fill="#1ACFD3"/>
<path d="M295.62 352.797C295.87 352.877 296.11 352.983 296.338 353.113C296.624 353.245 296.902 353.394 297.171 353.558C297.536 353.762 297.89 353.985 298.233 354.225C298.653 354.508 299.058 354.812 299.446 355.137C299.896 355.504 300.327 355.895 300.738 356.307C301.669 357.262 302.49 358.319 303.186 359.458C303.862 360.61 304.404 361.836 304.801 363.111C304.968 363.668 305.104 364.234 305.21 364.805C305.305 365.304 305.375 365.807 305.418 366.313C305.46 366.728 305.479 367.144 305.475 367.562C305.495 367.875 305.495 368.189 305.475 368.502C305.473 368.772 305.444 369.041 305.389 369.306C305.317 369.306 305.439 368.157 305.238 366.334C305.183 365.837 305.101 365.344 304.994 364.856C304.883 364.295 304.739 363.741 304.564 363.197C304.162 361.945 303.623 360.742 302.956 359.609C302.274 358.487 301.473 357.442 300.566 356.493C300.167 356.082 299.748 355.692 299.31 355.323C298.937 354.991 298.546 354.68 298.14 354.39C296.639 353.328 295.62 352.854 295.62 352.797Z" fill="#263238"/>
<path d="M255.54 213.958C255.54 213.958 222.027 190.207 217.785 187.874C213.744 185.649 200.917 184.034 199.768 183.754L176.8 178.729L141.715 179.777L131.666 185.828L106.199 197.586C99.2581 200.783 93.7871 206.492 90.8888 213.563L74.8105 252.833L114.741 264.633L115.982 306.056L106.572 371.316H223.34L217.462 246.244L229.621 248.921L255.54 213.958Z" fill="#263238"/>
<path d="M115.458 247.952C115.458 247.952 115.034 248.26 114.223 248.734C113.08 249.428 111.812 249.892 110.491 250.098C108.512 250.237 106.527 249.948 104.67 249.251C102.38 248.489 100.161 247.528 98.0375 246.38C95.7621 245.196 93.6303 243.997 91.6349 243.035C89.8751 242.156 88.0457 241.424 86.1655 240.846C84.8956 240.464 83.5933 240.2 82.2751 240.056C81.8085 240.006 81.4497 239.984 81.1984 239.977H80.8252C81.3043 239.96 81.784 239.977 82.2608 240.028C83.5854 240.135 84.8959 240.376 86.1726 240.745C88.0634 241.305 89.9028 242.026 91.6708 242.899C93.6806 243.86 95.8124 245.052 98.0878 246.243C100.205 247.384 102.414 248.344 104.691 249.115C106.523 249.806 108.48 250.102 110.434 249.983C111.743 249.791 113.003 249.347 114.144 248.677C114.554 248.447 114.862 248.26 115.078 248.131C115.293 248.002 115.458 247.952 115.458 247.952Z" fill="white"/>
<path d="M113.75 228.601H113.484L112.723 228.565C112.063 228.529 111.108 228.457 109.931 228.342C103.799 227.725 97.7703 226.336 91.9866 224.208C90.8741 223.799 89.984 223.447 89.3739 223.189L88.6562 222.887L88.4121 222.772L88.6705 222.859L89.3883 223.131C90.0056 223.375 90.9028 223.713 92.0153 224.108C97.8143 226.182 103.837 227.567 109.96 228.235C111.13 228.364 112.113 228.457 112.738 228.507L113.498 228.572L113.75 228.601Z" fill="white"/>
<path d="M138.851 187.874C138.851 187.874 138.549 188.362 137.918 189.18C137.017 190.33 135.983 191.368 134.838 192.274C133.124 193.602 131.256 194.72 129.276 195.604C126.852 196.688 124.355 197.6 121.803 198.332C119.097 199.136 116.513 199.847 114.195 200.607C112.134 201.26 110.123 202.064 108.18 203.012C106.871 203.65 105.617 204.396 104.433 205.244C104.003 205.531 103.715 205.797 103.486 205.962C103.256 206.127 103.148 206.206 103.148 206.206C103.148 206.206 103.572 205.818 104.397 205.194C105.575 204.329 106.823 203.565 108.13 202.911C110.074 201.953 112.087 201.139 114.152 200.478C116.47 199.703 119.062 198.992 121.76 198.188C124.306 197.46 126.798 196.556 129.218 195.482C131.191 194.605 133.055 193.501 134.774 192.195C135.931 191.308 136.984 190.292 137.91 189.166C138.248 188.778 138.456 188.448 138.628 188.226C138.8 188.003 138.851 187.874 138.851 187.874Z" fill="white"/>
<path d="M210.664 193.221C210.664 193.221 210.556 193.171 210.355 193.056C210.154 192.941 209.882 192.769 209.494 192.575C208.426 192.005 207.312 191.525 206.164 191.14C204.456 190.567 202.71 190.118 200.938 189.798C198.943 189.417 196.725 189.123 194.399 188.793L182.498 187.106L178.91 186.575L177.926 186.424L177.589 186.359L177.933 186.395L178.917 186.517L182.506 186.998L194.414 188.642C196.739 188.965 198.957 189.266 200.96 189.654C202.734 189.98 204.481 190.441 206.185 191.032C207.337 191.43 208.452 191.93 209.516 192.525C210.276 192.949 210.664 193.221 210.664 193.221Z" fill="white"/>
<path d="M194.414 201.145C194.414 201.145 194.148 201.274 193.638 201.496C193.129 201.719 192.368 202.042 191.385 202.437C189.411 203.219 186.532 204.303 182.886 205.365C178.62 206.63 174.268 207.589 169.866 208.236C164.891 208.997 159.343 208.997 153.565 208.803C147.787 208.609 142.253 208.365 137.243 208.681C132.805 208.896 128.414 209.698 124.186 211.064C121.338 212.001 118.633 213.327 116.147 215.005C115.293 215.622 114.625 216.11 114.209 216.483C113.793 216.857 113.549 217.022 113.549 217.022C113.549 217.022 113.764 216.821 114.188 216.462C114.611 216.103 115.257 215.586 116.118 214.955C118.595 213.253 121.299 211.91 124.15 210.964C128.386 209.581 132.786 208.767 137.235 208.545C142.26 208.222 147.78 208.466 153.565 208.652C159.35 208.839 164.884 208.853 169.851 208.1C174.249 207.451 178.595 206.492 182.857 205.229C186.497 204.181 189.382 203.111 191.363 202.358C192.354 201.97 193.114 201.64 193.624 201.439L194.414 201.145Z" fill="white"/>
<path d="M205.41 208.166C205.371 208.194 205.327 208.216 205.281 208.23L204.901 208.367C204.57 208.489 204.089 208.646 203.465 208.819C201.893 209.267 200.269 209.509 198.634 209.536C196.997 209.538 195.369 209.296 193.804 208.819C193.201 208.639 192.72 208.474 192.368 208.345L191.995 208.194L191.866 208.13H192.009L192.39 208.252C192.72 208.367 193.201 208.517 193.825 208.682C195.388 209.118 197.004 209.335 198.627 209.328C200.253 209.282 201.868 209.041 203.436 208.611C204.032 208.445 204.52 208.309 204.872 208.201L205.252 208.094L205.41 208.166Z" fill="white"/>
<path d="M182.764 228.479C182.764 228.479 179.319 229.196 173.699 230.043C170.885 230.467 167.526 230.883 163.786 231.256C160.047 231.63 155.891 231.91 151.584 232.075C147.277 232.24 143.114 232.225 139.382 232.146C135.649 232.067 132.204 231.866 129.405 231.651C123.734 231.22 120.253 230.747 120.253 230.747L120.885 230.797L122.708 230.976C124.287 231.141 126.577 231.342 129.412 231.543C132.247 231.744 135.628 231.909 139.382 232.003C143.136 232.096 147.277 232.075 151.584 231.924C155.891 231.773 160.032 231.464 163.786 231.12C167.54 230.775 170.885 230.345 173.699 229.936C176.512 229.526 178.781 229.168 180.345 228.888L182.147 228.572L182.764 228.479Z" fill="white"/>
<path d="M210.873 226.44H210.614H209.896C209.243 226.44 208.303 226.44 207.14 226.44C204.815 226.44 201.599 226.346 198.067 226.045C194.536 225.743 191.342 225.262 189.059 224.846C187.911 224.645 186.992 224.458 186.353 224.322L185.635 224.164L185.384 224.1H185.643L186.36 224.229L189.066 224.71C191.356 225.097 194.536 225.557 198.067 225.858C201.599 226.16 204.815 226.26 207.133 226.296H209.889H210.607L210.873 226.44Z" fill="white"/>
<path d="M175.034 256.026C175.034 256.026 174.826 256.069 174.445 256.12L172.751 256.356C172.033 256.464 171.115 256.586 170.06 256.658C169.004 256.73 167.813 256.873 166.471 256.895C165.128 256.916 163.693 257.017 162.164 256.988C161.382 256.988 160.578 256.988 159.745 256.988L157.183 256.902C153.673 256.766 149.825 256.5 145.791 256.184C141.758 255.868 137.896 255.466 134.415 255.258C130.933 255.05 127.761 254.892 125.084 254.935H123.196L121.509 255.021C120.461 255.064 119.55 255.115 118.817 255.208L117.116 255.373L116.521 255.423C116.521 255.423 116.729 255.387 117.116 255.344L118.81 255.143C119.528 255.043 120.454 254.993 121.509 254.935L123.196 254.842H125.084C127.739 254.792 130.905 254.921 134.415 255.136C137.925 255.351 141.758 255.71 145.791 256.048C149.825 256.385 153.687 256.665 157.175 256.816L159.731 256.909C160.563 256.909 161.367 256.909 162.15 256.909C163.707 256.909 165.157 256.873 166.456 256.837C167.755 256.801 168.976 256.679 170.045 256.615C171.115 256.55 171.998 256.443 172.737 256.342L174.431 256.134L175.034 256.026Z" fill="white"/>
<path d="M217.275 247.6L216.959 247.65L216.04 247.743C215.251 247.83 214.095 247.923 212.674 248.023C209.803 248.217 205.876 248.354 201.519 248.246C197.163 248.138 193.222 247.779 190.387 247.435C188.951 247.263 187.824 247.105 187.035 246.983L186.13 246.839L185.814 246.774L186.13 246.81L187.042 246.925C187.831 247.033 188.98 247.176 190.401 247.334C193.236 247.65 197.163 247.98 201.519 248.095C205.876 248.21 209.817 248.095 212.667 247.916C214.102 247.837 215.243 247.751 216.04 247.686L216.952 247.614L217.275 247.6Z" fill="white"/>
<path d="M217.784 273.684L216.736 273.626C216.019 273.626 215.035 273.483 213.729 273.447C211.116 273.311 207.333 273.282 202.661 273.512C197.988 273.741 192.454 274.294 186.324 275.105C180.194 275.916 173.476 276.971 166.42 277.861C159.756 278.76 153.046 279.271 146.322 279.39C140.84 279.484 135.361 279.087 129.95 278.206C126.303 277.604 122.713 276.697 119.219 275.493C118.595 275.299 118.056 275.091 117.59 274.904L116.398 274.43C115.759 274.179 115.429 274.036 115.429 274.036L116.413 274.402L117.604 274.861C118.071 275.048 118.616 275.249 119.241 275.442C122.738 276.623 126.327 277.511 129.971 278.098C135.377 278.962 140.849 279.349 146.322 279.254C153.046 279.119 159.756 278.596 166.42 277.689C173.49 276.778 180.209 275.73 186.346 274.94C192.483 274.15 198.002 273.619 202.661 273.382C206.348 273.194 210.042 273.194 213.729 273.382C216.342 273.533 217.784 273.684 217.784 273.684Z" fill="white"/>
<path d="M178.314 300.486C178.314 300.486 174.861 301.075 169.234 301.678C166.427 301.979 163.068 302.252 159.336 302.467C155.603 302.682 151.483 302.783 147.17 302.761C142.856 302.74 138.743 302.539 135.01 302.295C131.278 302.051 127.926 301.706 125.119 301.362C119.499 300.644 116.061 300.041 116.061 300.041L116.693 300.12L118.494 300.386C119.27 300.508 120.231 300.644 121.365 300.78C122.5 300.917 123.748 301.11 125.148 301.254C127.962 301.584 131.314 301.9 135.039 302.158C138.764 302.417 142.877 302.568 147.191 302.611C151.505 302.654 155.618 302.517 159.35 302.331C163.083 302.144 166.435 301.864 169.248 301.57C170.684 301.441 171.926 301.276 173.038 301.154C174.151 301.032 175.113 300.902 175.909 300.795L177.711 300.558L178.314 300.486Z" fill="white"/>
<path d="M217.383 295.347C217.383 295.347 217.246 295.397 216.995 295.469L215.897 295.806C214.935 296.093 213.543 296.488 211.813 296.954C208.36 297.88 203.544 299.029 198.175 300.012C192.806 300.996 187.889 301.634 184.329 301.993C182.549 302.173 181.106 302.295 180.109 302.367L178.96 302.445H178.558L178.953 302.395L180.101 302.288C181.099 302.201 182.542 302.058 184.315 301.864C187.904 301.476 192.777 300.83 198.146 299.847C203.515 298.864 208.324 297.73 211.784 296.825C213.514 296.38 214.906 296 215.868 295.727L216.981 295.418L217.383 295.347Z" fill="white"/>
<path d="M150.931 330.41C149.081 330.698 147.217 330.882 145.346 330.963C143.616 331.056 141.549 331.064 139.252 330.963C134.275 330.725 129.343 329.898 124.559 328.501C122.356 327.848 120.404 327.166 118.817 326.513C117.077 325.822 115.373 325.041 113.714 324.173L114.073 324.331L115.085 324.797C115.523 325.005 116.061 325.257 116.7 325.515C117.339 325.773 118.042 326.104 118.853 326.405C120.461 327.051 122.442 327.719 124.595 328.365C126.987 329.04 129.411 329.591 131.859 330.016C134.311 330.403 136.781 330.667 139.26 330.805C141.549 330.906 143.609 330.913 145.339 330.805C146.208 330.805 146.99 330.712 147.679 330.669C148.368 330.626 148.95 330.561 149.438 330.511L150.543 330.396L150.931 330.41Z" fill="white"/>
<path d="M219.981 328.579L219.263 328.708L217.21 329.038C215.43 329.318 212.846 329.713 209.652 330.165C203.264 331.077 194.414 332.211 184.616 333.187C174.818 334.163 165.911 334.781 159.494 335.14C156.271 335.319 153.658 335.448 151.857 335.52L149.782 335.599H149.064L149.782 335.556L151.857 335.448L159.487 335.025C165.947 334.637 174.818 333.991 184.609 333.022C194.399 332.053 203.271 330.933 209.645 330.051L217.21 328.967L219.263 328.665L219.981 328.579Z" fill="white"/>
<path d="M223.742 355.015C223.742 355.015 222.178 355.345 219.314 355.812C216.45 356.278 212.301 356.859 207.111 357.29C201.06 357.783 194.985 357.932 188.916 357.735C182.061 357.513 174.56 356.745 166.715 355.783C158.87 354.821 151.39 353.852 144.564 353.321C138.519 352.8 132.446 352.663 126.383 352.912C122.289 353.102 118.212 353.568 114.181 354.304C112.745 354.577 111.654 354.807 110.915 354.986L109.781 355.244C109.781 355.244 110.168 355.137 110.908 354.957C111.647 354.778 112.745 354.534 114.166 354.24C118.195 353.478 122.273 352.998 126.369 352.804C132.433 352.532 138.509 352.654 144.557 353.17C151.398 353.701 158.87 354.67 166.715 355.632C174.56 356.594 182.061 357.362 188.909 357.584C194.972 357.791 201.042 357.655 207.09 357.175C212.251 356.759 216.421 356.192 219.292 355.74C220.728 355.51 221.833 355.331 222.587 355.194L223.742 355.015Z" fill="white"/>
<path d="M244.802 207.533C244.802 207.533 244.594 208.1 244.127 209.091C243.454 210.483 242.672 211.82 241.787 213.089C240.471 214.964 239.032 216.751 237.48 218.436C235.743 220.36 233.748 222.384 231.738 224.58C229.819 226.624 228.067 228.817 226.498 231.141C225.221 233.04 224.186 235.092 223.419 237.249C222.896 238.719 222.556 240.247 222.407 241.8C222.335 242.338 222.357 242.769 222.335 243.056C222.314 243.343 222.335 243.494 222.335 243.494C222.316 242.926 222.331 242.358 222.378 241.793C222.501 240.246 222.822 238.722 223.333 237.256C224.09 235.087 225.12 233.022 226.398 231.112C227.966 228.776 229.721 226.57 231.645 224.516C233.669 222.327 235.672 220.302 237.387 218.386C238.935 216.707 240.374 214.931 241.694 213.067C242.588 211.811 243.382 210.486 244.07 209.105C244.328 208.617 244.479 208.222 244.608 207.964C244.737 207.705 244.802 207.533 244.802 207.533Z" fill="white"/>
<path d="M211.741 219.901L211.985 219.721L212.703 219.233C213.334 218.824 214.217 218.192 215.279 217.374C216.342 216.556 217.569 215.536 218.868 214.331C220.268 213.016 221.598 211.629 222.852 210.175C224.09 208.704 225.252 207.171 226.333 205.581C227.309 204.102 228.135 202.71 228.766 201.554C229.398 200.399 229.886 199.401 230.202 198.683L230.568 197.901L230.704 197.628C230.166 198.986 229.552 200.314 228.867 201.604C228.242 202.796 227.431 204.174 226.448 205.653C225.378 207.255 224.218 208.796 222.974 210.268C221.717 211.729 220.38 213.118 218.969 214.431C217.655 215.63 216.428 216.656 215.38 217.46C214.214 218.341 212.999 219.156 211.741 219.901Z" fill="white"/>
<path d="M160.441 253.464C160.494 253.429 160.553 253.402 160.614 253.385L161.13 253.184C161.597 253.026 162.25 252.739 163.09 252.351C165.425 251.175 167.567 249.65 169.442 247.829C172.208 245.114 174.648 242.086 176.713 238.807C179.306 234.827 181.674 230.706 183.805 226.461C187.629 218.721 190.984 210.758 193.854 202.616C194.981 199.501 195.857 196.96 196.474 195.216L197.192 193.199C197.271 192.984 197.335 192.819 197.385 192.675C197.436 192.532 197.457 192.503 197.457 192.503C197.454 192.566 197.442 192.629 197.421 192.69C197.378 192.833 197.321 193.005 197.256 193.221C197.105 193.716 196.89 194.398 196.61 195.259C196.043 197.025 195.175 199.566 194.098 202.703C191.293 210.885 187.958 218.877 184.114 226.626C181.979 230.883 179.599 235.012 176.986 238.993C174.89 242.281 172.414 245.309 169.607 248.016C167.705 249.836 165.525 251.341 163.147 252.473C162.5 252.772 161.837 253.034 161.159 253.256L160.628 253.421C160.568 253.444 160.505 253.459 160.441 253.464Z" fill="#455A64"/>
<path d="M159.243 268.652C159.361 268.539 159.491 268.438 159.63 268.351L160.793 267.554C161.791 266.836 163.234 265.824 164.971 264.496C168.452 261.848 173.024 257.893 177.934 253.378C180.403 251.124 182.764 248.992 184.803 246.954C186.625 245.162 188.319 243.243 189.87 241.212C190.911 239.837 191.837 238.38 192.641 236.855C192.942 236.324 193.129 235.886 193.273 235.599C193.341 235.449 193.42 235.305 193.509 235.168C193.473 235.33 193.418 235.486 193.344 235.635C193.215 235.929 193.05 236.352 192.763 236.919C192.006 238.481 191.105 239.968 190.071 241.362C188.548 243.431 186.868 245.38 185.047 247.191C183.008 249.258 180.654 251.397 178.185 253.651C174.023 257.554 169.665 261.243 165.128 264.705C163.37 266.018 161.906 267.009 160.872 267.676C160.362 268.013 159.953 268.25 159.681 268.394C159.541 268.49 159.394 268.576 159.243 268.652Z" fill="#455A64"/>
<path d="M139.863 345.389L139.949 345.224C140.028 345.109 140.121 344.958 140.236 344.772C140.487 344.37 140.875 343.796 141.392 343.064C142.432 341.628 144.033 339.568 146.143 337.171C150.4 332.39 156.357 325.88 162.925 318.666L179.8 300.255L184.946 294.7L186.382 293.199L186.755 292.819C186.841 292.733 186.884 292.69 186.892 292.697C186.899 292.704 186.856 292.747 186.784 292.841L186.432 293.25L185.083 294.793C183.863 296.142 182.14 298.066 180.022 300.42L163.219 318.91L146.323 337.336C144.169 339.712 142.562 341.721 141.492 343.15C140.954 343.867 140.552 344.427 140.279 344.808L139.97 345.246C139.942 345.299 139.906 345.347 139.863 345.389Z" fill="#455A64"/>
<path d="M206.874 216.384C206.758 216.028 206.669 215.663 206.609 215.293C206.53 214.941 206.444 214.503 206.379 213.994C206.314 213.484 206.207 212.903 206.178 212.257C206.149 211.611 206.07 210.9 206.078 210.103C206.085 209.307 206.078 208.524 206.135 207.663C206.384 203.943 207.293 200.297 208.82 196.896C209.186 196.121 209.537 195.382 209.911 194.743C210.284 194.104 210.628 193.465 210.994 192.92C211.36 192.374 211.712 191.893 211.985 191.484C212.236 191.123 212.507 190.775 212.796 190.443C213.014 190.146 213.254 189.865 213.514 189.604C213.328 189.93 213.114 190.24 212.875 190.529C212.66 190.817 212.394 191.168 212.121 191.599C211.849 192.03 211.497 192.496 211.181 193.034C210.865 193.573 210.463 194.19 210.14 194.865C209.817 195.54 209.422 196.3 209.092 197.018C207.61 200.403 206.712 204.014 206.436 207.699C206.393 208.546 206.329 209.35 206.343 210.103C206.358 210.857 206.343 211.539 206.401 212.206C206.458 212.874 206.501 213.427 206.551 213.936C206.602 214.446 206.659 214.884 206.716 215.243C206.806 215.617 206.859 215.999 206.874 216.384Z" fill="#455A64"/>
<path d="M217.318 242.137C217.232 242.137 215.94 239.324 214.447 235.764C212.954 232.203 211.805 229.304 211.891 229.246C212.955 231.321 213.913 233.448 214.762 235.62C215.728 237.746 216.581 239.922 217.318 242.137Z" fill="#455A64"/>
<path d="M114.74 219.376C114.683 219.412 114.123 218.386 113.068 216.828C110.312 212.762 106.75 209.305 102.603 206.672C101.017 205.667 99.9758 205.136 100.004 205.078C100.269 205.155 100.524 205.261 100.765 205.394C101.246 205.616 101.921 205.975 102.739 206.456C104.864 207.724 106.834 209.234 108.611 210.957C110.383 212.685 111.951 214.612 113.283 216.699C113.786 217.503 114.166 218.17 114.403 218.644C114.54 218.876 114.653 219.121 114.74 219.376Z" fill="#455A64"/>
<path d="M142.913 202.408C142.871 202.171 142.871 201.928 142.913 201.691C143.035 200.342 143.615 199.075 144.557 198.102L144.6 198.059V198.109C144.651 198.209 144.689 198.315 144.715 198.425C144.715 198.425 144.636 198.331 144.535 198.145H144.6C144.134 198.695 143.754 199.312 143.473 199.975C143.174 200.756 142.986 201.575 142.913 202.408Z" fill="#455A64"/>
<path d="M152.417 207.347C152.326 207.118 152.275 206.876 152.266 206.629C152.204 206.041 152.218 205.448 152.309 204.864C152.401 204.28 152.567 203.711 152.804 203.17C152.89 202.942 153.011 202.729 153.163 202.538C152.84 203.295 152.599 204.084 152.446 204.892C152.349 205.707 152.339 206.53 152.417 207.347Z" fill="#455A64"/>
<path d="M162.774 206.514C162.74 205.845 162.649 205.18 162.501 204.526C162.301 203.883 162.039 203.26 161.719 202.667C161.863 202.808 161.984 202.97 162.078 203.148C162.326 203.565 162.517 204.014 162.645 204.483C162.769 204.952 162.834 205.434 162.838 205.919C162.851 206.119 162.83 206.321 162.774 206.514Z" fill="#455A64"/>
<path d="M171.833 202.545C171.527 201.907 171.167 201.297 170.756 200.722C170.296 200.185 169.792 199.688 169.249 199.236C169.443 199.316 169.625 199.425 169.787 199.559C170.192 199.868 170.556 200.228 170.871 200.629C171.183 201.032 171.444 201.474 171.646 201.942C171.74 202.132 171.803 202.336 171.833 202.545Z" fill="#455A64"/>
<path d="M178.07 196.393C177.839 195.638 177.41 194.959 176.828 194.427C176.223 193.923 175.49 193.597 174.71 193.486C174.71 193.486 174.782 193.486 174.904 193.486C175.076 193.492 175.246 193.514 175.414 193.551C175.974 193.684 176.493 193.95 176.928 194.326C177.365 194.7 177.703 195.176 177.912 195.711C177.979 195.87 178.027 196.036 178.055 196.207C178.068 196.268 178.073 196.331 178.07 196.393Z" fill="#455A64"/>
<path d="M181.408 185.032C180.856 184.59 180.21 184.281 179.52 184.127C178.82 184.02 178.104 184.079 177.431 184.3C178.08 183.961 178.822 183.847 179.542 183.977C180.262 184.107 180.919 184.473 181.408 185.017V185.032Z" fill="#455A64"/>
<path d="M136.683 194.75C136.696 194.537 136.747 194.328 136.833 194.132C137.215 193.171 137.939 192.384 138.865 191.922C139.052 191.82 139.256 191.752 139.468 191.721C138.817 192.002 138.233 192.418 137.753 192.939C137.274 193.461 136.909 194.078 136.683 194.75Z" fill="#455A64"/>
<path d="M134.415 187.184C134.501 186.974 134.622 186.78 134.773 186.61C135.11 186.172 135.514 185.791 135.972 185.483C136.43 185.168 136.934 184.926 137.465 184.765C137.68 184.69 137.905 184.651 138.133 184.65C136.641 185.034 135.327 185.921 134.415 187.163V187.184Z" fill="#455A64"/>
<path d="M116.571 231.299C116.571 231.299 116.571 231.256 116.528 231.299C116.498 231.373 116.476 231.45 116.463 231.529C116.427 231.751 116.392 232.074 116.348 232.498C116.262 233.338 116.169 234.558 116.069 236.087C115.86 239.109 115.623 243.265 115.401 247.909C115.178 252.553 115.006 256.709 114.906 259.738C114.855 261.173 114.82 262.422 114.791 263.327C114.791 263.714 114.791 264.044 114.748 264.303C114.758 264.415 114.758 264.528 114.748 264.64C114.716 264.531 114.704 264.416 114.712 264.303C114.712 264.037 114.712 263.714 114.712 263.327C114.712 262.48 114.712 261.252 114.712 259.738C114.712 256.709 114.87 252.517 115.1 247.894C115.329 243.272 115.602 239.094 115.875 236.072C116.011 234.558 116.147 233.338 116.277 232.484C116.341 232.067 116.406 231.766 116.463 231.522C116.483 231.435 116.517 231.353 116.564 231.278C116.564 231.213 116.585 231.314 116.571 231.299Z" fill="#263238"/>
<path d="M195.656 86.315C189.669 84.4847 183.453 89.8465 177.28 88.6406C173.548 87.9229 170.734 84.9297 167.411 83.0779C162.451 80.3072 155.431 79.855 150.364 82.4319C145.296 85.0087 142.016 87.7506 141.334 93.3995C136.719 90.7509 129.024 96.5577 126.404 102.164C123.784 107.769 124.438 113.555 125.923 119.562C128.505 129.924 133.094 139.679 139.432 148.274C139.992 149.034 140.868 149.874 141.736 149.472C142.004 149.285 142.224 149.037 142.378 148.749C142.533 148.461 142.618 148.141 142.626 147.814C143.509 142.323 142.813 136.717 142.332 131.176C141.851 125.635 141.614 119.921 143.373 114.667C145.131 109.413 149.258 104.575 154.713 103.499C158.747 102.702 162.932 104.008 166.514 106.025C170.095 108.042 173.246 110.727 176.656 113.016C180.065 115.306 183.898 117.237 188.004 117.409C192.11 117.581 196.517 115.658 198.261 111.94C200.005 108.222 198.053 102.939 194.033 102.085C195.905 101.921 197.661 101.11 199 99.7909C200.339 98.4722 201.176 96.7284 201.368 94.8592C201.56 92.99 201.095 91.1123 200.052 89.5491C199.01 87.9858 197.455 86.8346 195.656 86.2935V86.315Z" fill="#263238"/>
<path d="M177.187 182.605L176.605 170.74C176.605 170.74 192.267 167.74 191.916 151.985C191.743 144.384 190.107 128.743 188.47 114.61C187.626 107.275 184.05 100.528 178.454 95.7126C172.857 90.8971 165.652 88.367 158.273 88.6266L156.752 88.6768C140.408 90.2129 132.57 104.956 134.558 121.257L138.326 184.708C138.63 189.84 140.952 194.642 144.785 198.068C148.617 201.493 153.65 203.263 158.783 202.99C163.922 202.715 168.744 200.416 172.193 196.596C175.641 192.776 177.437 187.746 177.187 182.605Z" fill="#FFBE9D"/>
<path d="M176.627 170.741C176.627 170.741 166.7 171.896 155.891 165.623C155.891 165.623 161.145 176.792 176.807 174.818L176.627 170.741Z" fill="#EB996E"/>
<path d="M183.166 125.269C183.19 125.854 182.985 126.425 182.595 126.862C182.206 127.299 181.661 127.566 181.077 127.609C180.792 127.642 180.503 127.617 180.227 127.536C179.952 127.456 179.695 127.321 179.472 127.14C179.25 126.959 179.066 126.735 178.931 126.481C178.796 126.228 178.713 125.95 178.687 125.664C178.659 125.078 178.861 124.505 179.25 124.067C179.639 123.628 180.184 123.359 180.769 123.317C181.055 123.283 181.345 123.307 181.622 123.387C181.899 123.468 182.157 123.603 182.381 123.785C182.604 123.967 182.789 124.193 182.924 124.447C183.059 124.702 183.141 124.982 183.166 125.269Z" fill="#263238"/>
<path d="M185.356 122.405C185.083 122.706 183.339 121.508 180.92 121.601C178.501 121.694 176.771 122.965 176.498 122.678C176.362 122.548 176.627 122.01 177.381 121.421C178.401 120.658 179.632 120.23 180.905 120.194C182.165 120.144 183.407 120.499 184.451 121.206C185.219 121.744 185.485 122.268 185.356 122.405Z" fill="#263238"/>
<path d="M159.393 126.956C159.419 127.542 159.215 128.116 158.825 128.554C158.435 128.992 157.89 129.261 157.304 129.303C157.019 129.336 156.73 129.312 156.455 129.231C156.179 129.15 155.922 129.016 155.7 128.834C155.477 128.653 155.293 128.429 155.158 128.176C155.023 127.922 154.94 127.644 154.914 127.358C154.888 126.772 155.092 126.199 155.482 125.761C155.872 125.322 156.418 125.054 157.003 125.011C157.288 124.978 157.577 125.003 157.853 125.084C158.128 125.164 158.385 125.299 158.608 125.48C158.831 125.661 159.015 125.885 159.15 126.139C159.285 126.392 159.367 126.67 159.393 126.956Z" fill="#263238"/>
<path d="M161.583 123.69C161.317 123.991 159.566 122.793 157.147 122.886C154.728 122.979 152.998 124.25 152.725 123.963C152.589 123.833 152.854 123.295 153.608 122.706C154.631 121.943 155.864 121.515 157.14 121.479C158.397 121.43 159.637 121.785 160.678 122.491C161.446 123.037 161.719 123.553 161.583 123.69Z" fill="#263238"/>
<path d="M170.993 141.312C170.993 141.168 172.471 140.86 174.897 140.465C175.515 140.379 176.096 140.235 176.189 139.804C176.215 139.164 176.047 138.532 175.708 137.988C175.077 136.517 174.416 134.967 173.72 133.352C170.942 126.741 168.911 121.293 169.184 121.149C169.456 121.006 171.911 126.31 174.682 132.921C175.357 134.548 175.995 136.105 176.598 137.594C177.013 138.325 177.158 139.178 177.008 140.005C176.925 140.226 176.794 140.426 176.624 140.589C176.454 140.751 176.249 140.874 176.024 140.946C175.684 141.051 175.332 141.111 174.976 141.125C172.529 141.405 171.007 141.47 170.993 141.312Z" fill="#263238"/>
<path d="M163.93 143.256C164.324 143.213 164.425 145.84 166.736 147.628C169.047 149.415 171.832 149.027 171.868 149.393C171.911 149.558 171.265 149.925 170.081 149.996C168.534 150.083 167.007 149.614 165.774 148.676C164.609 147.775 163.837 146.458 163.621 145.001C163.485 143.902 163.75 143.242 163.93 143.256Z" fill="#263238"/>
<path d="M161.396 111.287C161.181 111.947 158.754 111.725 155.926 112.162C153.098 112.6 150.83 113.462 150.435 112.88C150.256 112.6 150.629 111.969 151.534 111.301C152.741 110.474 154.122 109.934 155.57 109.723C157.018 109.511 158.495 109.634 159.889 110.081C160.936 110.447 161.482 110.971 161.396 111.287Z" fill="#263238"/>
<path d="M184.221 115.471C183.812 116.031 182.125 115.522 180.123 115.565C178.12 115.608 176.433 116.067 176.017 115.5C175.838 115.227 176.089 114.668 176.814 114.122C177.778 113.447 178.931 113.093 180.108 113.11C181.281 113.069 182.437 113.392 183.417 114.036C184.142 114.603 184.401 115.156 184.221 115.471Z" fill="#263238"/>
<path d="M136.274 132.871C136.001 132.763 125.342 130.05 126.06 140.766C126.777 151.483 137.429 148.576 137.429 148.267C137.429 147.958 136.274 132.871 136.274 132.871Z" fill="#FFBE9D"/>
<path d="M133.848 144.448C133.798 144.448 133.668 144.591 133.36 144.756C132.933 144.986 132.432 145.038 131.967 144.9C130.797 144.555 129.721 142.818 129.541 140.88C129.452 139.961 129.57 139.034 129.886 138.167C129.962 137.823 130.122 137.503 130.351 137.235C130.58 136.968 130.871 136.76 131.199 136.631C131.411 136.559 131.641 136.563 131.849 136.643C132.058 136.723 132.231 136.874 132.34 137.069C132.506 137.363 132.448 137.578 132.506 137.593C132.563 137.607 132.728 137.399 132.606 136.961C132.528 136.699 132.363 136.472 132.139 136.315C131.827 136.114 131.449 136.042 131.084 136.114C130.649 136.23 130.25 136.456 129.927 136.77C129.604 137.084 129.367 137.476 129.24 137.909C128.846 138.872 128.693 139.916 128.795 140.952C129.01 143.105 130.23 145.065 131.838 145.409C132.132 145.475 132.437 145.473 132.73 145.405C133.023 145.336 133.297 145.203 133.532 145.015C133.848 144.713 133.884 144.469 133.848 144.448Z" fill="#EB996E"/>
<path d="M191.686 111.164C188.23 112.182 184.582 112.364 181.042 111.696C177.502 111.029 174.171 109.53 171.323 107.324C167.375 104.209 164.26 99.6441 159.408 98.3306C157.755 97.9529 156.043 97.9075 154.372 98.197C152.701 98.4866 151.104 99.1054 149.675 100.017C146.821 101.855 144.378 104.262 142.497 107.087C145.82 114.983 144.09 123.991 142.31 132.368C142.212 133.319 141.801 134.21 141.14 134.901C139.906 135.921 137.968 135.224 136.834 134.105C134.989 132.303 134.207 129.697 133.668 127.185C132.335 121.459 132.157 115.525 133.144 109.729C134.155 103.913 136.85 98.5225 140.896 94.2249C146.164 88.9996 153.259 86.029 160.678 85.9417C168.059 85.9106 175.262 88.2061 181.264 92.5022C184.049 94.4546 186.633 96.8089 188.14 99.8881" fill="#263238"/>
<path d="M200.306 89.9545C200.352 90.269 200.33 90.5895 200.242 90.8948C200.014 91.7833 199.512 92.5772 198.806 93.163C197.675 94.0681 196.285 94.5909 194.837 94.6559C193.947 94.7347 193.051 94.7106 192.167 94.5842C191.151 94.4474 190.191 94.0381 189.389 93.3998C188.938 93.0429 188.574 92.5878 188.325 92.0692C188.077 91.5505 187.949 90.9819 187.954 90.4067C188.01 89.7806 188.243 89.1832 188.623 88.683C189.004 88.1828 189.518 87.8 190.107 87.5787C190.717 87.3251 191.378 87.217 192.038 87.2628C192.724 87.3309 193.375 87.5978 193.911 88.0309C194.45 88.4867 194.885 89.0536 195.184 89.6929C195.484 90.3321 195.642 91.0286 195.648 91.7346C195.674 93.2244 195.115 94.6649 194.091 95.747C193.045 96.8537 191.725 97.6636 190.265 98.0941C187.308 99.02 184.006 98.575 181.034 97.4194C178.151 96.234 175.415 94.719 172.88 92.9046C170.544 91.2481 168.074 89.7907 165.494 88.5477C163.17 87.438 160.611 86.9085 158.037 87.0044C155.805 87.1669 153.636 87.8188 151.684 88.9137C148.839 90.534 146.456 92.857 144.765 95.6608C144.286 96.4047 143.847 97.1738 143.451 97.9649C143.33 98.2519 143.188 98.5301 143.028 98.7975C143.041 98.718 143.065 98.6407 143.1 98.5678C143.15 98.4243 143.229 98.2018 143.351 97.9218C143.699 97.0954 144.104 96.2943 144.564 95.5245C146.21 92.6322 148.592 90.2275 151.469 88.5548C153.474 87.4144 155.708 86.7352 158.008 86.5666C160.659 86.4428 163.3 86.9676 165.702 88.0955C168.32 89.3499 170.827 90.8243 173.196 92.5026C175.696 94.2869 178.391 95.7823 181.228 96.96C184.135 98.0797 187.308 98.5104 190.121 97.6347C191.49 97.2067 192.723 96.4271 193.696 95.3737C194.622 94.4094 195.137 93.1222 195.131 91.7848C195.132 91.1485 194.994 90.5196 194.729 89.9411C194.464 89.3626 194.077 88.8481 193.595 88.4328C193.129 88.0641 192.57 87.8309 191.98 87.7587C191.39 87.6865 190.792 87.7782 190.25 88.0237C189.73 88.2064 189.271 88.5324 188.927 88.964C188.583 89.3957 188.367 89.9156 188.305 90.4641C188.305 90.9792 188.421 91.4877 188.643 91.9523C188.865 92.4168 189.189 92.8256 189.59 93.1486C190.341 93.7479 191.238 94.1369 192.188 94.2755C193.048 94.4097 193.919 94.4458 194.787 94.3832C196.211 94.3519 197.588 93.8694 198.72 93.0051C199.401 92.4453 199.901 91.6959 200.156 90.8517C200.225 90.5561 200.275 90.2565 200.306 89.9545Z" fill="#455A64"/>
<path d="M124.789 111.502C125.87 111.843 126.98 112.084 128.105 112.22C129.323 112.285 130.541 112.115 131.694 111.717C133.11 111.215 134.447 110.511 135.663 109.629C137.861 107.989 139.466 105.679 140.236 103.047C140.505 101.941 140.704 100.819 140.831 99.6875C140.91 99.992 140.939 100.307 140.918 100.621C140.915 101.473 140.806 102.322 140.595 103.147C139.907 105.922 138.272 108.369 135.972 110.067C134.715 110.991 133.323 111.718 131.845 112.22C130.627 112.621 129.338 112.76 128.062 112.629C127.211 112.531 126.379 112.309 125.593 111.969C125.3 111.862 125.027 111.704 124.789 111.502Z" fill="#455A64"/>
<path d="M125.55 119.276C125.55 119.176 126.828 119.412 128.859 119.226C131.5 119.001 134.031 118.071 136.189 116.533C138.347 114.995 140.052 112.906 141.126 110.483C141.966 108.624 142.152 107.354 142.253 107.375C142.273 107.677 142.243 107.98 142.167 108.272C142.009 109.08 141.769 109.869 141.449 110.627C140.438 113.172 138.715 115.373 136.486 116.965C134.257 118.558 131.617 119.474 128.881 119.606C128.061 119.649 127.239 119.61 126.426 119.491C126.125 119.466 125.829 119.393 125.55 119.276Z" fill="#455A64"/>
<path d="M153.903 134.263C153.867 134.27 153.83 134.27 153.794 134.263C153.758 134.255 153.724 134.241 153.694 134.22C153.664 134.199 153.638 134.173 153.618 134.142C153.599 134.111 153.586 134.076 153.58 134.04C153.567 134.006 153.563 133.969 153.566 133.932C153.569 133.895 153.579 133.859 153.597 133.827C153.615 133.795 153.639 133.766 153.668 133.744C153.697 133.721 153.73 133.705 153.766 133.696C153.837 133.689 153.908 133.707 153.966 133.749C154.024 133.79 154.065 133.851 154.082 133.92C154.099 133.989 154.09 134.062 154.057 134.125C154.024 134.188 153.969 134.237 153.903 134.263Z" fill="#EB996E"/>
<path d="M158.525 133.05C158.447 133.049 158.372 133.023 158.312 132.974C158.251 132.926 158.209 132.858 158.191 132.783C158.174 132.707 158.183 132.628 158.216 132.558C158.249 132.488 158.305 132.431 158.374 132.397C158.453 132.39 158.532 132.414 158.595 132.463C158.657 132.512 158.699 132.583 158.711 132.662C158.737 132.738 158.732 132.821 158.697 132.894C158.662 132.966 158.6 133.022 158.525 133.05Z" fill="#EB996E"/>
<path d="M161.604 132.863C161.453 132.863 161.309 132.712 161.266 132.476C161.223 132.239 161.317 132.023 161.46 132.002C161.604 131.98 161.755 132.153 161.798 132.389C161.841 132.626 161.747 132.842 161.604 132.863Z" fill="#EB996E"/>
<path d="M156.278 137.083C156.135 137.083 156.005 137.019 156.005 136.926C156.005 136.832 156.12 136.746 156.264 136.746C156.407 136.746 156.537 136.811 156.537 136.904C156.537 136.997 156.429 137.076 156.278 137.083Z" fill="#EB996E"/>
<path d="M160.485 135.95C160.41 135.954 160.336 135.928 160.28 135.878C160.223 135.829 160.189 135.759 160.183 135.684C160.176 135.647 160.176 135.609 160.184 135.571C160.191 135.534 160.206 135.499 160.228 135.468C160.249 135.436 160.276 135.409 160.308 135.389C160.34 135.368 160.375 135.354 160.413 135.347C160.488 135.345 160.562 135.372 160.618 135.423C160.674 135.474 160.709 135.544 160.714 135.62C160.727 135.694 160.71 135.77 160.667 135.832C160.624 135.893 160.558 135.936 160.485 135.95Z" fill="#EB996E"/>
<path d="M182.463 132.541C182.426 132.548 182.388 132.548 182.351 132.54C182.314 132.532 182.28 132.517 182.249 132.496C182.218 132.474 182.192 132.447 182.172 132.415C182.152 132.384 182.138 132.348 182.132 132.311C182.12 132.276 182.116 132.238 182.119 132.201C182.121 132.164 182.132 132.128 182.149 132.095C182.167 132.062 182.191 132.033 182.22 132.01C182.249 131.986 182.283 131.969 182.319 131.959C182.392 131.95 182.467 131.968 182.527 132.01C182.588 132.052 182.632 132.114 182.65 132.186C182.667 132.258 182.658 132.334 182.624 132.399C182.589 132.464 182.532 132.515 182.463 132.541Z" fill="#EB996E"/>
<path d="M185.6 132.145C185.521 132.138 185.448 132.105 185.391 132.05C185.334 131.996 185.298 131.924 185.288 131.846C185.278 131.768 185.295 131.689 185.336 131.622C185.377 131.555 185.439 131.504 185.513 131.478C185.657 131.478 185.793 131.592 185.822 131.772C185.84 131.851 185.827 131.933 185.785 132.003C185.744 132.072 185.677 132.123 185.6 132.145Z" fill="#EB996E"/>
<path d="M179.677 132.698C179.632 132.703 179.586 132.694 179.546 132.673C179.505 132.652 179.472 132.62 179.449 132.58C179.426 132.541 179.415 132.495 179.418 132.45C179.42 132.404 179.436 132.36 179.463 132.323C179.489 132.286 179.526 132.258 179.569 132.242C179.611 132.225 179.658 132.221 179.702 132.231C179.747 132.24 179.788 132.262 179.821 132.294C179.853 132.326 179.876 132.367 179.886 132.411C179.894 132.476 179.877 132.543 179.839 132.596C179.8 132.649 179.742 132.686 179.677 132.698Z" fill="#EB996E"/>
<path d="M182.125 135.792C182.053 135.816 181.975 135.813 181.906 135.782C181.837 135.752 181.782 135.696 181.752 135.627C181.733 135.594 181.72 135.558 181.715 135.52C181.71 135.482 181.713 135.444 181.723 135.407C181.733 135.37 181.75 135.336 181.774 135.306C181.797 135.276 181.826 135.251 181.86 135.232C181.93 135.214 182.005 135.222 182.072 135.253C182.138 135.284 182.191 135.337 182.222 135.403C182.254 135.469 182.261 135.544 182.243 135.615C182.226 135.686 182.184 135.749 182.125 135.792Z" fill="#EB996E"/>
<path d="M184.796 135.153C184.763 135.148 184.732 135.138 184.704 135.121C184.676 135.105 184.652 135.083 184.633 135.057C184.613 135.031 184.599 135.001 184.592 134.969C184.584 134.938 184.582 134.905 184.587 134.873C184.61 134.812 184.656 134.762 184.715 134.733C184.774 134.705 184.841 134.701 184.903 134.722C184.967 134.731 185.024 134.765 185.063 134.816C185.102 134.867 185.12 134.931 185.111 134.995C185.09 135.057 185.045 135.109 184.986 135.139C184.927 135.168 184.858 135.173 184.796 135.153Z" fill="#EB996E"/>
<path d="M179.469 314.038L179.297 298.081C179.297 298.081 168.652 283.331 172.837 267.332C172.837 267.332 179.778 262.451 198.39 265.308C198.39 265.308 221.754 242.547 253.07 248.339C284.387 254.132 287.301 281.415 287.602 288.844C287.904 296.273 287.832 310.7 277.051 324.804L276.333 338.801C276.333 338.801 273.764 344.069 266.335 343.711C258.906 343.352 259.322 342.275 259.322 342.275C259.322 342.275 249.991 349.804 249.589 351.771C249.187 353.738 247.723 361.196 247.723 361.196C247.723 361.196 244.486 365.596 237.502 366.112C234.739 366.308 231.976 365.742 229.513 364.476C228.578 364.003 227.748 363.349 227.069 362.551C226.39 361.754 225.876 360.83 225.558 359.832C224.89 357.622 223.763 355.579 222.25 353.836C220.737 352.093 218.873 350.69 216.779 349.718L211.956 348.455C211.956 348.455 210.011 350.228 203.242 350.953C196.473 351.678 196.445 349.281 196.445 349.281C196.445 349.281 185.915 351.714 178.005 341.385C171.76 333.217 168.365 318.524 179.469 314.038Z" fill="#1ACFD3"/>
<path d="M244.385 314.956C244.491 314.785 244.608 314.622 244.737 314.468C244.974 314.152 245.325 313.693 245.763 313.09C246.646 311.891 247.881 310.118 249.245 307.829C250.832 305.144 252.209 302.342 253.365 299.445C254.018 297.809 254.628 296.064 255.166 294.234C255.705 292.404 256.157 290.423 255.683 288.492C255.113 286.621 253.891 285.016 252.238 283.97C250.714 282.948 249.082 282.098 247.371 281.436C244.474 280.292 241.429 279.567 238.327 279.283C236.236 279.084 234.131 279.084 232.039 279.283C231.322 279.347 230.726 279.419 230.331 279.476C230.135 279.517 229.936 279.539 229.735 279.541C229.928 279.48 230.124 279.434 230.324 279.405C230.704 279.326 231.279 279.225 232.025 279.139C234.123 278.878 236.242 278.837 238.349 279.017C241.496 279.254 244.59 279.958 247.529 281.106C249.268 281.766 250.927 282.621 252.475 283.654C254.203 284.748 255.478 286.431 256.063 288.391C256.566 290.451 256.063 292.504 255.539 294.334C255.015 296.165 254.369 297.923 253.702 299.574C252.529 302.48 251.122 305.286 249.496 307.965C248.398 309.768 247.2 311.508 245.907 313.176C245.448 313.772 245.074 314.217 244.823 314.511C244.692 314.674 244.545 314.823 244.385 314.956Z" fill="#263238"/>
<path d="M200.601 266.004C200.655 266.12 200.692 266.243 200.709 266.37C200.778 266.737 200.795 267.111 200.759 267.483C200.578 268.856 199.947 270.131 198.964 271.107C197.794 272.399 196.014 273.454 194.277 274.876C192.375 276.406 190.618 278.11 189.03 279.965C186.14 283.337 183.808 287.152 182.125 291.263C181.479 292.842 181.056 294.134 180.769 295.067C180.647 295.49 180.539 295.842 180.453 296.122C180.424 296.246 180.38 296.366 180.324 296.481C180.325 296.352 180.344 296.224 180.381 296.1C180.453 295.813 180.532 295.462 180.632 295.024C180.974 293.716 181.391 292.429 181.881 291.169C183.503 286.99 185.826 283.118 188.75 279.721C190.352 277.85 192.131 276.139 194.062 274.61C195.835 273.174 197.615 272.162 198.778 270.928C199.741 269.998 200.385 268.787 200.615 267.468C200.663 266.981 200.658 266.49 200.601 266.004Z" fill="#263238"/>
<g opacity="0.5">
<path d="M213.119 267.956L222.644 270.39C222.644 270.39 236.59 254.72 251.908 250.751L246.166 249.395C233.578 252.233 222.093 258.684 213.119 267.956Z" fill="black"/>
</g>
<path d="M248.8 249.997C236.274 252.814 224.878 259.313 216.076 268.659L213.119 267.942C213.119 267.942 226.628 253.12 246.173 249.38L248.8 249.997Z" fill="#1ACFD3"/>
<g opacity="0.7">
<path d="M248.8 249.996C236.274 252.813 224.878 259.312 216.076 268.658L213.119 267.941C213.119 267.941 226.628 253.119 246.173 249.379L248.8 249.996Z" fill="black"/>
</g>
<path d="M174.869 317.289C180.144 309.738 193.38 312.05 199.417 318.84C205.453 325.63 208.13 334.976 204.204 343.029C202.525 346.467 199.309 349.489 195.483 349.417C197.392 347.276 198.76 344.708 199.472 341.93C200.183 339.151 200.219 336.242 199.575 333.447C198.347 327.812 194.794 322.838 190.301 319.22C188.026 317.383 185.463 315.366 182.549 315.079C179.635 314.792 177.302 314.705 174.869 317.289Z" fill="#1ACFD3"/>
<g opacity="0.3">
<path d="M174.869 317.289C180.144 309.738 193.38 312.05 199.417 318.84C205.453 325.63 208.13 334.976 204.204 343.029C202.525 346.467 199.309 349.489 195.483 349.417C197.392 347.276 198.76 344.708 199.472 341.93C200.183 339.151 200.219 336.242 199.575 333.447C198.347 327.812 194.794 322.838 190.301 319.22C188.026 317.383 185.463 315.366 182.549 315.079C179.635 314.792 177.302 314.705 174.869 317.289Z" fill="black"/>
</g>
<g opacity="0.3">
<path d="M244.916 314.511C244.816 316.112 246.28 317.526 247.867 317.713C248.668 317.761 249.468 317.618 250.203 317.296C250.938 316.974 251.586 316.482 252.094 315.861C253.094 314.606 253.826 313.16 254.248 311.612C255.898 306.436 256.753 298.691 255.884 293.358C253.602 300.299 249.525 308.956 244.794 314.526" fill="black"/>
</g>
<g opacity="0.3">
<path d="M249.919 290.644C248.893 287.608 245.749 285.835 242.742 284.787C239.657 283.711 236.436 283.078 233.174 282.907C232.147 282.795 231.109 282.895 230.123 283.201C229.634 283.36 229.193 283.642 228.843 284.018C228.493 284.395 228.244 284.855 228.12 285.354C228.056 285.764 228.119 286.184 228.301 286.556C228.484 286.929 228.776 287.236 229.14 287.436C234.341 293.456 238.222 300.501 240.531 308.115C240.629 308.45 240.815 308.752 241.071 308.99C241.326 309.227 241.641 309.392 241.982 309.465C242.324 309.539 242.678 309.519 243.009 309.407C243.34 309.296 243.634 309.098 243.861 308.833C246.302 306.048 247.709 302.294 248.972 298.734C249.876 296.121 250.809 293.264 249.919 290.644Z" fill="black"/>
</g>
<g opacity="0.3">
<path d="M181.293 292.044C178.03 286.969 176.351 281.037 176.469 275.004C176.469 273.734 176.656 272.356 177.539 271.451C178.608 270.353 180.345 270.332 181.845 270.432C186.074 270.696 190.276 271.286 194.414 272.198C194.737 272.27 195.131 272.377 195.232 272.686C195.345 272.923 195.38 273.191 195.329 273.45C195.279 273.708 195.147 273.944 194.952 274.121C188.528 278.062 183.97 285.312 181.544 292.403" fill="black"/>
</g>
<path d="M173.29 267.898C173.303 268.26 173.286 268.623 173.239 268.982C173.182 269.7 173.117 270.683 173.074 271.925C172.856 276.948 173.487 281.971 174.94 286.783C175.429 288.355 175.938 289.74 176.426 290.889C176.914 292.037 177.338 292.949 177.646 293.566C177.829 293.88 177.978 294.212 178.091 294.557C177.874 294.267 177.682 293.96 177.517 293.638C177.166 293.035 176.706 292.131 176.189 290.989C175.583 289.655 175.056 288.287 174.61 286.891C174.079 285.174 173.652 283.427 173.333 281.658C172.791 278.451 172.615 275.193 172.809 271.947C172.888 270.705 172.988 269.693 173.096 269.004C173.125 268.63 173.19 268.26 173.29 267.898Z" fill="#FAFAFA"/>
<path d="M245.613 248.877C245.494 248.937 245.369 248.983 245.239 249.014L244.163 249.33C243.689 249.459 243.115 249.617 242.454 249.832C241.794 250.047 241.019 250.256 240.222 250.55C238.564 251.103 236.633 251.842 234.516 252.746C232.398 253.651 230.123 254.77 227.805 256.062C225.486 257.354 223.362 258.74 221.474 260.053C219.586 261.367 217.957 262.659 216.629 263.786C215.947 264.324 215.365 264.862 214.842 265.315C214.318 265.767 213.88 266.169 213.528 266.506L212.695 267.26C212.502 267.432 212.394 267.518 212.387 267.504C212.462 267.396 212.548 267.298 212.645 267.21L213.427 266.398C213.765 266.047 214.188 265.63 214.705 265.164C215.222 264.697 215.782 264.145 216.457 263.585C217.77 262.429 219.399 261.13 221.273 259.773C223.321 258.323 225.441 256.976 227.625 255.739C229.819 254.522 232.073 253.417 234.379 252.431C236.533 251.54 238.471 250.823 240.122 250.277C240.954 249.997 241.715 249.803 242.383 249.61C243.05 249.416 243.632 249.272 244.112 249.165L245.204 248.921C245.337 248.886 245.475 248.871 245.613 248.877Z" fill="#FAFAFA"/>
<path d="M253.989 286.804C253.932 286.869 252.848 285.764 250.766 284.436C249.545 283.665 248.264 282.995 246.933 282.433C245.31 281.754 243.628 281.223 241.909 280.847C238.767 280.157 235.536 279.961 232.334 280.266C229.879 280.517 228.393 280.926 228.372 280.847C228.71 280.72 229.058 280.619 229.412 280.545C230.356 280.301 231.315 280.121 232.283 280.007C235.517 279.616 238.793 279.776 241.973 280.481C243.72 280.864 245.426 281.412 247.07 282.117C248.411 282.7 249.697 283.404 250.91 284.22L251.628 284.716L252.252 285.211C252.592 285.463 252.913 285.739 253.214 286.036C253.492 286.271 253.752 286.528 253.989 286.804Z" fill="#FAFAFA"/>
<path d="M189.784 348.253C189.665 348.239 189.549 348.208 189.44 348.16C189.116 348.061 188.797 347.946 188.485 347.816C187.322 347.356 186.201 346.799 185.133 346.15C181.57 344.018 178.605 341.02 176.512 337.435C174.418 333.85 173.266 329.794 173.16 325.643C173.118 324.396 173.183 323.147 173.354 321.911C173.404 321.473 173.483 321.136 173.519 320.906C173.539 320.789 173.568 320.674 173.605 320.562C173.599 321.018 173.563 321.474 173.498 321.925C173.383 323.159 173.357 324.399 173.419 325.636C173.597 329.727 174.769 333.712 176.834 337.248C178.899 340.783 181.794 343.763 185.269 345.928C186.32 346.586 187.413 347.174 188.542 347.686C189.339 348.031 189.791 348.225 189.784 348.253Z" fill="#FAFAFA"/>
<g opacity="0.2">
<path d="M191.664 331.673C191.106 331.483 190.505 331.459 189.933 331.606C189.362 331.752 188.846 332.063 188.449 332.498C188.061 332.942 187.777 333.467 187.62 334.035C187.462 334.603 187.434 335.198 187.537 335.779C187.645 336.902 188.128 337.956 188.908 338.772C189.555 339.398 190.385 339.803 191.277 339.927C191.834 339.915 192.377 339.749 192.846 339.45C193.316 339.15 193.694 338.726 193.94 338.226C194.249 337.652 194.435 337.02 194.487 336.37C194.539 335.72 194.456 335.066 194.242 334.45C194.028 333.834 193.689 333.269 193.245 332.791C192.801 332.313 192.263 331.932 191.664 331.673Z" fill="black"/>
</g>
<path d="M190.552 331.522C190.035 332.146 189.685 332.891 189.535 333.688C189.385 334.484 189.44 335.306 189.695 336.075C189.95 336.845 190.396 337.537 190.991 338.086C191.587 338.636 192.313 339.025 193.1 339.217C192.777 339.506 192.39 339.715 191.971 339.826C191.552 339.937 191.112 339.947 190.688 339.855C189.635 339.505 188.729 338.811 188.117 337.884C187.505 336.957 187.223 335.852 187.315 334.745C187.36 333.838 187.729 332.977 188.356 332.319C188.964 331.79 189.747 331.506 190.552 331.522Z" fill="#1ACFD3"/>
<g opacity="0.4">
<path d="M190.552 331.522C190.035 332.146 189.685 332.891 189.535 333.688C189.385 334.484 189.44 335.306 189.695 336.075C189.95 336.845 190.396 337.537 190.991 338.086C191.587 338.636 192.313 339.025 193.1 339.217C192.777 339.506 192.39 339.715 191.971 339.826C191.552 339.937 191.112 339.947 190.688 339.855C189.635 339.505 188.729 338.811 188.117 337.884C187.505 336.957 187.223 335.852 187.315 334.745C187.36 333.838 187.729 332.977 188.356 332.319C188.964 331.79 189.747 331.506 190.552 331.522Z" fill="black"/>
</g>
<g opacity="0.2">
<path d="M181.084 327.59C180.545 327.41 179.965 327.39 179.415 327.533C178.865 327.675 178.368 327.974 177.984 328.393C177.609 328.821 177.335 329.328 177.182 329.876C177.029 330.424 177.001 330.999 177.101 331.559C177.22 332.635 177.686 333.643 178.429 334.43C179.056 335.033 179.857 335.422 180.718 335.543C181.255 335.531 181.777 335.373 182.229 335.084C182.681 334.795 183.045 334.388 183.281 333.906C183.578 333.351 183.757 332.741 183.807 332.113C183.857 331.485 183.776 330.854 183.569 330.259C183.363 329.665 183.036 329.119 182.608 328.657C182.18 328.195 181.662 327.827 181.084 327.575" fill="black"/>
</g>
<path d="M180.015 327.46C179.513 328.061 179.174 328.781 179.028 329.55C178.882 330.319 178.934 331.113 179.181 331.856C179.428 332.599 179.86 333.267 180.436 333.797C181.013 334.326 181.715 334.7 182.477 334.882C182.164 335.162 181.79 335.364 181.385 335.473C180.98 335.581 180.555 335.593 180.144 335.506C179.127 335.166 178.254 334.494 177.665 333.599C177.075 332.704 176.803 331.636 176.893 330.568C176.934 329.696 177.288 328.868 177.89 328.235C178.486 327.716 179.254 327.439 180.044 327.46" fill="#1ACFD3"/>
<g opacity="0.4">
<path d="M180.015 327.46C179.513 328.061 179.174 328.781 179.028 329.55C178.882 330.319 178.934 331.113 179.181 331.856C179.428 332.599 179.86 333.267 180.436 333.797C181.013 334.326 181.715 334.7 182.477 334.882C182.164 335.162 181.79 335.364 181.385 335.473C180.98 335.581 180.555 335.593 180.144 335.506C179.127 335.166 178.254 334.494 177.665 333.599C177.075 332.704 176.803 331.636 176.893 330.568C176.934 329.696 177.288 328.868 177.89 328.235C178.486 327.716 179.254 327.439 180.044 327.46" fill="black"/>
</g>
<path d="M208.317 307.835C208.317 307.835 208.388 307.835 208.417 307.785H208.467L208.317 307.835Z" fill="#263238"/>
<path d="M213.744 310.075C213.403 309.158 212.743 308.393 211.885 307.922C211.203 307.581 210.45 307.406 209.688 307.412H209.624C209.2 307.438 208.787 307.561 208.418 307.771C207.621 308.168 206.938 308.762 206.436 309.497C205.933 310.232 205.627 311.083 205.547 311.97C205.496 313.104 205.783 314.227 206.371 315.198C206.958 316.169 207.821 316.944 208.848 317.425C209.527 317.774 210.301 317.89 211.052 317.755C211.796 317.543 212.446 317.085 212.897 316.456C213.583 315.56 214.023 314.498 214.172 313.379C214.32 312.259 214.173 311.12 213.744 310.075Z" fill="#263238"/>
<path d="M186.13 300.851C186.16 300.834 186.191 300.82 186.223 300.809H186.266L186.13 300.851Z" fill="#263238"/>
<path d="M190.825 302.811C190.536 302.003 189.962 301.329 189.21 300.916C188.622 300.619 187.973 300.467 187.315 300.471H187.236C186.869 300.495 186.513 300.603 186.195 300.787C185.503 301.129 184.91 301.644 184.474 302.281C184.038 302.918 183.773 303.657 183.704 304.426C183.662 305.408 183.912 306.38 184.423 307.22C184.934 308.06 185.683 308.729 186.575 309.142C187.153 309.484 187.842 309.588 188.495 309.433C189.149 309.278 189.716 308.875 190.078 308.309C190.668 307.535 191.046 306.622 191.177 305.658C191.308 304.695 191.187 303.713 190.825 302.811Z" fill="#263238"/>
<path d="M192.26 314.806C192.412 314.815 192.561 314.844 192.705 314.892C193.128 314.999 193.545 315.129 193.954 315.279C195.465 315.833 196.887 316.604 198.175 317.569C200.102 318.994 201.741 320.772 203.005 322.809C204.538 325.31 205.558 328.092 206.006 330.992C206.464 333.886 206.43 336.837 205.905 339.72C205.525 342.106 204.494 344.341 202.926 346.18C201.848 347.398 200.451 348.29 198.893 348.757C198.33 348.941 197.739 349.021 197.148 348.993C197.724 348.915 198.293 348.79 198.849 348.62C200.355 348.11 201.696 347.205 202.733 346C204.231 344.184 205.211 341.997 205.568 339.669C206.07 336.822 206.091 333.911 205.632 331.056C205.195 328.204 204.202 325.466 202.711 322.996C201.481 320.984 199.89 319.217 198.017 317.784C196.755 316.819 195.372 316.023 193.904 315.416C192.878 315.014 192.26 314.842 192.26 314.806Z" fill="#263238"/>
<path d="M185.405 306.314C185.37 306.314 185.183 306.185 184.989 305.848C184.756 305.405 184.631 304.913 184.623 304.412C184.625 303.912 184.748 303.419 184.982 302.977C185.176 302.639 185.355 302.481 185.398 302.51C185.188 303.133 185.053 303.779 184.996 304.434C185.062 305.074 185.199 305.705 185.405 306.314Z" fill="#FAFAFA"/>
<path d="M207.047 314.246C207.004 314.246 206.824 314.081 206.666 313.7C206.473 313.195 206.42 312.647 206.516 312.114C206.597 311.583 206.826 311.086 207.176 310.678C207.449 310.363 207.678 310.248 207.707 310.284C207.333 310.87 207.055 311.512 206.882 312.186C206.82 312.877 206.876 313.573 207.047 314.246Z" fill="#FAFAFA"/>
<path d="M220.663 352.173C220.627 352.231 219.759 351.628 218.237 350.867C216.244 349.905 214.183 349.089 212.071 348.426C209.595 347.622 207.341 346.933 205.726 346.359C204.922 346.079 204.29 345.835 203.831 345.641C203.597 345.56 203.373 345.452 203.164 345.318C204.06 345.534 204.944 345.798 205.812 346.108C207.434 346.618 209.703 347.264 212.186 348.075C214.318 348.737 216.385 349.595 218.359 350.637C218.739 350.831 219.077 351.039 219.357 351.218C219.606 351.366 219.846 351.529 220.074 351.707C220.29 351.836 220.488 351.993 220.663 352.173Z" fill="#263238"/>
<path d="M271.589 329.054C271.397 329.408 271.176 329.747 270.929 330.066C270.498 330.705 269.816 331.602 268.948 332.678C266.638 335.456 264.128 338.061 261.44 340.474C258.303 343.345 255.382 345.778 253.315 347.615L250.874 349.769C250.59 350.052 250.283 350.311 249.956 350.544C250.203 350.23 250.477 349.937 250.774 349.668C251.319 349.116 252.13 348.34 253.143 347.393C255.167 345.505 258.059 343.007 261.182 340.172C263.857 337.767 266.381 335.2 268.74 332.485C269.637 331.437 270.348 330.568 270.814 329.958C271.049 329.637 271.308 329.335 271.589 329.054Z" fill="#263238"/>
<g opacity="0.2">
<path d="M259.387 342.346C263.248 342.662 267.634 341.478 270.376 338.757C271.752 337.357 272.681 335.579 273.045 333.649C273.41 331.719 273.193 329.725 272.422 327.919C270.168 331.135 267.627 334.551 264.526 337.178C262.574 338.836 261.274 340.846 259.387 342.368" fill="black"/>
</g>
<g opacity="0.5">
<path d="M245.635 252.072C250.659 259.465 260.959 261.805 265.94 269.213C267.871 272.084 268.812 275.472 269.745 278.802L281.229 320.239C281.703 311.26 279.542 302.374 277.389 293.638C275.274 285.025 273.152 276.412 271.022 267.798C270.671 265.872 269.971 264.025 268.955 262.351C267.821 260.721 266.134 259.58 264.491 258.475C258.59 254.512 252.518 250.479 245.599 248.899" fill="black"/>
</g>
<g opacity="0.3">
<path d="M210.406 274.451C210.722 275.456 209.344 276.827 207.197 278.528C206.114 279.375 204.85 280.344 203.458 281.399C202.065 282.454 200.587 283.61 199.029 284.859C197.471 286.108 196.065 287.35 194.722 288.448C193.38 289.546 192.21 290.644 191.134 291.527C189.03 293.286 187.415 294.355 186.489 293.838C185.564 293.321 185.628 291.283 186.856 288.426C187.59 286.769 188.523 285.207 189.633 283.775C192.353 280.25 195.851 277.403 199.855 275.456C201.484 274.664 203.202 274.069 204.972 273.683C208.052 273.087 210.104 273.489 210.406 274.451Z" fill="white"/>
</g>
<path d="M191.205 331.099C190.678 331.289 190.132 331.422 189.576 331.494C189.048 331.676 188.502 331.804 187.947 331.874C188.37 331.474 188.912 331.222 189.49 331.156C190.042 330.958 190.642 330.938 191.205 331.099Z" fill="#FAFAFA"/>
<path d="M180.309 327.144C179.81 327.262 179.305 327.351 178.795 327.41C177.984 327.589 177.359 327.926 177.316 327.833C177.273 327.74 177.819 327.244 178.709 327.043C178.969 326.953 179.244 326.916 179.519 326.933C179.794 326.95 180.063 327.022 180.309 327.144Z" fill="#FAFAFA"/>
<path d="M228.63 360.52C228.53 360.571 227.575 358.963 226.247 357.075C224.919 355.187 223.735 353.745 223.814 353.673C224.874 354.6 225.797 355.673 226.556 356.86C227.413 357.978 228.111 359.21 228.63 360.52Z" fill="#FAFAFA"/>
<path d="M185.872 285.19C185.973 285.255 184.559 287.344 183.331 290.143C182.104 292.942 181.515 295.39 181.4 295.361C181.417 294.812 181.513 294.268 181.687 293.746C182.015 292.461 182.45 291.205 182.987 289.992C183.519 288.777 184.15 287.608 184.874 286.497C185.15 286.021 185.485 285.582 185.872 285.19Z" fill="#FAFAFA"/>
<path d="M220.67 271.294C219.288 271.159 217.932 270.828 216.643 270.311C215.314 269.906 214.046 269.321 212.875 268.574C212.925 268.473 214.619 269.205 216.765 269.952C218.912 270.698 220.699 271.186 220.67 271.294Z" fill="#FAFAFA"/>
<path d="M276.657 259.658C274.978 261.949 272.511 263.537 269.73 264.116C270.989 263.55 272.218 262.92 273.412 262.228C274.536 261.427 275.619 260.569 276.657 259.658Z" fill="#EB996E"/>
<path d="M297.68 254.856C293.819 245.956 255.245 214.359 255.245 214.359L233.497 242.597C233.812 242.173 268.976 263.592 268.976 263.592L279.348 310.879L281.135 319.32C281.135 319.32 276.47 323.39 276.664 327.682C276.786 330.553 270.204 336.733 270.204 336.733C268.639 335.434 267.634 335.068 266.845 335.219L259.846 341.772L261.511 343.294C263.368 344.988 265.811 345.891 268.323 345.813L280.289 345.447C281.995 345.398 283.615 344.684 284.803 343.459C288.486 339.676 296.252 331.214 296.403 327.137C296.496 324.854 296.51 322.679 296.503 320.928C296.467 320.906 301.535 263.757 297.68 254.856Z" fill="#FFBE9D"/>
<path d="M286.225 330.475C286.027 330.653 285.801 330.799 285.557 330.905C285.119 331.149 284.444 331.436 283.662 331.867C282.761 332.387 281.965 333.071 281.315 333.884C280.493 334.909 279.526 335.809 278.444 336.554C276.443 337.886 274.068 338.54 271.668 338.42C271.247 338.42 270.83 338.347 270.433 338.205C270.273 338.149 270.134 338.047 270.031 337.911C269.929 337.776 269.869 337.613 269.859 337.444C269.853 337.339 269.872 337.233 269.916 337.137C269.96 337.04 270.026 336.956 270.11 336.892C270.232 336.82 270.311 336.834 270.311 336.841C270.311 336.848 270.247 336.841 270.153 336.949C270.091 337.013 270.045 337.09 270.019 337.175C269.993 337.26 269.987 337.35 270.003 337.437C270.023 337.572 270.082 337.699 270.173 337.802C270.263 337.905 270.381 337.98 270.512 338.018C270.889 338.131 271.282 338.18 271.675 338.162C274.007 338.207 276.298 337.541 278.243 336.253C279.295 335.528 280.24 334.658 281.049 333.669C281.735 332.837 282.576 332.147 283.526 331.637C284.344 331.228 285.026 330.984 285.485 330.776C285.722 330.654 285.97 330.554 286.225 330.475Z" fill="#EB996E"/>
<path d="M280.755 336.705C280.805 336.798 279.815 337.38 278.752 338.284C277.69 339.189 276.944 340.057 276.857 339.992C277.248 339.21 277.819 338.531 278.523 338.011C279.148 337.399 279.915 336.95 280.755 336.705Z" fill="#EB996E"/>
<path d="M285.572 317.117C285.572 317.225 284.516 317.289 283.361 317.835C282.205 318.38 281.473 319.148 281.394 319.069C281.846 318.392 282.473 317.852 283.209 317.505C283.945 317.158 284.762 317.019 285.572 317.103V317.117Z" fill="#EB996E"/>
<path d="M278.107 340.395C278.107 340.46 277.339 340.086 276.047 339.785C273.897 339.254 271.641 339.349 269.544 340.058C269.31 340.146 269.07 340.218 268.826 340.273C268.558 340.322 268.282 340.263 268.058 340.108L266.192 338.701C265.59 338.303 265.025 337.851 264.505 337.352C265.15 337.679 265.767 338.058 266.35 338.486L268.28 339.799C268.589 340.036 268.998 339.857 269.45 339.692C269.92 339.529 270.4 339.394 270.886 339.29C272.623 338.947 274.416 339.021 276.119 339.505C276.629 339.651 277.126 339.84 277.604 340.072C277.942 340.266 278.121 340.373 278.107 340.395Z" fill="#EB996E"/>
<path d="M196.947 230.717C192.346 229.404 190.308 228.836 190.308 228.836V226.726H192.138C193.976 226.726 196.617 224.437 196.617 224.437L200.544 218.429L201.046 214.574C200.63 209.823 194.902 211.703 194.902 211.703C194.629 210.045 187.293 208.38 181.781 207.353C179.935 207.008 178.035 207.078 176.219 207.557C174.402 208.036 172.715 208.913 171.28 210.124L165.99 214.589L150.141 228.449L109.228 263.01L82.3327 255.071C82.3327 255.071 73.7768 281.234 72.3915 290.608C69.7142 308.617 94.4703 320.619 105.409 311.352C113.893 304.174 163.377 250.858 171.574 242.022H171.639C176.663 241.383 185.19 236.28 185.19 236.28L189.562 236.797C189.562 236.797 201.175 239.015 202.553 236.739C203.587 234.981 201.548 232.031 196.947 230.717Z" fill="#FFBE9D"/>
<path d="M173.124 225.492C173.124 225.492 173.239 225.657 173.376 225.995C173.575 226.471 173.733 226.963 173.849 227.466C174.239 229.13 174.303 230.853 174.036 232.541C173.772 234.229 173.177 235.849 172.285 237.307C172.02 237.748 171.717 238.166 171.38 238.556C171.143 238.836 171 238.979 170.978 238.958C170.957 238.936 171.438 238.297 172.055 237.178C173.685 234.237 174.231 230.818 173.598 227.516C173.347 226.26 173.06 225.514 173.124 225.492Z" fill="#EB996E"/>
<path d="M176.089 210.836C176.235 210.798 176.384 210.772 176.534 210.757C176.835 210.714 177.252 210.656 177.833 210.606C179.437 210.43 181.057 210.447 182.657 210.656C183.767 210.82 184.848 211.144 185.865 211.618C187.046 212.156 188.09 212.956 188.916 213.958C189.857 215.073 190.378 216.483 190.387 217.942C190.374 218.715 190.179 219.475 189.82 220.16C189.437 220.85 188.954 221.479 188.384 222.026C187.311 223.063 186.135 223.989 184.874 224.789C184.278 225.191 183.646 225.537 182.987 225.823C182.645 225.959 182.278 226.02 181.91 226.002C181.719 225.993 181.532 225.944 181.361 225.857C181.19 225.771 181.04 225.649 180.92 225.5C180.698 225.205 180.589 224.841 180.611 224.473C180.618 224.138 180.679 223.806 180.79 223.49C180.997 222.903 181.28 222.346 181.63 221.832C182.263 220.905 183.11 220.144 184.099 219.614L184.142 219.865L179.247 218.932L177.919 218.659C177.762 218.637 177.608 218.596 177.46 218.537C177.619 218.537 177.777 218.552 177.934 218.58L179.269 218.789L184.185 219.6L184.566 219.664L184.228 219.851C183.29 220.375 182.488 221.112 181.889 222.004C181.557 222.498 181.294 223.034 181.106 223.598C180.984 223.865 180.928 224.158 180.943 224.452C180.958 224.745 181.043 225.031 181.192 225.285C181.414 225.49 181.696 225.62 181.996 225.656C182.296 225.692 182.6 225.633 182.865 225.486C183.498 225.209 184.104 224.873 184.673 224.481C185.912 223.694 187.066 222.782 188.119 221.76C188.667 221.277 189.115 220.691 189.437 220.034C189.758 219.378 189.947 218.664 189.992 217.935C189.986 216.56 189.501 215.23 188.621 214.173C187.83 213.206 186.831 212.429 185.7 211.898C184.714 211.424 183.665 211.095 182.585 210.922C181.007 210.69 179.409 210.633 177.819 210.75L176.512 210.829C176.372 210.849 176.23 210.851 176.089 210.836Z" fill="#EB996E"/>
<path d="M194.959 211.927C195.032 212.179 195.073 212.44 195.081 212.702C195.152 213.417 195.181 214.136 195.167 214.855C195.172 217.236 194.556 219.576 193.38 221.645C191.945 224.05 189.698 225.6 187.839 225.844C187.469 225.895 187.092 225.856 186.74 225.732C186.388 225.607 186.07 225.399 185.815 225.127C185.682 224.976 185.58 224.8 185.513 224.61C185.484 224.547 185.472 224.478 185.477 224.409C185.601 224.631 185.751 224.838 185.923 225.026C186.176 225.253 186.478 225.418 186.805 225.51C187.132 225.602 187.476 225.618 187.81 225.557C189.519 225.277 191.686 223.749 193.057 221.437C194.198 219.415 194.831 217.147 194.902 214.827C194.995 213.039 194.895 211.927 194.959 211.927Z" fill="#EB996E"/>
<path d="M184.803 232.426C184.76 232.376 185.133 232.053 185.578 231.407C186.149 230.576 186.504 229.617 186.612 228.614C186.703 227.609 186.537 226.596 186.131 225.672C185.822 224.954 185.52 224.566 185.571 224.53C185.92 224.799 186.194 225.152 186.367 225.557C186.873 226.504 187.088 227.58 186.985 228.648C186.881 229.717 186.464 230.732 185.786 231.564C185.535 231.928 185.197 232.224 184.803 232.426Z" fill="#EB996E"/>
<path d="M177.826 218.831C178.085 219.312 178.166 219.868 178.056 220.403C178.01 220.992 177.838 221.565 177.553 222.083C177.228 222.715 176.817 223.299 176.333 223.82C175.42 224.731 174.32 225.434 173.11 225.88C172.634 226.111 172.129 226.28 171.61 226.382C172.046 226.092 172.513 225.851 173.002 225.664C174.139 225.161 175.175 224.456 176.06 223.583C176.524 223.084 176.924 222.529 177.252 221.932C177.532 221.458 177.717 220.933 177.797 220.389C177.86 219.872 177.87 219.35 177.826 218.831Z" fill="#EB996E"/>
<path d="M208.346 220.941L188.155 231.945C188.155 231.945 198.957 234.622 208.769 244.994C214.103 250.644 218.278 257.284 221.058 264.539L241.155 251.16C241.155 251.16 230.339 226.655 208.346 220.941Z" fill="#455A64"/>
<path d="M191.715 231.536L208.016 222.205H208.066H208.116C210.998 222.981 213.77 224.122 216.363 225.6C219.311 227.305 222.06 229.332 224.56 231.644C227.333 234.187 229.874 236.971 232.154 239.963C234.627 243.154 236.82 246.552 238.708 250.119L238.787 250.27L238.643 250.363L237.588 251.081L222.07 261.453L221.883 261.575L221.804 261.374C219.61 255.945 216.594 250.885 212.861 246.373C209.894 242.836 206.463 239.716 202.661 237.099C200.18 235.378 197.536 233.906 194.765 232.706C193.789 232.29 193.028 231.988 192.504 231.823L191.916 231.622L191.715 231.551L191.923 231.594L192.526 231.766C193.057 231.931 193.825 232.197 194.808 232.591C197.619 233.749 200.303 235.192 202.819 236.898C206.66 239.501 210.125 242.619 213.119 246.164C216.894 250.692 219.945 255.777 222.163 261.238L221.897 261.159L237.409 250.773L238.464 250.055L238.399 250.292C236.523 246.746 234.347 243.368 231.896 240.193C229.633 237.215 227.111 234.443 224.359 231.909C221.873 229.607 219.141 227.585 216.213 225.88C213.648 224.401 210.905 223.253 208.051 222.463H208.152L191.715 231.536Z" fill="white"/>
<path d="M224.769 238.168C224.238 241.276 220.304 243.157 215.976 242.367C211.648 241.578 208.554 238.42 209.085 235.312C209.616 232.204 213.55 230.323 217.878 231.113C222.206 231.902 225.278 235.06 224.769 238.168Z" fill="#FAFAFA"/>
<path d="M215.358 239.166L214.64 239.942L213.837 239.159L214.511 238.442C213.933 237.835 213.514 237.095 213.291 236.288L214.648 235.7C214.829 236.45 215.214 237.136 215.76 237.681C216.313 238.219 216.672 238.262 216.88 238.032C217.598 237.257 214.404 235.226 216.04 233.417C216.758 232.656 217.849 232.52 219.055 233.417L219.773 232.656L220.576 233.439L219.895 234.156C220.347 234.656 220.685 235.249 220.885 235.893L219.55 236.518C219.371 235.9 219.043 235.336 218.595 234.874C218.036 234.336 217.655 234.336 217.44 234.573C216.765 235.29 219.93 237.351 218.308 239.145C217.641 239.884 216.55 240.028 215.358 239.166Z" fill="#455A64"/>
<path d="M196.323 228.944C196.323 228.944 199.747 230.681 196.46 233.251L191.435 231.299L196.323 228.944Z" fill="#FAFAFA"/>
<path d="M205.518 223.777C205.518 223.777 208.819 227.265 211.978 223.633L208.087 222.334L205.518 223.777Z" fill="#FAFAFA"/>
<path d="M219.923 256.708C219.923 256.708 224.366 253.119 226.958 257.972L221.998 261.288L219.923 256.708Z" fill="#FAFAFA"/>
<path d="M236.318 246.251C236.318 246.251 233.109 248.261 235.284 252.402L238.571 250.206L236.318 246.251Z" fill="#FAFAFA"/>
<path d="M224.424 257.893C224.415 258.158 224.329 258.415 224.175 258.631C224.022 258.847 223.808 259.013 223.56 259.109C223.312 259.204 223.042 259.224 222.783 259.167C222.524 259.109 222.288 258.977 222.103 258.786C221.919 258.595 221.796 258.354 221.748 258.093C221.7 257.832 221.73 257.563 221.834 257.319C221.939 257.075 222.113 256.867 222.335 256.721C222.556 256.576 222.816 256.499 223.082 256.5C223.261 256.503 223.439 256.541 223.603 256.613C223.768 256.684 223.917 256.788 224.042 256.917C224.167 257.047 224.265 257.199 224.33 257.367C224.396 257.534 224.428 257.713 224.424 257.893Z" fill="#455A64"/>
<path d="M237.89 249.33C237.88 249.593 237.793 249.848 237.639 250.062C237.486 250.276 237.273 250.44 237.027 250.534C236.781 250.628 236.513 250.647 236.256 250.59C235.999 250.532 235.765 250.401 235.582 250.211C235.399 250.022 235.276 249.783 235.228 249.524C235.181 249.265 235.21 248.998 235.313 248.755C235.416 248.513 235.588 248.306 235.807 248.161C236.027 248.015 236.284 247.938 236.547 247.938C236.727 247.94 236.904 247.979 237.069 248.05C237.234 248.122 237.383 248.225 237.508 248.355C237.633 248.484 237.731 248.637 237.796 248.804C237.862 248.972 237.893 249.15 237.89 249.33Z" fill="#455A64"/>
<path d="M210.154 223.64C210.154 224.136 209.437 224.538 208.611 224.538C207.786 224.538 207.075 224.136 207.075 223.64C207.075 223.145 207.793 222.743 208.618 222.743C209.444 222.743 210.154 223.138 210.154 223.64Z" fill="#455A64"/>
<path d="M197.034 231.084C197.104 231.393 197.076 231.716 196.954 232.008C196.832 232.301 196.623 232.548 196.354 232.717C196.086 232.885 195.772 232.965 195.456 232.947C195.139 232.929 194.836 232.814 194.589 232.616C194.341 232.418 194.161 232.149 194.073 231.844C193.986 231.54 193.995 231.216 194.099 230.917C194.204 230.618 194.399 230.358 194.657 230.175C194.915 229.991 195.224 229.893 195.541 229.892C195.896 229.858 196.25 229.963 196.529 230.185C196.808 230.408 196.989 230.73 197.034 231.084Z" fill="#455A64"/>
<path d="M209.408 230.316C209.408 231.076 208.46 231.694 207.29 231.694C206.12 231.694 205.18 231.098 205.18 230.316C205.18 229.533 206.128 228.938 207.298 228.938C208.468 228.938 209.408 229.598 209.408 230.316Z" fill="#FAFAFA"/>
<path d="M226.412 248.777C225.458 249.215 224.259 248.612 223.785 247.435C223.522 246.935 223.461 246.353 223.615 245.81C223.768 245.266 224.125 244.802 224.611 244.514C225.565 244.076 226.764 244.679 227.238 245.863C227.501 246.362 227.561 246.943 227.408 247.485C227.254 248.028 226.898 248.49 226.412 248.777Z" fill="#FAFAFA"/>
<path d="M196.625 224.437L204.915 233.186C204.915 233.186 208.231 236.983 210.463 235.189C212.696 233.394 209.559 230.05 208.899 229.073C208.238 228.097 200.113 218.242 200.113 218.242L196.625 224.437Z" fill="#FFBE9D"/>
<path d="M200.874 216.57C200.841 217.088 200.732 217.598 200.551 218.084C200.209 219.283 199.727 220.437 199.115 221.523C198.491 222.615 197.693 223.599 196.754 224.437C196.384 224.803 195.951 225.1 195.476 225.312C195.82 224.934 196.187 224.577 196.574 224.243C197.431 223.383 198.177 222.418 198.792 221.372C200.221 218.831 200.773 216.527 200.874 216.57Z" fill="#EB996E"/>
<path d="M123.77 250.722C123.654 250.861 123.524 250.989 123.383 251.102L122.227 252.136L117.92 255.875C114.267 259.012 109.192 263.326 103.565 268.027C97.9374 272.729 92.7048 276.971 88.9006 279.899C87.0057 281.392 85.4481 282.562 84.3571 283.366L83.0938 284.263C82.9534 284.377 82.8019 284.475 82.6416 284.558C82.7696 284.431 82.9063 284.314 83.0507 284.206L84.271 283.244C85.3333 282.412 86.8621 281.213 88.7355 279.698C92.4895 276.677 97.6288 272.442 103.285 267.74C108.941 263.039 114.008 258.782 117.741 255.674L122.127 252.021L123.332 251.045C123.468 250.924 123.615 250.816 123.77 250.722Z" fill="#EB996E"/>
</svg>
